SplineFontDB: 3.0
FontName: EngravingShadedCC
FullName: Engraving Shaded CC
FamilyName: Engraving Shaded CC
Weight: Bold
Copyright: Copyright 2020 The Cowboy Collective (https://cowboycollective.cc)
UComments: "Made with love by indestructible type* for the Cowboy Collective"
Version: 001.000
ItalicAngle: 0
UnderlinePosition: -200
UnderlineWidth: 100
Ascent: 1600
Descent: 400
InvalidEm: 0
LayerCount: 2
Layer: 0 0 "Back" 1
Layer: 1 0 "Fore" 0
PreferredKerning: 4
XUID: [1021 31 -699969567 16188444]
FSType: 0
OS2Version: 0
OS2_WeightWidthSlopeOnly: 0
OS2_UseTypoMetrics: 0
CreationTime: 1465610489
ModificationTime: 1594111505
PfmFamily: 33
TTFWeight: 700
TTFWidth: 5
LineGap: 0
VLineGap: 0
OS2TypoAscent: 2060
OS2TypoAOffset: 0
OS2TypoDescent: -700
OS2TypoDOffset: 0
OS2TypoLinegap: 0
OS2WinAscent: 2060
OS2WinAOffset: 0
OS2WinDescent: 700
OS2WinDOffset: 0
HheadAscent: 2060
HheadAOffset: 0
HheadDescent: -700
HheadDOffset: 0
OS2CapHeight: 700
OS2XHeight: 460
OS2Vendor: 'it* '
Lookup: 258 0 0 "'kern' Horizontal Kerning lookup 0" { "kerning like they all do" [150,0,6] } ['kern' ('DFLT' <'dflt' > 'grek' <'dflt' > 'latn' <'dflt' > ) ]
MarkAttachClasses: 1
DEI: 91125
KernClass2: 16 12 "kerning like they all do"
 108 A backslash a agrave aacute acircumflex atilde adieresis aring Amacron amacron Abreve abreve Aogonek aogonek
 197 D O d o Ograve Oacute Ocircumflex Otilde Odieresis Oslash eth ograve oacute ocircumflex otilde odieresis oslash Dcaron dcaron Dcroat dcroat Omacron omacron Obreve obreve Ohungarumlaut ohungarumlaut
 32 K X k x ccedilla uni0136 uni0137
 31 V W v w Wcircumflex wcircumflex
 57 L l Lacute lacute Lcommaaccent lcommaaccent Lslash lslash
 47 F T f t uni0162 uni0163 Tcaron tcaron Tbar tbar
 54 Y y Yacute ydieresis Ycircumflex ycircumflex Ydieresis
 173 J U j u Ugrave Uacute Ucircumflex Udieresis IJ ij Jcircumflex jcircumflex Utilde utilde Umacron umacron Ubreve ubreve Uring uring Uhungarumlaut uhungarumlaut Uogonek uogonek
 3 P p

StartChar: H
Encoding: 72 72 0
GlifName: H_
Width: 2415
Flags: HMW
AnchorPoint: "cedilla" 591 0 basechar 0
AnchorPoint: "bottom" 1206 0 basechar 0
AnchorPoint: "top" 1205 1400 basechar 0
LayerCount: 2
Fore
SplineSet
80 1380 m 1
 80 1400 l 1
 1130 1400 l 1
 1130 1380 l 1
 1049 1371 999 1361 934 1335 c 0
 834 1296 806 1280 806 1225 c 2
 806 740 l 1
 1609 740 l 1
 1609 1225 l 2
 1609 1280 1581 1296 1481 1335 c 0
 1416 1361 1366 1371 1285 1380 c 1
 1285 1400 l 1
 2335 1400 l 1
 2335 1380 l 1
 2254 1371 2204 1361 2139 1335 c 0
 2039 1296 2011 1280 2011 1225 c 2
 2011 175 l 2
 2011 120 2039 104 2139 65 c 0
 2204 39 2254 29 2335 20 c 1
 2335 0 l 1
 1285 0 l 1
 1285 20 l 1
 1366 29 1416 39 1481 65 c 0
 1581 104 1609 120 1609 175 c 2
 1609 711 l 1
 806 711 l 1
 806 175 l 2
 806 120 834 104 934 65 c 0
 999 39 1049 29 1130 20 c 1
 1130 0 l 1
 80 0 l 1
 80 20 l 1
 161 29 211 39 276 65 c 0
 376 104 404 120 404 175 c 2
 404 1225 l 2
 404 1280 376 1296 276 1335 c 0
 211 1361 161 1371 80 1380 c 1
2042 35 m 2
 2046 34 2049 32 2053 31 c 2
 2032 10 l 1
 2047 10 l 1
 2064 27 l 1
 2052 31 2041 34 2030 38 c 1
 2002 10 l 1
 2017 10 l 1
 2042 35 l 2
1997 50 m 2
 2001 49 2004 47 2008 46 c 2
 1972 10 l 1
 1987 10 l 1
 2019 42 l 1
 2008 46 1998 51 1987 55 c 1
 1942 10 l 1
 1957 10 l 1
 1997 50 l 2
1870 133 m 2
 1872 130 1873 126 1875 123 c 2
 1762 10 l 1
 1777 10 l 1
 1882 115 l 1
 1875 124 1869 133 1866 144 c 1
 1732 10 l 1
 1747 10 l 1
 1870 133 l 2
837 35 m 2
 841 34 844 32 848 31 c 2
 827 10 l 1
 842 10 l 1
 859 27 l 1
 847 31 836 34 825 38 c 1
 797 10 l 1
 812 10 l 1
 837 35 l 2
792 50 m 2
 796 49 799 47 803 46 c 2
 767 10 l 1
 782 10 l 1
 814 42 l 1
 803 46 793 51 782 55 c 1
 737 10 l 1
 752 10 l 1
 792 50 l 2
665 133 m 2
 667 130 668 126 670 123 c 2
 557 10 l 1
 572 10 l 1
 677 115 l 1
 670 124 664 133 661 144 c 1
 527 10 l 1
 542 10 l 1
 665 133 l 2
2077 10 m 1
 2086 19 l 2
 2089 18 2092 18 2095 17 c 1
 2084 21 2073 24 2064 27 c 1
 2068 26 2071 24 2075 23 c 2
 2062 10 l 1
 2077 10 l 1
2092 10 m 1
 2105 10 l 1
 2105 13 l 2
 2102 14 2100 15 2098 16 c 2
 2092 10 l 1
1927 10 m 1
 1976 59 l 2
 1977 59 1978 58 1979 58 c 1
 1973 60 1968 63 1962 65 c 1
 1963 65 1964 63 1965 63 c 2
 1912 10 l 1
 1927 10 l 1
1984 56 m 1
 1983 56 l 1
 1984 56 l 1
1955 68 m 2
 1951 70 1947 70 1944 72 c 2
 1882 10 l 1
 1897 10 l 1
 1955 68 l 2
1867 10 m 1
 1934 77 l 2
 1935 77 1935 76 1936 76 c 1
 1932 78 1928 80 1924 82 c 1
 1852 10 l 1
 1867 10 l 1
1837 10 m 1
 1915 88 l 2
 1918 86 1920 85 1923 83 c 1
 1917 86 1911 90 1906 94 c 1
 1822 10 l 1
 1837 10 l 1
1807 10 m 1
 1897 100 l 2
 1898 99 1900 98 1901 97 c 1
 1897 100 1893 104 1889 107 c 1
 1792 10 l 1
 1807 10 l 1
1863 156 m 1
 1862 162 1861 168 1861 175 c 1
 1861 173 1861 171 1861 169 c 2
 1702 10 l 1
 1717 10 l 1
 1863 156 l 1
1687 10 m 1
 1861 184 l 1
 1861 199 l 1
 1672 10 l 1
 1687 10 l 1
1657 10 m 1
 1861 214 l 1
 1861 229 l 1
 1642 10 l 1
 1657 10 l 1
1627 10 m 1
 1861 244 l 1
 1861 259 l 1
 1612 10 l 1
 1627 10 l 1
1597 10 m 1
 1861 274 l 1
 1861 289 l 1
 1582 10 l 1
 1597 10 l 1
1567 10 m 1
 1861 304 l 1
 1861 319 l 1
 1552 10 l 1
 1567 10 l 1
1537 10 m 1
 1861 334 l 1
 1861 349 l 1
 1522 10 l 1
 1537 10 l 1
1507 10 m 1
 1861 364 l 1
 1861 379 l 1
 1604 122 l 2
 1600 116 1594 111 1588 106 c 2
 1492 10 l 1
 1507 10 l 1
1554 86 m 1
 1545 82 1536 78 1525 73 c 1
 1462 10 l 1
 1477 10 l 1
 1552 85 l 2
 1553 85 1553 86 1554 86 c 1
1604 122 m 1
 1610 130 1615 140 1617 150 c 1
 1861 394 l 1
 1861 409 l 1
 1619 167 l 1
 1618 149 1613 134 1604 122 c 1
1514 68 m 1
 1505 64 1496 61 1486 57 c 0
 1482 55 1479 54 1475 53 c 2
 1432 10 l 1
 1447 10 l 1
 1499 62 l 2
 1504 64 1509 66 1514 68 c 1
1619 182 m 1
 1861 424 l 1
 1861 439 l 1
 1619 197 l 1
 1619 182 l 1
1451 44 m 2
 1444 42 1436 39 1429 37 c 2
 1402 10 l 1
 1417 10 l 1
 1451 44 l 2
1619 212 m 1
 1861 454 l 1
 1861 469 l 1
 1619 227 l 1
 1619 212 l 1
1408 31 m 2
 1401 29 1396 28 1389 27 c 2
 1372 10 l 1
 1387 10 l 1
 1408 31 l 2
1619 242 m 1
 1861 484 l 1
 1861 499 l 1
 1619 257 l 1
 1619 242 l 1
1377 24 m 1
 1369 22 1360 20 1351 19 c 1
 1342 10 l 1
 1357 10 l 1
 1370 23 l 2
 1373 24 1374 23 1377 24 c 1
1619 272 m 1
 1861 514 l 1
 1861 529 l 1
 1619 287 l 1
 1619 272 l 1
1348 19 m 1
 1335 17 1322 15 1308 13 c 1
 1311 13 1313 14 1316 14 c 2
 1312 10 l 1
 1327 10 l 1
 1334 17 l 2
 1339 18 1343 18 1348 19 c 1
1619 302 m 1
 1861 544 l 1
 1861 559 l 1
 1619 317 l 1
 1619 302 l 1
1619 332 m 1
 1861 574 l 1
 1861 589 l 1
 1619 347 l 1
 1619 332 l 1
1619 362 m 1
 1861 604 l 1
 1861 619 l 1
 1619 377 l 1
 1619 362 l 1
1619 392 m 1
 1861 634 l 1
 1861 649 l 1
 1619 407 l 1
 1619 392 l 1
1619 422 m 1
 1861 664 l 1
 1861 679 l 1
 1619 437 l 1
 1619 422 l 1
1619 452 m 1
 1861 694 l 1
 1861 709 l 1
 1619 467 l 1
 1619 452 l 1
1619 482 m 1
 1861 724 l 1
 1861 739 l 1
 1619 497 l 1
 1619 482 l 1
1619 512 m 1
 1861 754 l 1
 1861 769 l 1
 1619 527 l 1
 1619 512 l 1
1619 542 m 1
 1861 784 l 1
 1861 799 l 1
 1619 557 l 1
 1619 542 l 1
1619 572 m 1
 1861 814 l 1
 1861 829 l 1
 1619 587 l 1
 1619 572 l 1
1619 602 m 1
 1861 844 l 1
 1861 859 l 1
 1619 617 l 1
 1619 602 l 1
1619 632 m 1
 1861 874 l 1
 1861 889 l 1
 1619 647 l 1
 1619 632 l 1
1619 662 m 1
 1861 904 l 1
 1861 919 l 1
 1619 677 l 1
 1619 662 l 1
1619 692 m 1
 1861 934 l 1
 1861 949 l 1
 1619 707 l 1
 1619 692 l 1
1619 722 m 1
 1861 964 l 1
 1861 979 l 1
 1619 737 l 1
 1619 722 l 1
1619 752 m 1
 1861 994 l 1
 1861 1009 l 1
 1619 767 l 1
 1619 752 l 1
1619 782 m 1
 1861 1024 l 1
 1861 1039 l 1
 1619 797 l 1
 1619 782 l 1
1619 812 m 1
 1861 1054 l 1
 1861 1069 l 1
 1619 827 l 1
 1619 812 l 1
1619 842 m 1
 1861 1084 l 1
 1861 1099 l 1
 1619 857 l 1
 1619 842 l 1
1619 872 m 1
 1861 1114 l 1
 1861 1129 l 1
 1619 887 l 1
 1619 872 l 1
1619 902 m 1
 1861 1144 l 1
 1861 1159 l 1
 1619 917 l 1
 1619 902 l 1
2103 1386 m 1
 2105 1388 l 1
 2105 1390 l 1
 2092 1390 l 1
 2081 1379 l 2
 2078 1378 2075 1377 2073 1376 c 1
 2082 1379 2092 1382 2103 1386 c 1
2104 1387 m 1
 2105 1387 l 1
 2104 1387 l 1
1619 932 m 1
 1861 1174 l 1
 1861 1189 l 1
 1619 947 l 1
 1619 932 l 1
2062 1372 m 1
 2061 1372 2059 1371 2058 1371 c 2
 2077 1390 l 1
 2062 1390 l 1
 2035 1363 l 2
 2043 1366 2053 1369 2062 1372 c 1
1619 962 m 1
 1861 1204 l 1
 1861 1219 l 1
 1619 977 l 1
 1619 962 l 1
2012 1355 m 1
 2047 1390 l 1
 2032 1390 l 1
 1988 1346 l 2
 1986 1345 1985 1345 1983 1344 c 1
 1993 1348 2002 1352 2012 1355 c 1
2017 1357 m 1
 2018 1357 2019 1358 2020 1358 c 1
 2019 1358 2018 1357 2017 1357 c 1
1619 992 m 1
 1861 1234 l 2
 1861 1232 1861 1230 1861 1228 c 1
 1861 1237 1862 1245 1864 1252 c 2
 1619 1007 l 1
 1619 992 l 1
1964 1336 m 1
 1963 1336 l 2
 2017 1390 l 1
 2002 1390 l 1
 1935 1323 l 2
 1944 1327 1954 1332 1964 1336 c 1
1974 1341 m 1
 1977 1342 1980 1343 1983 1344 c 1
 1980 1343 1977 1342 1974 1341 c 1
1880 1283 m 2
 1884 1288 1889 1293 1895 1298 c 0
 1926 1329 1956 1359 1987 1390 c 1
 1972 1390 l 1
 1619 1037 l 1
 1619 1022 l 1
 1880 1283 l 2
1866 1257 m 1
 1869 1266 1873 1275 1879 1282 c 1
 1873 1275 1869 1266 1866 1257 c 1
1895 1298 m 2
 1896 1299 l 1
 1895 1298 l 2
 1895 1298 l 2
1619 1052 m 1
 1957 1390 l 1
 1942 1390 l 1
 1619 1067 l 1
 1619 1052 l 1
1619 1082 m 1
 1927 1390 l 1
 1912 1390 l 1
 1619 1097 l 1
 1619 1082 l 1
1619 1112 m 1
 1897 1390 l 1
 1882 1390 l 1
 1619 1127 l 1
 1619 1112 l 1
1619 1142 m 1
 1867 1390 l 1
 1852 1390 l 1
 1619 1157 l 1
 1619 1142 l 1
1619 1172 m 1
 1837 1390 l 1
 1822 1390 l 1
 1619 1187 l 1
 1619 1172 l 1
1619 1202 m 1
 1807 1390 l 1
 1792 1390 l 1
 1619 1217 l 1
 1619 1202 l 1
1619 1228 m 1
 1619 1229 1619 1231 1619 1232 c 2
 1777 1390 l 1
 1762 1390 l 1
 1617 1245 l 1
 1618 1239 1619 1234 1619 1228 c 1
1617 1248 m 1
 1616 1251 1616 1255 1615 1258 c 2
 1747 1390 l 1
 1732 1390 l 1
 1610 1268 l 2
 1608 1271 1606 1274 1604 1277 c 2
 1717 1390 l 1
 1702 1390 l 1
 1598 1286 l 1
 1608 1276 1614 1263 1617 1248 c 1
1595 1288 m 1
 1593 1290 1592 1291 1590 1293 c 1
 1592 1291 1593 1290 1595 1288 c 1
1590 1293 m 2
 1687 1390 l 1
 1672 1390 l 1
 1581 1299 l 2
 1584 1297 1587 1295 1590 1293 c 2
1572 1305 m 1
 1657 1390 l 1
 1642 1390 l 1
 1562 1310 l 2
 1560 1311 1558 1312 1556 1313 c 1
 1562 1310 1567 1308 1572 1305 c 1
1555 1314 m 1
 1554 1314 1553 1315 1552 1315 c 2
 1627 1390 l 1
 1612 1390 l 1
 1542 1320 l 1
 1547 1318 1551 1316 1555 1314 c 1
1537 1322 m 1
 1535 1323 1533 1323 1531 1324 c 2
 1597 1390 l 1
 1582 1390 l 1
 1521 1329 l 1
 1527 1327 1532 1324 1537 1322 c 1
1517 1331 m 1
 1515 1332 1512 1332 1510 1333 c 2
 1567 1390 l 1
 1552 1390 l 1
 1500 1338 l 2
 1497 1339 1493 1341 1489 1342 c 2
 1537 1390 l 1
 1522 1390 l 1
 1478 1346 l 2
 1475 1347 1472 1348 1469 1349 c 1
 1475 1347 1480 1345 1486 1343 c 0
 1497 1339 1507 1335 1517 1331 c 1
1467 1350 m 2
 1507 1390 l 1
 1492 1390 l 1
 1456 1354 l 2
 1460 1353 1463 1351 1467 1350 c 2
1452 1356 m 1
 1450 1357 1447 1357 1445 1358 c 2
 1477 1390 l 1
 1462 1390 l 1
 1434 1362 l 2
 1430 1363 1426 1364 1422 1365 c 2
 1447 1390 l 1
 1432 1390 l 1
 1410 1368 l 2
 1409 1368 1408 1369 1407 1369 c 1
 1422 1365 1437 1361 1452 1356 c 1
1398 1371 m 1
 1417 1390 l 1
 1402 1390 l 1
 1386 1374 l 2
 1385 1374 1383 1375 1382 1375 c 1
 1387 1374 1393 1372 1398 1371 c 1
1374 1377 m 2
 1387 1390 l 1
 1372 1390 l 1
 1361 1379 l 2
 1365 1378 1370 1378 1374 1377 c 2
1348 1381 m 1
 1357 1390 l 1
 1342 1390 l 1
 1335 1383 l 2
 1332 1383 1330 1384 1327 1384 c 1
 1334 1383 1341 1382 1348 1381 c 1
1322 1385 m 1
 1327 1390 l 1
 1312 1390 l 1
 1309 1387 l 2
 1308 1387 1306 1387 1305 1387 c 1
 1311 1386 1316 1386 1322 1385 c 1
872 10 m 1
 881 19 l 2
 884 18 887 18 890 17 c 1
 879 21 868 24 859 27 c 1
 863 26 866 24 870 23 c 2
 857 10 l 1
 872 10 l 1
887 10 m 1
 900 10 l 1
 900 13 l 2
 897 14 895 15 893 16 c 2
 887 10 l 1
722 10 m 1
 771 59 l 2
 772 59 773 58 774 58 c 1
 768 60 763 63 757 65 c 1
 758 65 759 63 760 63 c 2
 707 10 l 1
 722 10 l 1
779 56 m 1
 778 56 l 1
 779 56 l 1
750 68 m 2
 746 70 742 70 739 72 c 2
 677 10 l 1
 692 10 l 1
 750 68 l 2
662 10 m 1
 729 77 l 2
 730 77 730 76 731 76 c 1
 727 78 723 80 719 82 c 1
 647 10 l 1
 662 10 l 1
632 10 m 1
 710 88 l 2
 713 86 715 85 718 83 c 1
 712 86 706 90 701 94 c 1
 617 10 l 1
 632 10 l 1
602 10 m 1
 692 100 l 2
 693 99 695 98 696 97 c 1
 692 100 688 104 684 107 c 1
 587 10 l 1
 602 10 l 1
658 156 m 1
 657 162 656 168 656 175 c 1
 656 173 656 171 656 169 c 2
 497 10 l 1
 512 10 l 1
 658 156 l 1
482 10 m 1
 656 184 l 1
 656 199 l 1
 467 10 l 1
 482 10 l 1
452 10 m 1
 656 214 l 1
 656 229 l 1
 437 10 l 1
 452 10 l 1
422 10 m 1
 656 244 l 1
 656 259 l 1
 407 10 l 1
 422 10 l 1
392 10 m 1
 656 274 l 1
 656 289 l 1
 377 10 l 1
 392 10 l 1
362 10 m 1
 656 304 l 1
 656 319 l 1
 347 10 l 1
 362 10 l 1
332 10 m 1
 656 334 l 1
 656 349 l 1
 317 10 l 1
 332 10 l 1
302 10 m 1
 656 364 l 1
 656 379 l 1
 399 122 l 2
 395 116 389 111 383 106 c 2
 287 10 l 1
 302 10 l 1
349 86 m 1
 340 82 331 78 320 73 c 1
 257 10 l 1
 272 10 l 1
 347 85 l 2
 348 85 348 86 349 86 c 1
399 122 m 1
 405 130 410 140 412 150 c 1
 656 394 l 1
 656 409 l 1
 414 167 l 1
 413 149 408 134 399 122 c 1
309 68 m 1
 300 64 291 61 281 57 c 0
 277 55 274 54 270 53 c 2
 227 10 l 1
 242 10 l 1
 294 62 l 2
 299 64 304 66 309 68 c 1
414 182 m 1
 656 424 l 1
 656 439 l 1
 414 197 l 1
 414 182 l 1
246 44 m 2
 239 42 231 39 224 37 c 2
 197 10 l 1
 212 10 l 1
 246 44 l 2
414 212 m 1
 656 454 l 1
 656 469 l 1
 414 227 l 1
 414 212 l 1
203 31 m 2
 196 29 191 28 184 27 c 2
 167 10 l 1
 182 10 l 1
 203 31 l 2
414 242 m 1
 656 484 l 1
 656 499 l 1
 414 257 l 1
 414 242 l 1
172 24 m 1
 164 22 155 20 146 19 c 1
 137 10 l 1
 152 10 l 1
 165 23 l 2
 168 24 169 23 172 24 c 1
414 272 m 1
 656 514 l 1
 656 529 l 1
 414 287 l 1
 414 272 l 1
143 19 m 1
 130 17 117 15 103 13 c 1
 106 13 108 14 111 14 c 2
 107 10 l 1
 122 10 l 1
 129 17 l 2
 134 18 138 18 143 19 c 1
414 302 m 1
 656 544 l 1
 656 559 l 1
 414 317 l 1
 414 302 l 1
414 332 m 1
 656 574 l 1
 656 589 l 1
 414 347 l 1
 414 332 l 1
414 362 m 1
 656 604 l 1
 656 619 l 1
 414 377 l 1
 414 362 l 1
414 392 m 1
 656 634 l 1
 656 649 l 1
 414 407 l 1
 414 392 l 1
414 422 m 1
 656 664 l 1
 656 679 l 1
 414 437 l 1
 414 422 l 1
414 452 m 1
 656 694 l 1
 656 709 l 1
 414 467 l 1
 414 452 l 1
414 482 m 1
 656 724 l 1
 656 739 l 1
 414 497 l 1
 414 482 l 1
414 512 m 1
 656 754 l 1
 656 769 l 1
 414 527 l 1
 414 512 l 1
414 542 m 1
 656 784 l 1
 656 799 l 1
 414 557 l 1
 414 542 l 1
414 572 m 1
 656 814 l 1
 656 829 l 1
 414 587 l 1
 414 572 l 1
414 602 m 1
 656 844 l 1
 656 859 l 1
 414 617 l 1
 414 602 l 1
414 632 m 1
 656 874 l 1
 656 889 l 1
 414 647 l 1
 414 632 l 1
414 662 m 1
 656 904 l 1
 656 919 l 1
 414 677 l 1
 414 662 l 1
414 692 m 1
 656 934 l 1
 656 949 l 1
 414 707 l 1
 414 692 l 1
414 722 m 1
 656 964 l 1
 656 979 l 1
 414 737 l 1
 414 722 l 1
414 752 m 1
 656 994 l 1
 656 1009 l 1
 414 767 l 1
 414 752 l 1
414 782 m 1
 656 1024 l 1
 656 1039 l 1
 414 797 l 1
 414 782 l 1
414 812 m 1
 656 1054 l 1
 656 1069 l 1
 414 827 l 1
 414 812 l 1
414 842 m 1
 656 1084 l 1
 656 1099 l 1
 414 857 l 1
 414 842 l 1
414 872 m 1
 656 1114 l 1
 656 1129 l 1
 414 887 l 1
 414 872 l 1
414 902 m 1
 656 1144 l 1
 656 1159 l 1
 414 917 l 1
 414 902 l 1
898 1386 m 1
 900 1388 l 1
 900 1390 l 1
 887 1390 l 1
 876 1379 l 2
 873 1378 870 1377 868 1376 c 1
 877 1379 887 1382 898 1386 c 1
899 1387 m 1
 900 1387 l 1
 899 1387 l 1
414 932 m 1
 656 1174 l 1
 656 1189 l 1
 414 947 l 1
 414 932 l 1
857 1372 m 1
 856 1372 854 1371 853 1371 c 2
 872 1390 l 1
 857 1390 l 1
 830 1363 l 2
 838 1366 848 1369 857 1372 c 1
414 962 m 1
 656 1204 l 1
 656 1219 l 1
 414 977 l 1
 414 962 l 1
807 1355 m 1
 842 1390 l 1
 827 1390 l 1
 783 1346 l 2
 781 1345 780 1345 778 1344 c 1
 788 1348 797 1352 807 1355 c 1
812 1357 m 1
 813 1357 814 1358 815 1358 c 1
 814 1358 813 1357 812 1357 c 1
414 992 m 1
 656 1234 l 2
 656 1232 656 1230 656 1228 c 1
 656 1237 657 1245 659 1252 c 2
 414 1007 l 1
 414 992 l 1
759 1336 m 1
 758 1336 l 2
 812 1390 l 1
 797 1390 l 1
 730 1323 l 2
 739 1327 749 1332 759 1336 c 1
769 1341 m 1
 772 1342 775 1343 778 1344 c 1
 775 1343 772 1342 769 1341 c 1
675 1283 m 2
 679 1288 684 1293 690 1298 c 0
 721 1329 751 1359 782 1390 c 1
 767 1390 l 1
 414 1037 l 1
 414 1022 l 1
 675 1283 l 2
661 1257 m 1
 664 1266 668 1275 674 1282 c 1
 668 1275 664 1266 661 1257 c 1
690 1298 m 2
 691 1299 l 1
 690 1298 l 2
 690 1298 l 2
414 1052 m 1
 752 1390 l 1
 737 1390 l 1
 414 1067 l 1
 414 1052 l 1
414 1082 m 1
 722 1390 l 1
 707 1390 l 1
 414 1097 l 1
 414 1082 l 1
414 1112 m 1
 692 1390 l 1
 677 1390 l 1
 414 1127 l 1
 414 1112 l 1
414 1142 m 1
 662 1390 l 1
 647 1390 l 1
 414 1157 l 1
 414 1142 l 1
414 1172 m 1
 632 1390 l 1
 617 1390 l 1
 414 1187 l 1
 414 1172 l 1
414 1202 m 1
 602 1390 l 1
 587 1390 l 1
 414 1217 l 1
 414 1202 l 1
414 1228 m 1
 414 1229 414 1231 414 1232 c 2
 572 1390 l 1
 557 1390 l 1
 412 1245 l 1
 413 1239 414 1234 414 1228 c 1
412 1248 m 1
 411 1251 411 1255 410 1258 c 2
 542 1390 l 1
 527 1390 l 1
 405 1268 l 2
 403 1271 401 1274 399 1277 c 2
 512 1390 l 1
 497 1390 l 1
 393 1286 l 1
 403 1276 409 1263 412 1248 c 1
390 1288 m 1
 388 1290 387 1291 385 1293 c 1
 387 1291 388 1290 390 1288 c 1
385 1293 m 2
 482 1390 l 1
 467 1390 l 1
 376 1299 l 2
 379 1297 382 1295 385 1293 c 2
367 1305 m 1
 452 1390 l 1
 437 1390 l 1
 357 1310 l 2
 355 1311 353 1312 351 1313 c 1
 357 1310 362 1308 367 1305 c 1
350 1314 m 1
 349 1314 348 1315 347 1315 c 2
 422 1390 l 1
 407 1390 l 1
 337 1320 l 1
 342 1318 346 1316 350 1314 c 1
332 1322 m 1
 330 1323 328 1323 326 1324 c 2
 392 1390 l 1
 377 1390 l 1
 316 1329 l 1
 322 1327 327 1324 332 1322 c 1
312 1331 m 1
 310 1332 307 1332 305 1333 c 2
 362 1390 l 1
 347 1390 l 1
 295 1338 l 2
 292 1339 288 1341 284 1342 c 2
 332 1390 l 1
 317 1390 l 1
 273 1346 l 2
 270 1347 267 1348 264 1349 c 1
 270 1347 275 1345 281 1343 c 0
 292 1339 302 1335 312 1331 c 1
262 1350 m 2
 302 1390 l 1
 287 1390 l 1
 251 1354 l 2
 255 1353 258 1351 262 1350 c 2
247 1356 m 1
 245 1357 242 1357 240 1358 c 2
 272 1390 l 1
 257 1390 l 1
 229 1362 l 2
 225 1363 221 1364 217 1365 c 2
 242 1390 l 1
 227 1390 l 1
 205 1368 l 2
 204 1368 203 1369 202 1369 c 1
 217 1365 232 1361 247 1356 c 1
193 1371 m 1
 212 1390 l 1
 197 1390 l 1
 181 1374 l 2
 180 1374 178 1375 177 1375 c 1
 182 1374 188 1372 193 1371 c 1
169 1377 m 2
 182 1390 l 1
 167 1390 l 1
 156 1379 l 2
 160 1378 165 1378 169 1377 c 2
143 1381 m 1
 152 1390 l 1
 137 1390 l 1
 130 1383 l 2
 127 1383 125 1384 122 1384 c 1
 129 1383 136 1382 143 1381 c 1
117 1385 m 1
 122 1390 l 1
 107 1390 l 1
 104 1387 l 2
 103 1387 101 1387 100 1387 c 1
 106 1386 111 1386 117 1385 c 1
EndSplineSet
EndChar

StartChar: O
Encoding: 79 79 1
GlifName: O_
Width: 2320
Flags: HMW
AnchorPoint: "bottom" 1160 0 basechar 0
AnchorPoint: "top" 1160 1400 basechar 0
LayerCount: 2
Fore
SplineSet
1160 1395 m 0
 812 1395 630 1164 630 700 c 0
 630 236 792 5 1160 5 c 0
 1568 5 1690 236 1690 700 c 0
 1690 1164 1548 1395 1160 1395 c 0
1700 700 m 5
 2010 700 l 5
 2010 1074 1694 1331 1340 1384 c 5
 1638 1306 1700 1034 1700 700 c 5
1700 700 m 5
 1700 366 1643 82 1340 14 c 5
 1699 57 2010 326 2010 700 c 5
 1700 700 l 5
1160 -20 m 0
 646 -20 160 256 160 700 c 0
 160 1144 664 1420 1160 1420 c 0
 1656 1420 2160 1144 2160 700 c 0
 2160 256 1674 -20 1160 -20 c 0
480 700 m 4
 480 974 562 1214 810 1364 c 5
 496 1283 170 1054 170 700 c 4
 170 346 496 117 810 36 c 5
 562 186 480 426 480 700 c 4
EndSplineSet
EndChar

StartChar: I
Encoding: 73 73 2
GlifName: I_
Width: 1210
Flags: HMW
AnchorPoint: "cedilla" 606 0 basechar 0
AnchorPoint: "bottom" 606 0 basechar 0
AnchorPoint: "top" 602 1400 basechar 0
LayerCount: 2
Fore
SplineSet
80 1380 m 1
 80 1400 l 1
 1130 1400 l 1
 1130 1380 l 1
 1049 1371 999 1361 934 1335 c 0
 834 1296 806 1280 806 1225 c 2
 806 175 l 2
 806 120 834 104 934 65 c 0
 999 39 1049 29 1130 20 c 1
 1130 0 l 1
 80 0 l 1
 80 20 l 1
 161 29 211 39 276 65 c 0
 376 104 404 120 404 175 c 2
 404 1225 l 2
 404 1280 376 1296 276 1335 c 0
 211 1361 161 1371 80 1380 c 1
414 1390 m 1
 407 1390 l 1
 337 1320 l 2
 341 1318 344 1317 347 1315 c 2
 414 1382 l 1
 422 1390 l 1
 414 1390 l 1
414 10 m 1
 422 10 l 1
 656 244 l 1
 656 259 l 1
 414 17 l 1
 407 10 l 1
 414 10 l 1
656 1390 m 1
 647 1390 l 1
 414 1157 l 1
 414 1142 l 1
 656 1384 l 1
 662 1390 l 1
 656 1390 l 1
656 10 m 1
 662 10 l 1
 729 77 l 2
 726 79 722 80 719 82 c 2
 656 19 l 1
 647 10 l 1
 656 10 l 1
881 19 m 2
 877 20 874 22 870 23 c 2
 857 10 l 1
 872 10 l 1
 881 19 l 2
893 16 m 2
 887 10 l 1
 900 10 l 1
 900 13 l 2
 897 14 895 15 893 16 c 2
859 27 m 2
 855 28 852 30 848 31 c 2
 827 10 l 1
 842 10 l 1
 859 27 l 2
837 35 m 2
 833 36 829 37 825 38 c 2
 797 10 l 1
 812 10 l 1
 837 35 l 2
814 42 m 2
 810 43 807 45 803 46 c 2
 767 10 l 1
 782 10 l 1
 814 42 l 2
792 50 m 2
 788 51 786 54 782 55 c 2
 737 10 l 1
 752 10 l 1
 792 50 l 2
771 59 m 2
 767 60 763 62 760 63 c 2
 707 10 l 1
 722 10 l 1
 771 59 l 2
750 68 m 2
 746 70 742 70 739 72 c 2
 677 10 l 1
 692 10 l 1
 750 68 l 2
710 88 m 2
 707 90 704 92 701 94 c 2
 656 49 l 1
 617 10 l 1
 632 10 l 1
 656 34 l 1
 710 88 l 2
692 100 m 2
 689 102 687 105 684 107 c 2
 656 79 l 1
 587 10 l 1
 602 10 l 1
 656 64 l 1
 692 100 l 2
677 115 m 2
 675 118 672 120 670 123 c 2
 656 109 l 1
 557 10 l 1
 572 10 l 1
 656 94 l 1
 677 115 l 2
665 133 m 2
 663 136 662 140 661 144 c 2
 656 139 l 1
 527 10 l 1
 542 10 l 1
 656 124 l 1
 665 133 l 2
658 156 m 2
 657 160 656 164 656 169 c 2
 656 169 l 1
 497 10 l 1
 512 10 l 1
 656 154 l 1
 658 156 l 2
482 10 m 1
 656 184 l 1
 656 199 l 1
 467 10 l 1
 482 10 l 1
656 173 m 1
 656 174 656 174 656 175 c 1
 656 174 656 174 656 173 c 1
452 10 m 1
 656 214 l 1
 656 229 l 1
 437 10 l 1
 452 10 l 1
414 32 m 1
 656 274 l 1
 656 289 l 1
 414 47 l 1
 377 10 l 1
 392 10 l 1
 414 32 l 1
414 62 m 1
 656 304 l 1
 656 319 l 1
 414 77 l 1
 347 10 l 1
 362 10 l 1
 414 62 l 1
414 92 m 1
 656 334 l 1
 656 349 l 1
 414 107 l 1
 317 10 l 1
 332 10 l 1
 414 92 l 1
414 122 m 1
 656 364 l 1
 656 379 l 1
 414 137 l 1
 399 122 l 2
 405 130 410 140 412 150 c 1
 414 152 l 1
 656 394 l 1
 656 409 l 1
 414 167 l 1
 414 167 l 2
 414 168 414 170 414 171 c 1
 413 142 404 122 383 106 c 2
 287 10 l 1
 302 10 l 1
 414 122 l 1
272 10 m 1
 347 85 l 2
 339 81 329 76 319 72 c 1
 257 10 l 1
 272 10 l 1
242 10 m 1
 294 62 l 2
 290 60 285 59 281 57 c 0
 277 55 273 53 269 52 c 2
 227 10 l 1
 242 10 l 1
414 182 m 1
 656 424 l 1
 656 439 l 1
 414 197 l 1
 414 182 l 1
212 10 m 1
 246 44 l 2
 239 42 231 39 224 37 c 2
 197 10 l 1
 212 10 l 1
414 212 m 1
 656 454 l 1
 656 469 l 1
 414 227 l 1
 414 212 l 1
182 10 m 1
 203 31 l 2
 197 29 190 27 183 26 c 2
 167 10 l 1
 182 10 l 1
414 242 m 1
 656 484 l 1
 656 499 l 1
 414 257 l 1
 414 242 l 1
152 10 m 1
 165 23 l 2
 159 22 152 20 146 19 c 2
 137 10 l 1
 152 10 l 1
414 272 m 1
 656 514 l 1
 656 529 l 1
 414 287 l 1
 414 272 l 1
122 10 m 1
 129 17 l 2
 123 16 117 15 111 14 c 2
 107 10 l 1
 122 10 l 1
414 302 m 1
 656 544 l 1
 656 559 l 1
 414 317 l 1
 414 302 l 1
414 332 m 1
 656 574 l 1
 656 589 l 1
 414 347 l 1
 414 332 l 1
414 362 m 1
 656 604 l 1
 656 619 l 1
 414 377 l 1
 414 362 l 1
414 392 m 1
 656 634 l 1
 656 649 l 1
 414 407 l 1
 414 392 l 1
414 422 m 1
 656 664 l 1
 656 679 l 1
 414 437 l 1
 414 422 l 1
414 452 m 1
 656 694 l 1
 656 709 l 1
 414 467 l 1
 414 452 l 1
414 482 m 1
 656 724 l 1
 656 739 l 1
 414 497 l 1
 414 482 l 1
414 512 m 1
 656 754 l 1
 656 769 l 1
 414 527 l 1
 414 512 l 1
414 542 m 1
 656 784 l 1
 656 799 l 1
 414 557 l 1
 414 542 l 1
414 572 m 1
 656 814 l 1
 656 829 l 1
 414 587 l 1
 414 572 l 1
414 602 m 1
 656 844 l 1
 656 859 l 1
 414 617 l 1
 414 602 l 1
414 632 m 1
 656 874 l 1
 656 889 l 1
 414 647 l 1
 414 632 l 1
414 662 m 1
 656 904 l 1
 656 919 l 1
 414 677 l 1
 414 662 l 1
414 692 m 1
 656 934 l 1
 656 949 l 1
 414 707 l 1
 414 692 l 1
414 722 m 1
 656 964 l 1
 656 979 l 1
 414 737 l 1
 414 722 l 1
414 752 m 1
 656 994 l 1
 656 1009 l 1
 414 767 l 1
 414 752 l 1
414 782 m 1
 656 1024 l 1
 656 1039 l 1
 414 797 l 1
 414 782 l 1
414 812 m 1
 656 1054 l 1
 656 1069 l 1
 414 827 l 1
 414 812 l 1
414 842 m 1
 656 1084 l 1
 656 1099 l 1
 414 857 l 1
 414 842 l 1
414 872 m 1
 656 1114 l 1
 656 1129 l 1
 414 887 l 1
 414 872 l 1
414 902 m 1
 656 1144 l 1
 656 1159 l 1
 414 917 l 1
 414 902 l 1
898 1386 m 2
 900 1388 l 1
 900 1390 l 1
 887 1390 l 1
 876 1379 l 2
 883 1381 890 1383 898 1386 c 2
899 1387 m 1
 900 1387 l 1
 899 1387 l 1
414 932 m 1
 656 1174 l 1
 656 1189 l 1
 414 947 l 1
 414 932 l 1
853 1371 m 2
 872 1390 l 1
 857 1390 l 1
 830 1363 l 2
 837 1366 845 1368 853 1371 c 2
414 962 m 1
 656 1204 l 1
 656 1219 l 1
 414 977 l 1
 414 962 l 1
807 1355 m 2
 842 1390 l 1
 827 1390 l 1
 783 1346 l 2
 791 1349 799 1352 807 1355 c 2
656 1234 m 1
 656 1240 657 1246 659 1252 c 2
 656 1249 l 1
 414 1007 l 1
 414 992 l 1
 656 1234 l 1
 656 1234 l 1
758 1336 m 1
 812 1390 l 1
 797 1390 l 1
 731 1324 l 2
 739 1328 748 1332 758 1336 c 1
674 1282 m 2
 679 1288 685 1295 692 1300 c 2
 782 1390 l 1
 767 1390 l 1
 656 1279 l 1
 414 1037 l 1
 414 1022 l 1
 656 1264 l 1
 674 1282 l 2
656 1294 m 1
 752 1390 l 1
 737 1390 l 1
 656 1309 l 1
 414 1067 l 1
 414 1052 l 1
 656 1294 l 1
656 1324 m 1
 722 1390 l 1
 707 1390 l 1
 656 1339 l 1
 414 1097 l 1
 414 1082 l 1
 656 1324 l 1
656 1354 m 1
 692 1390 l 1
 677 1390 l 1
 656 1369 l 1
 414 1127 l 1
 414 1112 l 1
 656 1354 l 1
414 1172 m 1
 632 1390 l 1
 617 1390 l 1
 414 1187 l 1
 414 1172 l 1
414 1202 m 1
 602 1390 l 1
 587 1390 l 1
 414 1217 l 1
 414 1202 l 1
414 1232 m 1
 572 1390 l 1
 557 1390 l 1
 414 1247 l 1
 412 1245 l 2
 411 1249 411 1254 410 1258 c 2
 414 1262 l 1
 542 1390 l 1
 527 1390 l 1
 414 1277 l 1
 405 1268 l 2
 403 1271 401 1274 399 1277 c 2
 414 1292 l 1
 512 1390 l 1
 497 1390 l 1
 414 1307 l 1
 393 1286 l 2
 391 1288 388 1291 385 1293 c 2
 414 1322 l 1
 482 1390 l 1
 467 1390 l 1
 414 1337 l 1
 376 1299 l 1
 403 1281 414 1260 414 1225 c 1
 414 1227 414 1230 414 1232 c 2
 414 1232 l 1
367 1305 m 2
 414 1352 l 1
 452 1390 l 1
 437 1390 l 1
 414 1367 l 1
 357 1310 l 2
 360 1308 364 1307 367 1305 c 2
327 1325 m 2
 392 1390 l 1
 377 1390 l 1
 316 1329 l 2
 320 1327 324 1326 327 1325 c 2
305 1333 m 2
 362 1390 l 1
 347 1390 l 1
 295 1338 l 2
 299 1337 302 1334 305 1333 c 2
284 1342 m 2
 332 1390 l 1
 317 1390 l 1
 273 1346 l 2
 276 1345 278 1344 281 1343 c 0
 282 1343 283 1342 284 1342 c 2
262 1350 m 2
 302 1390 l 1
 287 1390 l 1
 251 1354 l 2
 255 1353 258 1351 262 1350 c 2
240 1358 m 2
 272 1390 l 1
 257 1390 l 1
 229 1362 l 2
 233 1361 236 1359 240 1358 c 2
217 1365 m 2
 242 1390 l 1
 227 1390 l 1
 205 1368 l 2
 209 1367 213 1366 217 1365 c 2
193 1371 m 2
 212 1390 l 1
 197 1390 l 1
 181 1374 l 2
 185 1373 189 1372 193 1371 c 2
169 1377 m 2
 182 1390 l 1
 167 1390 l 1
 156 1379 l 2
 160 1378 165 1378 169 1377 c 2
143 1381 m 2
 152 1390 l 1
 137 1390 l 1
 130 1383 l 2
 134 1382 139 1382 143 1381 c 2
117 1385 m 1
 122 1390 l 1
 107 1390 l 1
 104 1387 l 2
 103 1387 101 1387 100 1387 c 1
 106 1386 112 1386 117 1385 c 1
EndSplineSet
EndChar

StartChar: C
Encoding: 67 67 3
GlifName: C_
Width: 2212
Flags: HMW
AnchorPoint: "cedilla" 1140 0 basechar 0
AnchorPoint: "bottom" 1140 0 basechar 0
AnchorPoint: "top" 1141 1400 basechar 0
LayerCount: 2
Fore
SplineSet
1990 1414 m 1
 2010 1414 l 1
 2010 903 l 1
 1990 903 l 1
 1804 1151 1523 1395 1151 1395 c 0
 883 1395 630 1134 630 700 c 0
 630 266 903 15 1240 15 c 0
 1544 15 1896 109 2022 472 c 1
 2052 472 l 1
 1922 86 1556 -20 1170 -20 c 0
 634 -20 160 256 160 700 c 0
 160 1144 624 1425 1140 1425 c 0
 1352 1425 1508 1357 1667 1267 c 0
 1691 1253 1747 1250 1817 1297 c 2
 1990 1414 l 1
1854 1077 m 2
 1860 1083 l 1
 1860 1098 l 1
 1847 1085 l 2
 1850 1082 1852 1079 1854 1077 c 2
789 42 m 2
 793 46 l 2
 790 48 787 50 784 52 c 2
 777 45 l 2
 781 44 785 43 789 42 c 2
800 38 m 2
 803 37 807 37 810 36 c 1
 808 38 805 39 803 41 c 2
 800 38 l 2
1839 1092 m 2
 1860 1113 l 1
 1860 1128 l 1
 1832 1100 l 2
 1835 1097 1837 1094 1839 1092 c 2
777 45 m 1
 773 46 769 47 765 48 c 1
 769 47 773 46 777 45 c 1
765 48 m 2
 775 58 l 2
 772 60 769 62 766 64 c 2
 754 52 l 2
 758 51 761 49 765 48 c 2
1824 1107 m 2
 1860 1143 l 1
 1860 1158 l 1
 1816 1114 l 2
 1819 1112 1821 1109 1824 1107 c 2
742 55 m 2
 758 71 l 2
 755 73 752 75 749 77 c 2
 731 59 l 2
 735 58 738 56 742 55 c 2
1808 1121 m 2
 1860 1173 l 1
 1860 1188 l 1
 1801 1129 l 2
 1804 1127 1805 1123 1808 1121 c 2
719 62 m 2
 741 84 l 2
 738 86 735 88 732 90 c 2
 708 66 l 2
 712 65 715 63 719 62 c 2
1793 1136 m 2
 1860 1203 l 1
 1860 1218 l 1
 1785 1143 l 2
 1788 1141 1790 1138 1793 1136 c 2
697 70 m 1
 701 69 704 67 708 66 c 1
 704 67 701 69 697 70 c 1
697 70 m 2
 724 97 l 2
 721 99 719 102 716 104 c 2
 686 74 l 2
 690 73 693 71 697 70 c 2
724 97 m 1
 727 95 729 92 732 90 c 1
 729 92 727 95 724 97 c 1
1777 1150 m 2
 1860 1233 l 1
 1860 1248 l 1
 1769 1157 l 2
 1772 1155 1774 1152 1777 1150 c 2
675 78 m 2
 708 111 l 2
 705 113 703 116 700 118 c 2
 665 83 l 2
 669 82 671 79 675 78 c 2
1761 1164 m 2
 1860 1263 l 1
 1860 1278 l 1
 1753 1171 l 2
 1756 1169 1758 1166 1761 1164 c 2
654 87 m 2
 692 125 l 2
 689 127 687 130 684 132 c 2
 643 91 l 2
 647 90 650 88 654 87 c 2
1745 1178 m 2
 1860 1293 l 1
 1860 1308 l 1
 1737 1185 l 2
 1740 1183 1742 1180 1745 1178 c 2
633 96 m 2
 677 140 l 2
 675 143 672 145 670 148 c 2
 622 100 l 2
 625 98 630 98 633 96 c 2
1728 1191 m 2
 1826 1289 l 2
 1814 1281 1802 1275 1791 1269 c 1
 1720 1198 l 2
 1723 1196 1725 1193 1728 1191 c 2
612 105 m 2
 662 155 l 2
 660 158 657 160 655 163 c 2
 602 110 l 2
 605 108 609 107 612 105 c 2
1712 1205 m 2
 1764 1257 l 2
 1757 1254 1750 1253 1743 1251 c 2
 1703 1211 l 2
 1706 1209 1709 1207 1712 1205 c 2
592 115 m 2
 648 171 l 2
 646 174 643 176 641 179 c 2
 582 120 l 2
 585 118 589 117 592 115 c 2
1695 1218 m 2
 1725 1248 l 2
 1719 1247 1713 1246 1708 1246 c 2
 1687 1225 l 2
 1690 1223 1692 1220 1695 1218 c 2
572 125 m 2
 634 187 l 2
 632 190 630 193 628 196 c 2
 562 130 l 2
 565 128 569 127 572 125 c 2
1678 1231 m 2
 1694 1247 l 2
 1689 1247 1685 1247 1680 1248 c 2
 1669 1237 l 2
 1672 1235 1675 1233 1678 1231 c 2
552 135 m 2
 621 204 l 2
 619 207 617 210 615 213 c 2
 542 140 l 2
 545 138 549 137 552 135 c 2
1661 1244 m 2
 1667 1250 l 2
 1663 1251 1659 1252 1655 1253 c 2
 1652 1250 l 2
 1655 1248 1658 1246 1661 1244 c 2
533 146 m 2
 609 222 l 2
 607 225 605 228 603 231 c 2
 523 151 l 2
 526 149 530 148 533 146 c 2
514 157 m 2
 597 240 l 2
 595 243 593 246 591 249 c 2
 504 162 l 2
 507 160 511 159 514 157 c 2
495 168 m 2
 585 258 l 2
 583 261 582 265 580 268 c 2
 486 174 l 2
 489 172 492 170 495 168 c 2
477 180 m 2
 574 277 l 2
 572 280 571 284 569 287 c 2
 468 186 l 2
 471 184 474 182 477 180 c 2
459 192 m 2
 564 297 l 2
 562 300 561 304 559 307 c 2
 450 198 l 2
 453 196 456 194 459 192 c 2
442 205 m 2
 554 317 l 2
 552 320 551 324 549 327 c 2
 433 211 l 2
 436 209 439 207 442 205 c 2
424 217 m 2
 545 338 l 2
 544 342 541 344 540 348 c 2
 416 224 l 2
 419 222 421 219 424 217 c 2
408 231 m 2
 536 359 l 2
 535 363 533 366 532 370 c 2
 399 237 l 2
 402 235 405 233 408 231 c 2
391 244 m 2
 528 381 l 2
 527 385 525 388 524 392 c 2
 383 251 l 2
 386 249 388 246 391 244 c 2
375 258 m 2
 521 404 l 2
 520 408 518 411 517 415 c 2
 368 266 l 2
 371 264 372 260 375 258 c 2
360 273 m 2
 514 427 l 2
 513 431 512 435 511 439 c 2
 352 280 l 2
 355 278 357 275 360 273 c 2
345 288 m 2
 508 451 l 2
 507 455 506 459 505 463 c 2
 338 296 l 2
 340 293 343 291 345 288 c 2
330 303 m 2
 502 475 l 2
 501 479 500 483 499 487 c 2
 323 311 l 2
 325 308 328 306 330 303 c 2
316 319 m 2
 497 500 l 2
 496 504 496 509 495 513 c 2
 309 327 l 2
 311 324 314 322 316 319 c 2
302 335 m 2
 493 526 l 2
 492 530 492 535 491 539 c 2
 296 344 l 2
 298 341 300 338 302 335 c 2
289 352 m 2
 489 552 l 2
 488 556 488 561 487 565 c 2
 283 361 l 2
 285 358 287 355 289 352 c 2
276 369 m 2
 486 579 l 2
 486 584 485 588 485 593 c 2
 270 378 l 2
 272 375 274 372 276 369 c 2
264 387 m 2
 483 606 l 2
 483 611 482 615 482 620 c 2
 258 396 l 2
 260 393 262 390 264 387 c 2
253 406 m 2
 482 635 l 2
 482 640 481 644 481 649 c 2
 247 415 l 2
 249 412 251 409 253 406 c 2
242 425 m 2
 480 663 l 2
 480 668 480 673 480 678 c 2
 236 434 l 2
 238 431 240 428 242 425 c 2
231 444 m 2
 480 693 l 2
 480 688 480 683 480 678 c 1
 480 683 480 688 480 693 c 0
 480 695 480 698 480 700 c 0
 480 703 480 705 480 708 c 2
 226 454 l 2
 228 451 229 447 231 444 c 2
480 723 m 2
 480 728 481 734 481 739 c 2
 217 475 l 2
 219 472 219 467 221 464 c 2
 480 723 l 2
481 754 m 2
 481 759 482 765 482 770 c 2
 208 496 l 2
 209 492 211 489 212 485 c 2
 481 754 l 2
483 786 m 2
 483 791 484 797 484 802 c 2
 200 518 l 2
 201 514 203 511 204 507 c 2
 483 786 l 2
486 819 m 2
 487 825 486 829 487 835 c 2
 193 541 l 2
 194 537 195 533 196 529 c 2
 486 819 l 2
489 852 m 2
 490 858 491 864 492 870 c 2
 186 564 l 2
 187 560 188 556 189 552 c 2
 489 852 l 2
495 888 m 2
 496 894 497 900 498 906 c 2
 181 589 l 2
 182 585 182 580 183 576 c 2
 495 888 l 2
502 925 m 2
 503 931 505 938 506 944 c 2
 176 614 l 2
 177 610 177 605 178 601 c 2
 502 925 l 2
511 964 m 2
 513 971 514 977 516 984 c 2
 173 641 l 2
 173 636 174 632 175 628 c 2
 511 964 l 2
523 1006 m 2
 525 1014 527 1021 530 1028 c 2
 171 669 l 2
 171 664 172 660 172 655 c 2
 523 1006 l 2
539 1052 m 2
 542 1061 546 1070 550 1078 c 2
 170 698 l 2
 170 699 170 699 170 700 c 1
 170 699 170 699 170 698 c 0
 170 693 170 688 170 683 c 2
 539 1052 l 2
563 1106 m 2
 568 1117 574 1128 580 1138 c 2
 171 729 l 2
 171 724 170 718 170 713 c 2
 563 1106 l 2
780 1353 m 1
 796 1369 l 2
 789 1367 783 1366 776 1364 c 2
 716 1304 l 2
 736 1321 757 1338 780 1353 c 1
604 1177 m 1
 618 1198 634 1219 651 1239 c 2
 173 761 l 2
 172 756 172 751 172 745 c 2
 604 1177 l 1
755 1358 m 2
 748 1356 741 1354 734 1352 c 2
 178 796 l 2
 177 790 176 784 175 778 c 2
 755 1358 l 2
712 1345 m 2
 704 1342 697 1340 689 1337 c 2
 186 834 l 2
 184 828 182 820 181 814 c 2
 712 1345 l 2
665 1328 m 2
 657 1325 647 1321 639 1317 c 2
 197 875 l 2
 195 868 193 861 191 854 c 2
 665 1328 l 2
612 1305 m 2
 602 1301 594 1297 584 1292 c 2
 215 923 l 2
 212 915 208 906 205 898 c 2
 612 1305 l 2
552 1275 m 2
 540 1268 529 1262 517 1255 c 2
 244 982 l 2
 238 972 232 961 227 950 c 2
 552 1275 l 2
475 1228 m 1
 454 1214 434 1199 415 1183 c 2
 307 1075 l 2
 293 1057 278 1038 266 1019 c 1
 475 1228 l 1
EndSplineSet
EndChar

StartChar: E
Encoding: 69 69 4
GlifName: E_
Width: 2104
Flags: HMW
AnchorPoint: "cedilla" 1626 0 basechar 0
AnchorPoint: "bottom" 1066 0 basechar 0
AnchorPoint: "top" 1084 1400 basechar 0
LayerCount: 2
Fore
SplineSet
125.253327628 1383.86989164 m 1
 123.973105309 1384.04643549 122.686577977 1384.22098205 121.393554688 1384.39355469 c 2
 127 1390 l 1
 112 1390 l 1
 108.072265625 1386.07226562 l 2
 105.41015625 1386.38867188 102.719726562 1386.69824219 100 1387 c 1
 108.706306795 1386.03296049 117.107703087 1384.99249017 125.253327628 1383.86989164 c 1
157.383476339 1378.77746497 m 1
 155.311242334 1379.15253556 153.224679866 1379.52035635 151.12286308 1379.88104234 c 1
 153.224664525 1379.52017007 155.311195287 1379.15237142 157.383476339 1378.77746497 c 1
147.494599141 1380.49459914 m 2
 157 1390 l 1
 142 1390 l 1
 134.538133881 1382.53813388 l 2
 138.926264025 1381.88344166 143.242337738 1381.20274978 147.494599141 1380.49459914 c 2
172.803168329 1375.80316833 m 2
 187 1390 l 1
 172 1390 l 1
 160.252239347 1378.25223935 l 2
 164.491291141 1377.46687759 168.671965271 1376.65104603 172.803168329 1375.80316833 c 2
207.207593866 1367.71463018 m 1
 205.709334439 1368.11354526 204.207616195 1368.50703882 202.701907952 1368.89521753 c 1
 204.207641744 1368.50696537 205.709371416 1368.11346542 207.207593866 1367.71463018 c 1
197.268957682 1370.26895768 m 2
 217 1390 l 1
 202 1390 l 1
 185.142578125 1373.14257812 l 2
 185.027544409 1373.16858287 184.912478697 1373.19456108 184.797380668 1373.2205125 c 1
 188.995187812 1372.27346096 193.149056825 1371.29019763 197.268957682 1370.26895768 c 2
229.630063994 1361.27468596 m 1
 226.739343551 1362.16597703 223.84435084 1363.03476754 220.942153917 1363.88189368 c 1
 223.844478608 1363.03456489 226.739203348 1362.16571653 229.630063994 1361.27468596 c 1
220.89550898 1363.89550898 m 2
 247 1390 l 1
 232 1390 l 1
 209.184676327 1367.18467633 l 2
 213.107936393 1366.12581741 217.008555904 1365.02995773 220.89550898 1363.89550898 c 2
243.74136623 1356.74136623 m 2
 277 1390 l 1
 262 1390 l 1
 232.410497774 1360.41049777 l 2
 236.189227031 1359.22626303 239.96339567 1358.00371254 243.74136623 1356.74136623 c 2
287.528806728 1340.52880673 m 2
 337 1390 l 1
 322 1390 l 1
 276.772460938 1344.77246094 l 2
 273.127929688 1346.18945312 269.508789062 1347.56738281 265.907226562 1348.90722656 c 2
 307 1390 l 1
 292 1390 l 1
 254.901841035 1352.90184103 l 1
 263.601704471 1349.82413343 272.364799411 1346.52947042 281.291992188 1343 c 0
 283.400308367 1342.16644905 285.47914774 1341.34293621 287.528806728 1340.52880673 c 2
318.453267108 1327.96273888 m 1
 315.36235067 1329.26150068 312.184152633 1330.57873602 308.91796875 1331.91796875 c 2
 367 1390 l 1
 352 1390 l 1
 298.24719001 1336.24719001 l 1
 305.360438304 1333.38665984 312.090973237 1330.63583156 318.453267108 1327.96273888 c 1
334.766959301 1320.90211441 m 1
 333.689843658 1321.38481449 332.600043906 1321.86925346 331.497442444 1322.35566661 c 1
 332.599985137 1321.86926518 333.689791704 1321.38481928 334.766959301 1320.90211441 c 1
330.009783131 1323.00978313 m 2
 397 1390 l 1
 382 1390 l 1
 319.515655004 1327.515655 l 2
 323.133127558 1325.99082137 326.630266159 1324.49086117 330.009783131 1323.00978313 c 2
350.50823116 1313.50823116 m 2
 427 1390 l 1
 412 1390 l 1
 340.358657816 1318.35865782 l 2
 343.885979296 1316.72881317 347.267880559 1315.11485344 350.50823116 1313.50823116 c 2
374.842692649 1299.75975137 m 1
 373.251540726 1300.81466291 371.60602567 1301.86244101 369.905273438 1302.90527344 c 2
 457 1390 l 1
 442 1390 l 1
 360.387763268 1308.38776327 l 1
 365.635716031 1305.53353713 370.446712804 1302.67368611 374.842692649 1299.75975137 c 1
401.49432383 1274.49432383 m 1
 517 1390 l 1
 502 1390 l 1
 394.932617188 1282.93261719 l 2
 392.633789062 1285.48144531 390.108398438 1287.9453125 387.344726562 1290.34472656 c 2
 487 1390 l 1
 472 1390 l 1
 378.940788181 1296.94078818 l 1
 388.590184604 1290.04387797 396.0149174 1282.76739961 401.49432383 1274.49432383 c 1
410.717087286 1253.71708729 m 1
 547 1390 l 1
 532 1390 l 1
 406.81640625 1264.81640625 l 2
 406.267921939 1266.04209717 405.68601464 1267.24563416 405.070036491 1268.42845545 c 1
 407.447349379 1263.8626283 409.316608365 1258.98775506 410.717087286 1253.71708729 c 1
414 1225 m 1
 414 1225.66796875 413.99609375 1226.33007812 413.98828125 1226.98828125 c 2
 577 1390 l 1
 562 1390 l 1
 413.100585938 1241.10058594 l 2
 412.848238988 1243.18187786 412.541518702 1245.2062377 412.178730634 1247.1773519 c 1
 413.415530005 1240.45489347 414 1233.11240691 414 1225 c 1
414 1197 m 1
 607 1390 l 1
 592 1390 l 1
 414 1212 l 1
 414 1197 l 1
414 1167 m 1
 637 1390 l 1
 622 1390 l 1
 414 1182 l 1
 414 1167 l 1
414 1137 m 1
 656 1379 l 1
 656 1390 l 1
 652 1390 l 1
 414 1152 l 1
 414 1137 l 1
414 1107 m 1
 656 1349 l 1
 656 1364 l 1
 414 1122 l 1
 414 1107 l 1
414 1077 m 1
 656 1319 l 1
 656 1334 l 1
 414 1092 l 1
 414 1077 l 1
414 1047 m 1
 656 1289 l 1
 656 1304 l 1
 414 1062 l 1
 414 1047 l 1
414 1017 m 1
 656 1259 l 1
 656 1274 l 1
 414 1032 l 1
 414 1017 l 1
414 987 m 1
 656 1229 l 1
 656 1244 l 1
 414 1002 l 1
 414 987 l 1
414 957 m 1
 656 1199 l 1
 656 1214 l 1
 414 972 l 1
 414 957 l 1
414 927 m 1
 656 1169 l 1
 656 1184 l 1
 414 942 l 1
 414 927 l 1
414 897 m 1
 656 1139 l 1
 656 1154 l 1
 414 912 l 1
 414 897 l 1
414 867 m 1
 656 1109 l 1
 656 1124 l 1
 414 882 l 1
 414 867 l 1
414 837 m 1
 656 1079 l 1
 656 1094 l 1
 414 852 l 1
 414 837 l 1
414 807 m 1
 656 1049 l 1
 656 1064 l 1
 414 822 l 1
 414 807 l 1
414 777 m 1
 656 1019 l 1
 656 1034 l 1
 414 792 l 1
 414 777 l 1
414 747 m 1
 656 989 l 1
 656 1004 l 1
 414 762 l 1
 414 747 l 1
414 717 m 1
 656 959 l 1
 656 974 l 1
 414 732 l 1
 414 717 l 1
414 687 m 1
 656 929 l 1
 656 944 l 1
 414 702 l 1
 414 687 l 1
414 657 m 1
 656 899 l 1
 656 914 l 1
 414 672 l 1
 414 657 l 1
414 627 m 1
 656 869 l 1
 656 884 l 1
 414 642 l 1
 414 627 l 1
414 597 m 1
 656 839 l 1
 656 854 l 1
 414 612 l 1
 414 597 l 1
414 567 m 1
 656 809 l 1
 656 824 l 1
 414 582 l 1
 414 567 l 1
414 537 m 1
 656 779 l 1
 656 794 l 1
 414 552 l 1
 414 537 l 1
414 507 m 1
 656 749 l 1
 656 764 l 1
 414 522 l 1
 414 507 l 1
414 477 m 1
 656 719 l 1
 656 734 l 1
 414 492 l 1
 414 477 l 1
414 447 m 1
 656 689 l 1
 656 704 l 1
 414 462 l 1
 414 447 l 1
414 417 m 1
 656 659 l 1
 656 674 l 1
 414 432 l 1
 414 417 l 1
414 387 m 1
 656 629 l 1
 656 644 l 1
 414 402 l 1
 414 387 l 1
414 357 m 1
 656 599 l 1
 656 614 l 1
 414 372 l 1
 414 357 l 1
414 327 m 1
 656 569 l 1
 656 584 l 1
 414 342 l 1
 414 327 l 1
414 297 m 1
 656 539 l 1
 656 554 l 1
 414 312 l 1
 414 297 l 1
145.593517591 19.19133004 m 1
 133.983781086 17.2886808027 121.893572441 15.5872816326 109.157354967 14.057834203 c 1
 111.811149437 14.3764309142 114.436907883 14.7024304276 117.036132812 15.0361328125 c 2
 112 10 l 1
 127 10 l 1
 134.448242188 17.4482421875 l 2
 138.214588296 18.0098426173 141.927909821 18.5904870878 145.593517591 19.19133004 c 1
414 267 m 1
 656 509 l 1
 656 524 l 1
 414 282 l 1
 414 267 l 1
174.767804632 24.603241805 m 1
 167.455768066 23.0787350667 159.992047832 21.6561676782 152.326699215 20.3266992151 c 1
 142 10 l 1
 157 10 l 1
 170.786132812 23.7861328125 l 2
 172.11853527 24.0552121385 173.445658623 24.3275653274 174.767804632 24.603241805 c 1
414 237 m 1
 656 479 l 1
 656 494 l 1
 414 252 l 1
 414 237 l 1
210.049406292 33.0494062925 m 1
 201.824791948 30.8163562764 193.503414526 28.7467025331 185.002387132 26.8257743962 c 1
 186.664829557 27.20139159 188.320398235 27.5826740496 189.969726562 27.9697265625 c 2
 172 10 l 1
 187 10 l 1
 210.049406292 33.0494062925 l 1
214.851293277 34.3747450518 m 1
 219.600671446 35.7067748384 224.323322819 37.0950690034 229.035166412 38.5422817526 c 1
 224.323537652 37.0952786406 219.600968959 35.7070531791 214.851293277 34.3747450518 c 1
414 207 m 1
 656 449 l 1
 656 464 l 1
 414 222 l 1
 414 207 l 1
274.484162525 54.3420479649 m 1
 259.835110706 48.6963902638 245.56510622 43.6815934572 231.216693161 39.2166931611 c 1
 202 10 l 1
 217 10 l 1
 253.66015625 46.66015625 l 2
 260.548186636 49.0819361737 267.472780433 51.6395230557 274.484162525 54.3420479649 c 1
414 177 m 1
 656 419 l 1
 656 434 l 1
 414 192 l 1
 414 177 l 1
356.583884572 89.5838845717 m 1
 337.319998925 79.5064973679 312.544539488 69.3561118794 281.291992188 57 c 0
 280.030893826 56.5014099646 278.773070161 56.0075056877 277.518236844 55.5182368436 c 2
 232 10 l 1
 247 10 l 1
 302.447265625 65.447265625 l 2
 311.689453125 69.1884765625 320.262695312 72.748046875 328.200195312 76.2001953125 c 2
 262 10 l 1
 277 10 l 1
 356.583884572 89.5838845717 l 1
382.574152322 105.755929187 m 1
 396.253156942 116.311114213 404.963814 127.909171039 409.661132812 142.661132812 c 1
 656 389 l 1
 656 404 l 1
 413.371485545 161.371485545 l 1
 410.972752958 137.062873579 401.558381094 120.405027791 382.574152322 105.755929187 c 1
307 10 m 1
 656 359 l 1
 656 374 l 1
 292 10 l 1
 307 10 l 1
337 10 m 1
 656 329 l 1
 656 344 l 1
 322 10 l 1
 337 10 l 1
367 10 m 1
 656 299 l 1
 656 314 l 1
 352 10 l 1
 367 10 l 1
397 10 m 1
 656 269 l 1
 656 284 l 1
 382 10 l 1
 397 10 l 1
427 10 m 1
 656 239 l 1
 656 254 l 1
 412 10 l 1
 427 10 l 1
457 10 m 1
 656 209 l 1
 656 224 l 1
 442 10 l 1
 457 10 l 1
487 10 m 1
 656 179 l 1
 656 194 l 1
 472 10 l 1
 487 10 l 1
517 10 m 1
 656 149 l 1
 656 164 l 1
 502 10 l 1
 517 10 l 1
547 10 m 1
 656 119 l 1
 656 134 l 1
 532 10 l 1
 547 10 l 1
577 10 m 1
 656 89 l 1
 656 104 l 1
 562 10 l 1
 577 10 l 1
607 10 m 1
 656 59 l 1
 656 74 l 1
 592 10 l 1
 607 10 l 1
652 10 m 1
 656 10 l 1
 656 14 l 1
 652 10 l 1
637 10 m 1
 656 29 l 1
 656 44 l 1
 622 10 l 1
 637 10 l 1
80 1380 m 1
 80 1400 l 1
 1904 1400 l 1
 1904 920 l 1
 1884 920 l 1
 1825 1015 1747 1097 1658 1189 c 0
 1567 1283 1496 1370 1352 1370 c 2
 806 1370 l 1
 806 741 l 1
 1112 741 l 2
 1185 741 1232 805 1278 863 c 0
 1314 910 1384 1007 1410 1066 c 1
 1430 1066 l 1
 1430 446 l 1
 1410 446 l 1
 1370 513 1315 562 1270 614 c 0
 1227 663 1188 711 1112 711 c 2
 806 711 l 1
 806 30 l 1
 1332 30 l 2
 1518 30 1599 145 1703 268 c 0
 1787 368 1855 459 1884 530 c 1
 1904 530 l 1
 1904 0 l 1
 80 0 l 1
 80 20 l 1
 161 29 211 39 276 65 c 0
 376 104 404 120 404 175 c 2
 404 1225 l 2
 404 1280 376 1296 276 1335 c 0
 211 1361 161 1371 80 1380 c 1
1747 10 m 1
 1754 17 l 1
 1754 32 l 1
 1732 10 l 1
 1747 10 l 1
1717 10 m 1
 1754 47 l 1
 1754 62 l 1
 1702 10 l 1
 1717 10 l 1
1687 10 m 1
 1754 77 l 1
 1754 92 l 1
 1672 10 l 1
 1687 10 l 1
1657 10 m 1
 1754 107 l 1
 1754 122 l 1
 1642 10 l 1
 1657 10 l 1
1627 10 m 1
 1754 137 l 1
 1754 152 l 1
 1612 10 l 1
 1627 10 l 1
1597 10 m 1
 1754 167 l 1
 1754 182 l 1
 1582 10 l 1
 1597 10 l 1
1567 10 m 1
 1754 197 l 1
 1754 212 l 1
 1552 10 l 1
 1567 10 l 1
1537 10 m 1
 1754 227 l 1
 1754 242 l 1
 1522 10 l 1
 1537 10 l 1
1507 10 m 1
 1754 257 l 1
 1754 272 l 1
 1492 10 l 1
 1507 10 l 1
1477 10 m 1
 1754 287 l 1
 1754 302 l 1
 1699.67111898 247.671118977 l 1
 1626.58661117 160.221382955 1575.72840898 108.242388121 1525.6613531 73.6613530975 c 1
 1462 10 l 1
 1477 10 l 1
1447 10 m 1
 1487.45953045 50.4595304456 l 2
 1478.12409162 45.5331858778 1468.63366343 41.0358993343 1458.85707988 36.8570798771 c 2
 1432 10 l 1
 1447 10 l 1
1417 10 m 1
 1434.15946055 27.1594605483 l 2
 1426.82774201 24.5124621721 1419.29785225 21.9801231811 1411.52294971 19.5229497129 c 2
 1402 10 l 1
 1417 10 l 1
1387 10 m 1
 1390.09883147 13.0988314743 l 2
 1386.45647703 12.0592350979 1382.75821057 11.027424472 1379 10 c 2
 1387 10 l 1
1743.8426408 1116.8426408 m 2
 1754 1127 l 1
 1754 1142 l 1
 1736.58779357 1124.58779357 l 2
 1738.9796369 1122.03435344 1741.39773278 1119.45276139 1743.8426408 1116.8426408 c 2
1751.09775231 1109.09775231 m 2
 1752.0610883 1108.06947327 1753.02849349 1107.03689637 1754 1106 c 2
 1754 1112 l 1
 1751.09775231 1109.09775231 l 2
1266.87339893 639.873398932 m 2
 1280 653 l 1
 1280 668 l 1
 1259.51020774 647.510207745 l 2
 1261.90753545 645.045202845 1264.36001113 642.500828335 1266.87339893 639.873398932 c 2
1274.18250483 632.182504832 m 2
 1276.08627088 630.167346641 1278.02471042 628.106975552 1280 626 c 2
 1280 638 l 1
 1274.18250483 632.182504832 l 2
1729.33256587 1132.33256587 m 2
 1754 1157 l 1
 1754 1172 l 1
 1722.07622206 1140.07622206 l 2
 1724.4673251 1137.5251047 1726.88589281 1134.9440297 1729.33256587 1132.33256587 c 2
1252.0757227 655.075722697 m 2
 1280 683 l 1
 1280 698 l 1
 1244.54796458 662.547964579 l 2
 1247.00080378 660.14891681 1249.50733517 657.659909374 1252.0757227 655.075722697 c 2
1714.81792211 1147.81792211 m 2
 1754 1187 l 1
 1754 1202 l 1
 1707.55670588 1155.55670588 l 2
 1709.94811166 1153.00925055 1712.36827065 1150.4298218 1714.81792211 1147.81792211 c 2
1236.89898026 669.898980261 m 2
 1280 713 l 1
 1280 728 l 1
 1229.0935744 677.0935744 l 2
 1231.64567107 674.798314013 1234.24353628 672.4026329 1236.89898026 669.898980261 c 2
1700.29147467 1163.29147467 m 2
 1754 1217 l 1
 1754 1232 l 1
 1693.02096958 1171.02096958 l 2
 1695.41407151 1168.47889551 1697.83728644 1165.9025902 1700.29147467 1163.29147467 c 2
1221.08827382 684.088273823 m 2
 1280 743 l 1
 1280 758 l 1
 1212.8311406 690.831140595 l 2
 1215.55247995 688.694236982 1218.29917628 686.4502471 1221.08827382 684.088273823 c 2
1685.74374612 1178.74374612 m 2
 1754 1247 l 1
 1754 1262 l 1
 1678.45814419 1186.45814419 l 2
 1680.85481061 1183.92367238 1683.28300773 1181.35243306 1685.74374612 1178.74374612 c 2
1204.26346998 697.26346998 m 2
 1280 773 l 1
 1280 788 l 1
 1195.32468219 703.324682193 l 2
 1198.31076748 701.411986635 1201.28260468 699.396543064 1204.26346998 697.26346998 c 2
1671.1622527 1194.1622527 m 2
 1754 1277 l 1
 1754 1292 l 1
 1663.85386771 1201.85386771 l 2
 1666.25661698 1199.32988757 1668.69234554 1196.76628494 1671.1622527 1194.1622527 c 2
1185.96122563 708.961225625 m 2
 1280 803 l 1
 1280 818 l 1
 1176.1383507 714.138350704 l 2
 1179.47420783 712.49887294 1182.73926872 710.779066208 1185.96122563 708.961225625 c 2
1656.53044276 1209.53044276 m 2
 1754 1307 l 1
 1754 1322 l 1
 1649.18903009 1217.18903009 l 2
 1651.60127889 1214.67932865 1654.04793669 1212.12678909 1656.53044276 1209.53044276 c 2
1165.85061224 718.850612235 m 2
 1280 833 l 1
 1280 844 l 1
 1238.09270075 791.254606114 1210.28111693 765.65651603 1179.21351497 747.213514971 c 1
 1155.12554978 723.125549778 l 2
 1158.815022 721.750396109 1162.38109643 720.331136749 1165.85061224 718.850612235 c 2
1641.82621079 1224.82621079 m 2
 1754 1337 l 1
 1754 1352 l 1
 1634.43801207 1232.43801207 l 2
 1636.86442993 1229.94759019 1639.32658009 1227.41071529 1641.82621079 1224.82621079 c 2
1144.01790549 727.017905488 m 2
 1148.2451981 731.245198096 l 2
 1145.87244575 730.161680514 1143.45920408 729.082049794 1141 728 c 1
 1142.01574234 727.674195854 1143.0215677 727.346922526 1144.01790549 727.017905488 c 2
1627.01980929 1240.01980929 m 2
 1754 1367 l 1
 1754 1382 l 1
 1619.56621044 1247.56621044 l 2
 1622.01322686 1245.10171719 1624.49704284 1242.58673267 1627.01980929 1240.01980929 c 2
1612.07092062 1255.07092062 m 2
 1747 1390 l 1
 1732 1390 l 1
 1604.52658449 1262.52658449 l 2
 1607.00310956 1260.09690486 1609.51699451 1257.61228509 1612.07092062 1255.07092062 c 2
1596.9246056 1269.9246056 m 2
 1717 1390 l 1
 1702 1390 l 1
 1589.25494349 1277.25494349 l 2
 1591.77336858 1274.87196404 1594.32879427 1272.42927747 1596.9246056 1269.9246056 c 2
1581.50589279 1284.50589279 m 2
 1687 1390 l 1
 1672 1390 l 1
 1573.66385513 1291.66385513 l 2
 1576.24136522 1289.3433792 1578.85393807 1286.9583607 1581.50589279 1284.50589279 c 2
1565.71312378 1298.71312378 m 2
 1657 1390 l 1
 1642 1390 l 1
 1557.63571584 1305.63571584 l 2
 1560.29578922 1303.39834288 1562.98641082 1301.09205574 1565.71312378 1298.71312378 c 2
1549.41130675 1312.41130675 m 2
 1627 1390 l 1
 1612 1390 l 1
 1541.01734623 1319.01734623 l 2
 1543.79087397 1316.88876679 1546.58649776 1314.688344 1549.41130675 1312.41130675 c 2
1532.4294598 1325.4294598 m 2
 1597 1390 l 1
 1582 1390 l 1
 1523.62225313 1331.62225313 l 2
 1526.54679033 1329.63179075 1529.47956169 1327.56952125 1532.4294598 1325.4294598 c 2
1514.57061964 1337.57061964 m 2
 1567 1390 l 1
 1552 1390 l 1
 1505.25157966 1343.25157966 l 2
 1508.36613554 1341.42732333 1511.46891859 1339.53606835 1514.57061964 1337.57061964 c 2
1495.64653587 1348.64653587 m 2
 1537 1390 l 1
 1522 1390 l 1
 1485.74363168 1353.74363168 l 2
 1489.07710231 1352.10359477 1492.37407409 1350.40725239 1495.64653587 1348.64653587 c 2
1475.5397202 1358.5397202 m 2
 1507 1390 l 1
 1492 1390 l 1
 1465.04140558 1363.04140558 l 2
 1468.59837269 1361.5842668 1472.09372003 1360.08645823 1475.5397202 1358.5397202 c 2
1454.26479267 1367.26479267 m 2
 1477 1390 l 1
 1462 1390 l 1
 1443.23394214 1371.23394214 l 2
 1446.98879864 1369.93671327 1450.66194491 1368.61622353 1454.26479267 1367.26479267 c 2
1431.97841127 1374.97841127 m 2
 1447 1390 l 1
 1432 1390 l 1
 1420.53047574 1378.53047574 l 2
 1424.43677228 1377.35628086 1428.24949021 1376.17445379 1431.97841127 1374.97841127 c 2
1408.92259668 1381.92259668 m 2
 1417 1390 l 1
 1402 1390 l 1
 1397.1854893 1385.1854893 l 2
 1401.19275302 1384.09539836 1405.10247799 1383.00954705 1408.92259668 1381.92259668 c 2
1385.34690253 1388.34690253 m 2
 1387 1390 l 1
 1379 1390 l 2
 1381.14228175 1389.44621288 1383.25759094 1388.89539911 1385.34690253 1388.34690253 c 2
EndSplineSet
EndChar

StartChar: F
Encoding: 70 70 6
GlifName: F_
Width: 1932
Flags: HMW
AnchorPoint: "bottom" 636 0 basechar 0
AnchorPoint: "top" 1084 1400 basechar 0
LayerCount: 2
Fore
SplineSet
1385 1388 m 2
 1387 1390 l 1
 1379 1390 l 2
 1381 1389 1383 1389 1385 1388 c 2
1409 1382 m 2
 1417 1390 l 1
 1402 1390 l 1
 1397 1385 l 2
 1401 1384 1405 1383 1409 1382 c 2
1432 1375 m 2
 1447 1390 l 1
 1432 1390 l 1
 1421 1379 l 2
 1425 1378 1428 1376 1432 1375 c 2
1454 1367 m 2
 1477 1390 l 1
 1462 1390 l 1
 1443 1371 l 2
 1447 1370 1450 1368 1454 1367 c 2
1476 1359 m 2
 1507 1390 l 1
 1492 1390 l 1
 1465 1363 l 2
 1469 1362 1473 1361 1476 1359 c 2
1496 1349 m 2
 1537 1390 l 1
 1522 1390 l 1
 1486 1354 l 2
 1489 1352 1493 1351 1496 1349 c 2
1515 1338 m 2
 1567 1390 l 1
 1552 1390 l 1
 1505 1343 l 2
 1508 1341 1512 1340 1515 1338 c 2
1532 1325 m 2
 1597 1390 l 1
 1582 1390 l 1
 1524 1332 l 2
 1527 1330 1529 1327 1532 1325 c 2
1549 1312 m 2
 1627 1390 l 1
 1612 1390 l 1
 1541 1319 l 2
 1544 1317 1546 1314 1549 1312 c 2
1566 1299 m 2
 1657 1390 l 1
 1642 1390 l 1
 1558 1306 l 2
 1561 1304 1563 1301 1566 1299 c 2
1582 1285 m 2
 1687 1390 l 1
 1672 1390 l 1
 1574 1292 l 2
 1577 1290 1579 1287 1582 1285 c 2
1597 1270 m 2
 1717 1390 l 1
 1702 1390 l 1
 1589 1277 l 2
 1592 1275 1594 1273 1597 1270 c 2
1612 1255 m 2
 1747 1390 l 1
 1732 1390 l 1
 1605 1263 l 2
 1607 1261 1609 1258 1612 1255 c 2
1627 1240 m 2
 1754 1367 l 1
 1754 1382 l 1
 1620 1248 l 2
 1622 1246 1624 1243 1627 1240 c 2
1144 727 m 2
 1148 731 l 2
 1146 730 1143 729 1141 728 c 1
 1142 728 1143 727 1144 727 c 2
1642 1225 m 2
 1754 1337 l 1
 1754 1352 l 1
 1634 1232 l 2
 1636 1230 1640 1228 1642 1225 c 2
1166 719 m 2
 1280 833 l 1
 1280 844 l 1
 1238 791 1210 765 1179 747 c 1
 1155 723 l 2
 1159 722 1163 720 1166 719 c 2
1657 1210 m 2
 1754 1307 l 1
 1754 1322 l 1
 1649 1217 l 2
 1651 1214 1655 1213 1657 1210 c 2
1186 709 m 2
 1280 803 l 1
 1280 818 l 1
 1176 714 l 2
 1179 712 1183 711 1186 709 c 2
1671 1194 m 2
 1754 1277 l 1
 1754 1292 l 1
 1664 1202 l 2
 1666 1199 1669 1197 1671 1194 c 2
1204 697 m 2
 1280 773 l 1
 1280 788 l 1
 1195 703 l 2
 1198 701 1201 699 1204 697 c 2
1686 1179 m 2
 1754 1247 l 1
 1754 1262 l 1
 1678 1186 l 2
 1680 1183 1684 1182 1686 1179 c 2
1221 684 m 2
 1280 743 l 1
 1280 758 l 1
 1213 691 l 2
 1216 689 1218 686 1221 684 c 2
1700 1163 m 2
 1754 1217 l 1
 1754 1232 l 1
 1693 1171 l 2
 1695 1168 1698 1166 1700 1163 c 2
1237 670 m 2
 1280 713 l 1
 1280 728 l 1
 1229 677 l 2
 1232 675 1234 673 1237 670 c 2
1715 1148 m 2
 1754 1187 l 1
 1754 1202 l 1
 1708 1156 l 2
 1710 1153 1713 1151 1715 1148 c 2
1252 655 m 2
 1280 683 l 1
 1280 698 l 1
 1245 663 l 2
 1247 661 1249 658 1252 655 c 2
1729 1132 m 2
 1754 1157 l 1
 1754 1172 l 1
 1722 1140 l 2
 1724 1137 1727 1135 1729 1132 c 2
1274 632 m 2
 1276 630 1278 628 1280 626 c 2
 1280 638 l 1
 1274 632 l 2
1267 640 m 2
 1280 653 l 1
 1280 668 l 1
 1260 648 l 2
 1262 646 1264 643 1267 640 c 2
1751 1109 m 2
 1752 1108 1753 1107 1754 1106 c 2
 1754 1112 l 1
 1751 1109 l 2
1744 1117 m 2
 1754 1127 l 1
 1754 1142 l 1
 1737 1125 l 2
 1739 1122 1742 1120 1744 1117 c 2
80 1380 m 1
 80 1400 l 1
 1904 1400 l 1
 1904 920 l 1
 1884 920 l 1
 1825 1015 1747 1097 1658 1189 c 0
 1567 1283 1496 1370 1352 1370 c 2
 806 1370 l 1
 806 741 l 1
 1112 741 l 2
 1185 741 1232 805 1278 863 c 0
 1314 910 1384 1007 1410 1066 c 1
 1430 1066 l 1
 1430 446 l 1
 1410 446 l 1
 1370 513 1315 562 1270 614 c 0
 1227 663 1188 711 1112 711 c 2
 806 711 l 1
 806 175 l 2
 806 120 834 104 934 65 c 0
 999 39 1049 29 1130 20 c 1
 1130 0 l 1
 80 0 l 1
 80 20 l 1
 161 29 211 39 276 65 c 0
 376 104 404 120 404 175 c 2
 404 1225 l 2
 404 1280 376 1296 276 1335 c 0
 211 1361 161 1371 80 1380 c 1
713 86 m 2
 716 84 719 82 722 80 c 2
 652 10 l 1
 656 10 l 1
 667 10 l 1
 732 75 l 2
 735 74 737 73 740 72 c 1
 726 78 715 85 704 92 c 1
 622 10 l 1
 637 10 l 1
 713 86 l 2
877 10 m 1
 885 18 l 2
 886 18 887 17 888 17 c 1
 883 19 879 20 874 22 c 1
 862 10 l 1
 877 10 l 1
892 10 m 1
 900 10 l 1
 900 13 l 2
 899 13 897 14 896 14 c 2
 892 10 l 1
863 26 m 2
 859 27 856 29 852 30 c 2
 832 10 l 1
 847 10 l 1
 863 26 l 2
817 10 m 1
 840 33 l 2
 843 32 847 31 850 30 c 1
 843 32 836 35 829 37 c 1
 802 10 l 1
 817 10 l 1
818 41 m 1
 811 43 806 46 799 48 c 1
 802 47 804 46 807 45 c 2
 772 10 l 1
 787 10 l 1
 818 41 l 1
829 37 m 1
 826 38 822 40 819 41 c 1
 822 40 826 38 829 37 c 1
796 49 m 2
 792 50 789 52 785 53 c 2
 742 10 l 1
 757 10 l 1
 796 49 l 2
727 10 m 1
 774 57 l 2
 775 57 776 56 777 56 c 1
 770 59 763 61 757 64 c 1
 759 63 762 63 764 62 c 2
 712 10 l 1
 727 10 l 1
783 54 m 1
 781 55 780 55 778 56 c 1
 780 55 781 55 783 54 c 1
753 66 m 2
 749 68 746 69 743 71 c 2
 682 10 l 1
 697 10 l 1
 753 66 l 2
695 98 m 2
 692 100 690 103 687 105 c 2
 592 10 l 1
 607 10 l 1
 695 98 l 2
703 92 m 1
 702 93 700 94 699 95 c 1
 700 94 702 93 703 92 c 1
577 10 m 1
 679 112 l 2
 681 110 684 107 686 105 c 1
 681 110 676 115 672 121 c 1
 672 120 l 2
 562 10 l 1
 577 10 l 1
667 130 m 2
 665 133 663 136 662 140 c 2
 532 10 l 1
 547 10 l 1
 667 130 l 2
658 151 m 1
 656 158 656 167 656 175 c 1
 656 171 656 167 656 164 c 2
 502 10 l 1
 517 10 l 1
 658 151 l 1
659 149 m 1
 659 147 660 146 661 144 c 1
 660 146 659 147 659 149 c 1
487 10 m 1
 656 179 l 1
 656 194 l 1
 472 10 l 1
 487 10 l 1
457 10 m 1
 656 209 l 1
 656 224 l 1
 442 10 l 1
 457 10 l 1
427 10 m 1
 656 239 l 1
 656 254 l 1
 412 10 l 1
 427 10 l 1
397 10 m 1
 656 269 l 1
 656 284 l 1
 382 10 l 1
 397 10 l 1
367 10 m 1
 656 299 l 1
 656 314 l 1
 352 10 l 1
 367 10 l 1
337 10 m 1
 656 329 l 1
 656 344 l 1
 322 10 l 1
 337 10 l 1
307 10 m 1
 656 359 l 1
 656 374 l 1
 292 10 l 1
 307 10 l 1
383 106 m 1
 397 117 405 128 410 143 c 1
 656 389 l 1
 656 404 l 1
 413 161 l 1
 411 137 402 121 383 106 c 1
357 90 m 1
 338 80 312 69 281 57 c 0
 280 57 279 56 278 56 c 2
 232 10 l 1
 247 10 l 1
 302 65 l 2
 311 69 320 73 328 76 c 2
 262 10 l 1
 277 10 l 1
 357 90 l 1
414 177 m 1
 656 419 l 1
 656 434 l 1
 414 192 l 1
 414 177 l 1
274 54 m 1
 259 48 245 43 231 39 c 1
 202 10 l 1
 217 10 l 1
 254 47 l 2
 261 49 267 51 274 54 c 1
414 207 m 1
 656 449 l 1
 656 464 l 1
 414 222 l 1
 414 207 l 1
215 34 m 1
 220 35 224 38 229 39 c 1
 224 38 220 35 215 34 c 1
210 33 m 1
 202 31 194 29 185 27 c 1
 187 27 188 28 190 28 c 2
 172 10 l 1
 187 10 l 1
 210 33 l 1
414 237 m 1
 656 479 l 1
 656 494 l 1
 414 252 l 1
 414 237 l 1
175 25 m 1
 168 23 160 21 152 20 c 1
 142 10 l 1
 157 10 l 1
 171 24 l 2
 172 24 174 25 175 25 c 1
414 267 m 1
 656 509 l 1
 656 524 l 1
 414 282 l 1
 414 267 l 1
146 19 m 1
 134 17 122 16 109 14 c 1
 112 14 114 15 117 15 c 2
 112 10 l 1
 127 10 l 1
 134 17 l 2
 138 18 142 18 146 19 c 1
414 297 m 1
 656 539 l 1
 656 554 l 1
 414 312 l 1
 414 297 l 1
414 327 m 1
 656 569 l 1
 656 584 l 1
 414 342 l 1
 414 327 l 1
414 357 m 1
 656 599 l 1
 656 614 l 1
 414 372 l 1
 414 357 l 1
414 387 m 1
 656 629 l 1
 656 644 l 1
 414 402 l 1
 414 387 l 1
414 417 m 1
 656 659 l 1
 656 674 l 1
 414 432 l 1
 414 417 l 1
414 447 m 1
 656 689 l 1
 656 704 l 1
 414 462 l 1
 414 447 l 1
414 477 m 1
 656 719 l 1
 656 734 l 1
 414 492 l 1
 414 477 l 1
414 507 m 1
 656 749 l 1
 656 764 l 1
 414 522 l 1
 414 507 l 1
414 537 m 1
 656 779 l 1
 656 794 l 1
 414 552 l 1
 414 537 l 1
414 567 m 1
 656 809 l 1
 656 824 l 1
 414 582 l 1
 414 567 l 1
414 597 m 1
 656 839 l 1
 656 854 l 1
 414 612 l 1
 414 597 l 1
414 627 m 1
 656 869 l 1
 656 884 l 1
 414 642 l 1
 414 627 l 1
414 657 m 1
 656 899 l 1
 656 914 l 1
 414 672 l 1
 414 657 l 1
414 687 m 1
 656 929 l 1
 656 944 l 1
 414 702 l 1
 414 687 l 1
414 717 m 1
 656 959 l 1
 656 974 l 1
 414 732 l 1
 414 717 l 1
414 747 m 1
 656 989 l 1
 656 1004 l 1
 414 762 l 1
 414 747 l 1
414 777 m 1
 656 1019 l 1
 656 1034 l 1
 414 792 l 1
 414 777 l 1
414 807 m 1
 656 1049 l 1
 656 1064 l 1
 414 822 l 1
 414 807 l 1
414 837 m 1
 656 1079 l 1
 656 1094 l 1
 414 852 l 1
 414 837 l 1
414 867 m 1
 656 1109 l 1
 656 1124 l 1
 414 882 l 1
 414 867 l 1
414 897 m 1
 656 1139 l 1
 656 1154 l 1
 414 912 l 1
 414 897 l 1
414 927 m 1
 656 1169 l 1
 656 1184 l 1
 414 942 l 1
 414 927 l 1
414 957 m 1
 656 1199 l 1
 656 1214 l 1
 414 972 l 1
 414 957 l 1
414 987 m 1
 656 1229 l 1
 656 1244 l 1
 414 1002 l 1
 414 987 l 1
414 1017 m 1
 656 1259 l 1
 656 1274 l 1
 414 1032 l 1
 414 1017 l 1
414 1047 m 1
 656 1289 l 1
 656 1304 l 1
 414 1062 l 1
 414 1047 l 1
414 1077 m 1
 656 1319 l 1
 656 1334 l 1
 414 1092 l 1
 414 1077 l 1
414 1107 m 1
 656 1349 l 1
 656 1364 l 1
 414 1122 l 1
 414 1107 l 1
414 1137 m 1
 656 1379 l 1
 656 1390 l 1
 652 1390 l 1
 414 1152 l 1
 414 1137 l 1
414 1167 m 1
 637 1390 l 1
 622 1390 l 1
 414 1182 l 1
 414 1167 l 1
414 1197 m 1
 607 1390 l 1
 592 1390 l 1
 414 1212 l 1
 414 1197 l 1
414 1225 m 1
 414 1226 414 1226 414 1227 c 2
 577 1390 l 1
 562 1390 l 1
 413 1241 l 2
 413 1243 412 1245 412 1247 c 1
 413 1240 414 1233 414 1225 c 1
411 1254 m 1
 547 1390 l 1
 532 1390 l 1
 407 1265 l 2
 406 1266 406 1267 405 1268 c 1
 407 1263 410 1259 411 1254 c 1
401 1274 m 1
 517 1390 l 1
 502 1390 l 1
 395 1283 l 2
 393 1286 390 1288 387 1290 c 2
 487 1390 l 1
 472 1390 l 1
 379 1297 l 1
 389 1290 396 1282 401 1274 c 1
375 1300 m 1
 373 1301 372 1302 370 1303 c 2
 457 1390 l 1
 442 1390 l 1
 360 1308 l 1
 365 1305 371 1303 375 1300 c 1
351 1314 m 2
 427 1390 l 1
 412 1390 l 1
 340 1318 l 2
 344 1316 348 1316 351 1314 c 2
330 1323 m 2
 397 1390 l 1
 382 1390 l 1
 320 1328 l 2
 324 1326 327 1324 330 1323 c 2
335 1321 m 1
 334 1321 332 1322 331 1322 c 1
 332 1322 334 1321 335 1321 c 1
318 1328 m 1
 315 1329 312 1331 309 1332 c 2
 367 1390 l 1
 352 1390 l 1
 298 1336 l 1
 305 1333 312 1331 318 1328 c 1
288 1341 m 2
 337 1390 l 1
 322 1390 l 1
 277 1345 l 2
 273 1346 270 1348 266 1349 c 2
 307 1390 l 1
 292 1390 l 1
 255 1353 l 1
 264 1350 272 1347 281 1343 c 0
 283 1342 286 1342 288 1341 c 2
244 1357 m 2
 277 1390 l 1
 262 1390 l 1
 232 1360 l 2
 236 1359 240 1358 244 1357 c 2
221 1364 m 2
 247 1390 l 1
 232 1390 l 1
 209 1367 l 2
 213 1366 217 1365 221 1364 c 2
230 1361 m 1
 227 1362 224 1363 221 1364 c 1
 224 1363 227 1362 230 1361 c 1
197 1370 m 2
 217 1390 l 1
 202 1390 l 1
 185 1373 l 2
 185 1373 l 1
 189 1372 193 1371 197 1370 c 2
207 1368 m 1
 206 1368 205 1369 203 1369 c 1
 205 1369 206 1368 207 1368 c 1
173 1376 m 2
 187 1390 l 1
 172 1390 l 1
 160 1378 l 2
 164 1377 169 1377 173 1376 c 2
147 1380 m 2
 157 1390 l 1
 142 1390 l 1
 135 1383 l 2
 139 1382 143 1381 147 1380 c 2
157 1379 m 1
 155 1379 153 1380 151 1380 c 1
 153 1380 155 1379 157 1379 c 1
125 1384 m 1
 124 1384 122 1384 121 1384 c 2
 127 1390 l 1
 112 1390 l 1
 108 1386 l 2
 105 1386 103 1387 100 1387 c 1
 109 1386 117 1385 125 1384 c 1
EndSplineSet
EndChar

StartChar: G
Encoding: 71 71 7
GlifName: G_
Width: 2476
Flags: HMW
AnchorPoint: "top" 1141 1400 basechar 0
AnchorPoint: "bottom" 1240 0 basechar 0
AnchorPoint: "cedilla" 1240 0 basechar 0
LayerCount: 2
Fore
SplineSet
2240 22 m 1
 2161.94852445 69.3883958675 2076.50364075 115 1960 115 c 0
 1870 115 1800 95 1730 70 c 0
 1610 24 1476 -20 1240 -20 c 0
 634 -20 160 256 160 700 c 0
 160 1144 664 1425 1180 1425 c 0
 1392 1425 1588 1357 1747 1267 c 0
 1771 1253 1827 1250 1897 1297 c 2
 2070 1414 l 1
 2090 1414 l 1
 2090 903 l 1
 2070 903 l 1
 1894 1181 1553 1391 1201 1391 c 0
 893 1391 630 1134 630 700 c 0
 630 266 892 10 1260 10 c 0
 1384 10 1554 27 1629 78 c 0
 1663 101 1730 150 1730 200 c 2
 1730 465 l 2
 1730 520 1702 536 1602 575 c 0
 1537 601 1487 611 1406 620 c 1
 1406 640 l 1
 2456 640 l 1
 2456 620 l 1
 2375 611 2325 601 2260 575 c 0
 2160 536 2132 520 2132 465 c 2
 2132 245 l 2
 2132 150 2147 133 2168 108 c 0
 2189 83 2217 59 2249 36 c 1
 2240 22 l 1
480 700 m 0
 480 974 562 1217 810 1367 c 1
 486 1275 170 1054 170 700 c 0
 170 346 484 126 810 43 c 1
 562 195 480 426 480 700 c 0
1723 1256 m 1
 1790 1211 1889 1138 1940 1081 c 9
 1940 1314 l 1
 1846 1239 1783 1238 1723 1256 c 1
1426 627 m 1
 1498.02441406 619 1549.18164062 605.974609375 1607.29199219 583 c 0
 1705.86132812 544.029296875 1740 527 1740 465 c 2
 1740 202 l 2
 1740 151 1693.14645034 118.377240363 1674 101 c 0
 1656.54101562 85.154296875 1618.02441406 55 1546 26 c 5
 1711 52 1772 124 1982 124 c 1
 1982 630 l 1
 1426 630 l 1
 1426 627 l 1
EndSplineSet
EndChar

StartChar: T
Encoding: 84 84 8
GlifName: T_
Width: 1870
Flags: HMW
AnchorPoint: "cedilla" 935 0 basechar 0
AnchorPoint: "bottom" 935 0 basechar 0
AnchorPoint: "top" 944 1400 basechar 0
LayerCount: 2
Fore
SplineSet
503 1390 m 5
 38 1390 l 5
 38 1032 l 5
 246 1284 340 1351 503 1390 c 5
1297 1390 m 1
 1460 1351 1484 1284 1692 1032 c 1
 1692 1390 l 1
 1297 1390 l 1
1216 13 m 1
 1163.97558594 31 1132.1640625 40.9365234375 1093.70800781 56 c 0
 1015.73144531 86.5439453125 972 113 972 175 c 9
 972 10 l 1
 1216 10 l 1
 1216 13 l 1
416 13 m 1
 416 10 l 1
 730 10 l 1
 730 175 l 17
 730 113 695.861328125 95.970703125 597.291992188 57 c 0
 539.181640625 34.025390625 488.024414062 21 416 13 c 1
730 1370 m 1
 730 10 l 1
 972 10 l 1
 972 1370 l 1
 730 1370 l 1
396 20 m 1
 477 29 527 39 592 65 c 0
 692 104 720 120 720 175 c 2
 720 1370 l 1
 590 1370 l 2
 451 1370 358 1230 274 1129 c 0
 187 1024 107 905 48 820 c 1
 28 820 l 1
 28 1400 l 1
 632.666666667 1400 1237.33333333 1400 1842 1400 c 1
 1842 820 l 1
 1822 820 l 1
 1763 905 1683 1024 1596 1129 c 0
 1512 1230 1419 1370 1280 1370 c 2
 1150 1370 l 1
 1150 175 l 2
 1150 120 1178 104 1278 65 c 0
 1343 39 1393 29 1474 20 c 1
 1474 0 l 1
 396 0 l 1
 396 20 l 1
EndSplineSet
EndChar

StartChar: L
Encoding: 76 76 9
GlifName: L_
Width: 1984
Flags: HMW
AnchorPoint: "cedilla" 1006 0 basechar 0
AnchorPoint: "bottom" 1006 0 basechar 0
AnchorPoint: "top" 604 1400 basechar 0
LayerCount: 2
Fore
SplineSet
900 1387 m 1
 900 1390 l 1
 656 1390 l 1
 656 1225 l 17
 656 1287 699.731445312 1313.45605469 777.708007812 1344 c 0
 816.1640625 1359.06347656 847.975585938 1369 900 1387 c 1
1324 10 m 5
 1754 10 l 5
 1754 346 l 5
 1544 124 1453 28 1324 10 c 5
100 1387 m 1
 172.024414062 1379 223.181640625 1365.97460938 281.291992188 1343 c 0
 379.861328125 1304.02929688 414 1287 414 1225 c 2
 414 175 l 2
 414 113 379.861328125 95.970703125 281.291992188 57 c 0
 223.181640625 34.025390625 172.024414062 21 100 13 c 1
 100 10 l 1
 656 10 l 1
 656 1390 l 1
 100 1390 l 1
 100 1387 l 1
80 1380 m 1
 80 1400 l 1
 1130 1400 l 1
 1130 1380 l 1
 1049 1371 999 1361 934 1335 c 0
 834 1295 806 1280 806 1225 c 2
 806 30 l 1
 1282 30 l 2
 1438 30 1512 112 1663 268 c 0
 1798 408 1855 479 1884 550 c 1
 1904 550 l 1
 1904 0 l 1
 80 0 l 1
 80 20 l 1
 161 29 211 39 276 65 c 0
 376 104 404 120 404 175 c 2
 404 1225 l 2
 404 1280 376 1296 276 1335 c 0
 211 1361 161 1371 80 1380 c 1
EndSplineSet
EndChar

StartChar: D
Encoding: 68 68 10
GlifName: D_
Width: 2244
Flags: HMW
AnchorPoint: "cedilla" 1066 0 basechar 0
AnchorPoint: "bottom" 1066 0 basechar 0
AnchorPoint: "top" 1084 1400 basechar 0
LayerCount: 2
Fore
SplineSet
125.253327628 1383.86989164 m 1
 123.973105309 1384.04643549 122.686577977 1384.22098205 121.393554688 1384.39355469 c 2
 127 1390 l 1
 112 1390 l 1
 108.072265625 1386.07226562 l 2
 105.41015625 1386.38867188 102.719726562 1386.69824219 100 1387 c 1
 108.706306795 1386.03296049 117.107703087 1384.99249017 125.253327628 1383.86989164 c 1
157.383476339 1378.77746497 m 1
 155.311242334 1379.15253556 153.224679866 1379.52035635 151.12286308 1379.88104234 c 1
 153.224664525 1379.52017007 155.311195287 1379.15237142 157.383476339 1378.77746497 c 1
147.494599141 1380.49459914 m 2
 157 1390 l 1
 142 1390 l 1
 134.538133881 1382.53813388 l 2
 138.926264025 1381.88344166 143.242337738 1381.20274978 147.494599141 1380.49459914 c 2
172.803168329 1375.80316833 m 2
 187 1390 l 1
 172 1390 l 1
 160.252239347 1378.25223935 l 2
 164.491291141 1377.46687759 168.671965271 1376.65104603 172.803168329 1375.80316833 c 2
207.207593866 1367.71463018 m 1
 205.709334439 1368.11354526 204.207616195 1368.50703882 202.701907952 1368.89521753 c 1
 204.207641744 1368.50696537 205.709371416 1368.11346542 207.207593866 1367.71463018 c 1
197.268957682 1370.26895768 m 2
 217 1390 l 1
 202 1390 l 1
 185.142578125 1373.14257812 l 2
 185.027544409 1373.16858287 184.912478697 1373.19456108 184.797380668 1373.2205125 c 1
 188.995187812 1372.27346096 193.149056825 1371.29019763 197.268957682 1370.26895768 c 2
229.630063994 1361.27468596 m 1
 226.739343551 1362.16597703 223.84435084 1363.03476754 220.942153917 1363.88189368 c 1
 223.844478608 1363.03456489 226.739203348 1362.16571653 229.630063994 1361.27468596 c 1
220.89550898 1363.89550898 m 2
 247 1390 l 1
 232 1390 l 1
 209.184676327 1367.18467633 l 2
 213.107936393 1366.12581741 217.008555904 1365.02995773 220.89550898 1363.89550898 c 2
243.74136623 1356.74136623 m 2
 277 1390 l 1
 262 1390 l 1
 232.410497774 1360.41049777 l 2
 236.189227031 1359.22626303 239.96339567 1358.00371254 243.74136623 1356.74136623 c 2
287.528806728 1340.52880673 m 2
 337 1390 l 1
 322 1390 l 1
 276.772460938 1344.77246094 l 2
 273.127929688 1346.18945312 269.508789062 1347.56738281 265.907226562 1348.90722656 c 2
 307 1390 l 1
 292 1390 l 1
 254.901841035 1352.90184103 l 1
 263.601704471 1349.82413343 272.364799411 1346.52947042 281.291992188 1343 c 0
 283.400308367 1342.16644905 285.47914774 1341.34293621 287.528806728 1340.52880673 c 2
318.453267108 1327.96273888 m 1
 315.36235067 1329.26150068 312.184152633 1330.57873602 308.91796875 1331.91796875 c 2
 367 1390 l 1
 352 1390 l 1
 298.24719001 1336.24719001 l 1
 305.360438304 1333.38665984 312.090973237 1330.63583156 318.453267108 1327.96273888 c 1
334.766959301 1320.90211441 m 1
 333.689843658 1321.38481449 332.600043906 1321.86925346 331.497442444 1322.35566661 c 1
 332.599985137 1321.86926518 333.689791704 1321.38481928 334.766959301 1320.90211441 c 1
330.009783131 1323.00978313 m 2
 397 1390 l 1
 382 1390 l 1
 319.515655004 1327.515655 l 2
 323.133127558 1325.99082137 326.630266159 1324.49086117 330.009783131 1323.00978313 c 2
350.50823116 1313.50823116 m 2
 427 1390 l 1
 412 1390 l 1
 340.358657816 1318.35865782 l 2
 343.885979296 1316.72881317 347.267880559 1315.11485344 350.50823116 1313.50823116 c 2
374.842692649 1299.75975137 m 1
 373.251540726 1300.81466291 371.60602567 1301.86244101 369.905273438 1302.90527344 c 2
 457 1390 l 1
 442 1390 l 1
 360.387763268 1308.38776327 l 1
 365.635716031 1305.53353713 370.446712804 1302.67368611 374.842692649 1299.75975137 c 1
401.49432383 1274.49432383 m 1
 517 1390 l 1
 502 1390 l 1
 394.932617188 1282.93261719 l 2
 392.633789062 1285.48144531 390.108398438 1287.9453125 387.344726562 1290.34472656 c 2
 487 1390 l 1
 472 1390 l 1
 378.940788181 1296.94078818 l 1
 388.590184604 1290.04387797 396.0149174 1282.76739961 401.49432383 1274.49432383 c 1
410.717087286 1253.71708729 m 1
 547 1390 l 1
 532 1390 l 1
 406.81640625 1264.81640625 l 2
 406.267921939 1266.04209717 405.68601464 1267.24563416 405.070036491 1268.42845545 c 1
 407.447349379 1263.8626283 409.316608365 1258.98775506 410.717087286 1253.71708729 c 1
414 1225 m 1
 414 1225.66796875 413.99609375 1226.33007812 413.98828125 1226.98828125 c 2
 577 1390 l 1
 562 1390 l 1
 413.100585938 1241.10058594 l 2
 412.848238988 1243.18187786 412.541518702 1245.2062377 412.178730634 1247.1773519 c 1
 413.415530005 1240.45489347 414 1233.11240691 414 1225 c 1
414 1197 m 1
 607 1390 l 1
 592 1390 l 1
 414 1212 l 1
 414 1197 l 1
414 1167 m 1
 637 1390 l 1
 622 1390 l 1
 414 1182 l 1
 414 1167 l 1
414 1137 m 1
 656 1379 l 1
 656 1390 l 1
 652 1390 l 1
 414 1152 l 1
 414 1137 l 1
414 1107 m 1
 656 1349 l 1
 656 1364 l 1
 414 1122 l 1
 414 1107 l 1
414 1077 m 1
 656 1319 l 1
 656 1334 l 1
 414 1092 l 1
 414 1077 l 1
414 1047 m 1
 656 1289 l 1
 656 1304 l 1
 414 1062 l 1
 414 1047 l 1
414 1017 m 1
 656 1259 l 1
 656 1274 l 1
 414 1032 l 1
 414 1017 l 1
414 987 m 1
 656 1229 l 1
 656 1244 l 1
 414 1002 l 1
 414 987 l 1
414 957 m 1
 656 1199 l 1
 656 1214 l 1
 414 972 l 1
 414 957 l 1
414 927 m 1
 656 1169 l 1
 656 1184 l 1
 414 942 l 1
 414 927 l 1
414 897 m 1
 656 1139 l 1
 656 1154 l 1
 414 912 l 1
 414 897 l 1
414 867 m 1
 656 1109 l 1
 656 1124 l 1
 414 882 l 1
 414 867 l 1
414 837 m 1
 656 1079 l 1
 656 1094 l 1
 414 852 l 1
 414 837 l 1
414 807 m 1
 656 1049 l 1
 656 1064 l 1
 414 822 l 1
 414 807 l 1
414 777 m 1
 656 1019 l 1
 656 1034 l 1
 414 792 l 1
 414 777 l 1
414 747 m 1
 656 989 l 1
 656 1004 l 1
 414 762 l 1
 414 747 l 1
414 717 m 1
 656 959 l 1
 656 974 l 1
 414 732 l 1
 414 717 l 1
414 687 m 1
 656 929 l 1
 656 944 l 1
 414 702 l 1
 414 687 l 1
414 657 m 1
 656 899 l 1
 656 914 l 1
 414 672 l 1
 414 657 l 1
414 627 m 1
 656 869 l 1
 656 884 l 1
 414 642 l 1
 414 627 l 1
414 597 m 1
 656 839 l 1
 656 854 l 1
 414 612 l 1
 414 597 l 1
414 567 m 1
 656 809 l 1
 656 824 l 1
 414 582 l 1
 414 567 l 1
414 537 m 1
 656 779 l 1
 656 794 l 1
 414 552 l 1
 414 537 l 1
414 507 m 1
 656 749 l 1
 656 764 l 1
 414 522 l 1
 414 507 l 1
414 477 m 1
 656 719 l 1
 656 734 l 1
 414 492 l 1
 414 477 l 1
414 447 m 1
 656 689 l 1
 656 704 l 1
 414 462 l 1
 414 447 l 1
414 417 m 1
 656 659 l 1
 656 674 l 1
 414 432 l 1
 414 417 l 1
414 387 m 1
 656 629 l 1
 656 644 l 1
 414 402 l 1
 414 387 l 1
414 357 m 1
 656 599 l 1
 656 614 l 1
 414 372 l 1
 414 357 l 1
414 327 m 1
 656 569 l 1
 656 584 l 1
 414 342 l 1
 414 327 l 1
414 297 m 1
 656 539 l 1
 656 554 l 1
 414 312 l 1
 414 297 l 1
145.593517591 19.19133004 m 1
 133.983781086 17.2886808027 121.893572441 15.5872816326 109.157354967 14.057834203 c 1
 111.811149437 14.3764309142 114.436907883 14.7024304276 117.036132812 15.0361328125 c 2
 112 10 l 1
 127 10 l 1
 134.448242188 17.4482421875 l 2
 138.214588296 18.0098426173 141.927909821 18.5904870878 145.593517591 19.19133004 c 1
414 267 m 1
 656 509 l 1
 656 524 l 1
 414 282 l 1
 414 267 l 1
174.767804632 24.603241805 m 1
 167.455768066 23.0787350667 159.992047832 21.6561676782 152.326699215 20.3266992151 c 1
 142 10 l 1
 157 10 l 1
 170.786132812 23.7861328125 l 2
 172.11853527 24.0552121385 173.445658623 24.3275653274 174.767804632 24.603241805 c 1
414 237 m 1
 656 479 l 1
 656 494 l 1
 414 252 l 1
 414 237 l 1
210.049406292 33.0494062925 m 1
 201.824791948 30.8163562764 193.503414526 28.7467025331 185.002387132 26.8257743962 c 1
 186.664829557 27.20139159 188.320398235 27.5826740496 189.969726562 27.9697265625 c 2
 172 10 l 1
 187 10 l 1
 210.049406292 33.0494062925 l 1
214.851293277 34.3747450518 m 1
 219.600671446 35.7067748384 224.323322819 37.0950690034 229.035166412 38.5422817526 c 1
 224.323537652 37.0952786406 219.600968959 35.7070531791 214.851293277 34.3747450518 c 1
414 207 m 1
 656 449 l 1
 656 464 l 1
 414 222 l 1
 414 207 l 1
274.484162525 54.3420479649 m 1
 259.835110706 48.6963902638 245.56510622 43.6815934572 231.216693161 39.2166931611 c 1
 202 10 l 1
 217 10 l 1
 253.66015625 46.66015625 l 2
 260.548186636 49.0819361737 267.472780433 51.6395230557 274.484162525 54.3420479649 c 1
414 177 m 1
 656 419 l 1
 656 434 l 1
 414 192 l 1
 414 177 l 1
356.583884572 89.5838845717 m 1
 337.319998925 79.5064973679 312.544539488 69.3561118794 281.291992188 57 c 0
 280.030893826 56.5014099646 278.773070161 56.0075056877 277.518236844 55.5182368436 c 2
 232 10 l 1
 247 10 l 1
 302.447265625 65.447265625 l 2
 311.689453125 69.1884765625 320.262695312 72.748046875 328.200195312 76.2001953125 c 2
 262 10 l 1
 277 10 l 1
 356.583884572 89.5838845717 l 1
382.574152322 105.755929187 m 1
 396.253156942 116.311114213 404.963814 127.909171039 409.661132812 142.661132812 c 1
 656 389 l 1
 656 404 l 1
 413.371485545 161.371485545 l 1
 410.972752958 137.062873579 401.558381094 120.405027791 382.574152322 105.755929187 c 1
307 10 m 1
 656 359 l 1
 656 374 l 1
 292 10 l 1
 307 10 l 1
337 10 m 1
 656 329 l 1
 656 344 l 1
 322 10 l 1
 337 10 l 1
367 10 m 1
 656 299 l 1
 656 314 l 1
 352 10 l 1
 367 10 l 1
397 10 m 1
 656 269 l 1
 656 284 l 1
 382 10 l 1
 397 10 l 1
427 10 m 1
 656 239 l 1
 656 254 l 1
 412 10 l 1
 427 10 l 1
457 10 m 1
 656 209 l 1
 656 224 l 1
 442 10 l 1
 457 10 l 1
487 10 m 1
 656 179 l 1
 656 194 l 1
 472 10 l 1
 487 10 l 1
517 10 m 1
 656 149 l 1
 656 164 l 1
 502 10 l 1
 517 10 l 1
547 10 m 1
 656 119 l 1
 656 134 l 1
 532 10 l 1
 547 10 l 1
577 10 m 1
 656 89 l 1
 656 104 l 1
 562 10 l 1
 577 10 l 1
607 10 m 1
 656 59 l 1
 656 74 l 1
 592 10 l 1
 607 10 l 1
652 10 m 1
 656 10 l 1
 656 14 l 1
 652 10 l 1
637 10 m 1
 656 29 l 1
 656 44 l 1
 622 10 l 1
 637 10 l 1
80 1380 m 1
 80 1400 l 1
 1224 1400 l 2
 1730 1400 2144 1116 2144 700 c 0
 2144 284 1708 0 1224 0 c 2
 80 0 l 1
 80 20 l 1
 161 29 211 39 276 65 c 0
 376 104 404 120 404 175 c 2
 404 1225 l 2
 404 1280 376 1296 276 1335 c 0
 211 1361 161 1371 80 1380 c 1
806 30 m 1
 1224 30 l 2
 1501 30 1664 176 1664 700 c 0
 1664 1224 1482 1370 1224 1370 c 2
 806 1370 l 1
 806 30 l 1
1680.45048301 153.45048301 m 2
 1890.88442279 363.884422794 l 2
 1898.13791001 375.503419008 1905.02016031 387.381571225 1911.5140624 399.514062404 c 2
 1642.29268285 130.29268285 l 2
 1655.27565022 137.677712828 1668.00170669 145.398890949 1680.45048301 153.45048301 c 2
1731.68490252 189.684902524 m 1
 1779.07838486 226.295553376 1821.37987972 268.266173576 1857.20784027 315.207840269 c 1
 1731.68490252 189.684902524 l 1
1609.76426139 112.764261385 m 2
 1926.54412379 429.544123791 l 2
 1930.63786748 438.317127745 1934.53480582 447.212663525 1938.22908251 456.229082505 c 2
 1580.61086797 98.6108679717 l 2
 1590.44701049 103.152201388 1600.16730724 107.870702678 1609.76426139 112.764261385 c 2
1553.78428494 86.7842849438 m 2
 1947.617282 480.617282005 l 2
 1950.31534067 488.099538401 1952.87680768 495.660258375 1955.29856383 503.298563834 c 2
 1528.69479744 76.6947974422 l 2
 1537.12955158 79.9350437998 1545.49412154 83.2986025163 1553.78428494 86.7842849438 c 2
1504.97125152 67.9712515206 m 2
 1961.64420953 524.644209527 l 2
 1963.50447345 531.341473279 1965.25909505 538.095618482 1966.90608517 544.906085166 c 2
 1482.36190959 60.3619095943 l 2
 1489.94713702 62.8026904309 1497.48452541 65.3394026671 1504.97125152 67.9712515206 c 2
1460.68661195 53.686611948 m 2
 1971.26447989 564.264479887 l 2
 1972.54804228 570.416891095 1973.74494505 576.613458466 1974.85378776 582.853787761 c 2
 1565.70926102 173.709261016 l 1
 1539.58356246 134.901543587 1507.70908313 102.202620537 1469.01589887 77.0158988658 c 1
 1439.81109486 47.8110948577 l 2
 1446.80497734 49.6905235132 1453.76417401 51.649223727 1460.68661195 53.686611948 c 2
1434.43695665 57.436956648 m 2
 1425.86839949 53.2548532293 1417.0123199 49.3920861752 1407.86003921 45.8600392062 c 2
 1400.06805955 38.0680595476 l 2
 1406.61600492 39.5215175661 1413.13788226 41.0430082341 1419.63207705 42.6320770479 c 2
 1434.43695665 57.436956648 l 2
1588.22106966 211.22106966 m 2
 1977.77742135 600.777421354 l 2
 1978.63140406 606.521579 1979.41161751 612.301541021 1980.11701187 618.117011872 c 2
 1602.73863463 240.738634629 l 2
 1598.16618474 230.622191125 1593.3310703 220.777659137 1588.22106966 211.22106966 c 2
1384.89007429 37.8900742875 m 2
 1378.11123448 35.7908725998 1371.18245428 33.8597675854 1364.10071665 32.1007166486 c 2
 1362.53415553 30.5341555318 l 2
 1368.72767304 31.6474275775 1374.9011812 32.8206220951 1381.05337041 34.053370411 c 2
 1384.89007429 37.8900742875 l 2
1613.65716013 266.657160135 m 2
 1981.93836446 634.938364458 l 2
 1982.45541993 640.360885099 1982.90806157 645.813329874 1983.29546738 651.29546738 c 2
 1622.40312698 290.403126982 l 2
 1619.62148989 282.351844703 1616.70779516 274.434387578 1613.65716013 266.657160135 c 2
1344.81294785 27.8129478483 m 2
 1341.57225466 27.1744473643 1338.30135802 26.5700186501 1335 26 c 1
 1338.15987435 26.4730885323 1341.31512743 26.9616344073 1344.46558997 27.4655899735 c 2
 1344.81294785 27.8129478483 l 2
1629.65569292 312.655692918 m 2
 1984.23328072 667.233280716 l 2
 1984.47628285 672.393253415 1984.66198758 677.578799003 1984.78973042 682.789730422 c 2
 1635.80145412 333.80145412 l 2
 1633.84091174 326.665150793 1631.79328803 319.615300102 1629.65569292 312.655692918 c 2
1641.08534248 354.085342481 m 2
 1984.99716838 697.997168378 l 2
 1984.99716838 698.664373497 1985 699.331984165 1985 700 c 0
 1985 704.311034381 1984.96067113 708.60519455 1984.88237789 712.882377895 c 2
 1645.6741433 373.674143305 l 2
 1644.20947575 367.081185166 1642.68054612 360.550705212 1641.08534248 354.085342481 c 2
1984.46251275 727.462512751 m 2
 1984.27424531 732.247127521 1984.03685122 737.009957444 1983.75085489 741.750854891 c 2
 1653.21474032 411.214740324 l 2
 1652.08995327 404.990342985 1650.91471978 398.813929309 1649.68750826 392.687508257 c 2
 1984.46251275 727.462512751 l 2
1982.7596236 755.759623596 m 2
 1982.38575399 760.361011418 1981.96574555 764.941213543 1981.50009121 769.500091206 c 2
 1659.07136862 447.071368622 l 2
 1658.19736004 441.116983588 1657.28218114 435.20085376 1656.32459784 429.324597843 c 2
 1982.7596236 755.759623596 l 2
1979.98267987 782.982679871 m 2
 1979.43746695 787.414846786 1978.84876699 791.826345819 1978.21704584 796.217045835 c 2
 1663.64283286 481.642832857 l 2
 1662.96300464 475.896453262 1662.24867659 470.181328221 1661.49881441 464.498814409 c 2
 1979.98267987 782.982679871 l 2
1976.21215317 809.212153166 m 2
 1975.50785101 813.4871427 1974.762432 817.741912646 1973.97633848 821.976338477 c 2
 1667.19546129 515.19546129 l 2
 1666.6711703 509.615064517 1666.11741818 504.060624759 1665.53331255 498.533312546 c 2
 1976.21215317 809.212153166 l 2
1971.51736797 834.517367973 m 2
 1970.66458567 838.645612277 1969.77281834 842.754025167 1968.84248788 846.842487878 c 2
 1669.91778976 547.917789764 l 2
 1669.52122594 542.473317621 1669.09915172 537.050636712 1668.65077976 531.650779764 c 2
 1971.51736797 834.517367973 l 2
1965.95846917 858.958469169 m 2
 1964.96645053 862.949062269 1963.93737527 866.920159577 1962.87164737 870.871647371 c 2
 1671.94927856 579.94927856 l 2
 1671.6596044 574.618326004 1671.34761015 569.30578689 1671.01258871 564.012588713 c 2
 1965.95846917 858.958469169 l 2
1959.58795807 882.587958068 m 2
 1958.46480204 886.448871276 1957.30634283 890.290577903 1956.11296866 894.112968659 c 2
 1673.39671078 611.396710781 l 2
 1673.19780372 606.162021876 1672.97921565 600.942937287 1672.74030221 595.740302213 c 2
 1959.58795807 882.587958068 l 2
1952.45190685 905.451906851 m 2
 1951.20474315 909.190160549 1949.92387818 912.909455482 1948.60968627 916.60968627 c 2
 1674.34417596 642.344175964 l 2
 1674.22322811 637.192099647 1674.08482701 632.053240539 1673.92837829 626.928378288 c 2
 1952.45190685 905.451906851 l 2
1944.59092953 927.590929532 m 2
 1943.22606011 931.212731573 1941.82895927 934.815785401 1940.39998909 938.399989085 c 2
 1674.85946502 672.85946502 l 2
 1674.91229628 677.886578183 1674.97285164 682.924608401 1674.97285164 687.972851642 c 1
 1674.94991291 682.924608401 1674.91229628 677.886578183 1674.85946502 672.85946502 c 0
 1674.80607261 667.77895594 1674.73714063 662.70959706 1674.65211508 657.652115082 c 2
 1944.59092953 927.590929532 l 2
1936.04096606 949.040966059 m 2
 1934.56398003 952.551824307 1933.05611672 956.044111033 1931.51772735 959.517727355 c 2
 1674.99832854 702.998328543 l 2
 1674.99832854 701.999444011 1675 700.999999893 1675 700 c 0
 1675 695.984763705 1674.99103973 691.975597269 1674.97285164 687.972851642 c 2
 1936.04096606 949.040966059 l 2
1926.83392116 969.833921161 m 2
 1925.24978899 973.238735739 1923.63603173 976.625124437 1921.99299107 979.992991073 c 2
 1674.79275802 732.792758023 l 2
 1674.85639141 727.856316268 1674.90499455 722.904932826 1674.93908405 717.939084048 c 2
 1926.83392116 969.833921161 l 2
1916.99818895 989.998188947 m 2
 1915.31134013 993.301328395 1913.59602829 996.586158889 1911.85258663 999.852586629 c 2
 1674.22650803 762.226508031 l 2
 1674.35231397 757.352158351 1674.46205931 752.461917103 1674.55626051 747.556260513 c 2
 1916.99818895 989.998188947 l 2
1906.55908667 1009.55908667 m 2
 1904.77347432 1012.76445122 1902.96048089 1015.95159694 1901.12043213 1019.12043213 c 2
 1673.27493947 791.274939473 l 2
 1673.46701718 786.46678115 1673.64200663 781.641784003 1673.80042404 776.800424045 c 2
 1906.55908667 1009.55908667 l 2
1895.53921554 1028.53921554 m 2
 1893.6583702 1031.65028994 1891.75115434 1034.74321042 1889.81788711 1037.81788711 c 2
 1671.91353243 819.913532431 l 2
 1672.17596014 815.175643803 1672.42027509 810.41997215 1672.64699317 805.646993173 c 2
 1895.53921554 1028.53921554 l 2
1883.9587623 1046.9587623 m 2
 1881.98583715 1049.97866016 1879.98748814 1052.98044503 1877.9640287 1055.9640287 c 2
 1670.11790178 848.117901784 l 2
 1670.45473416 843.454337658 1670.77243289 838.772049775 1671.07151344 834.071513439 c 2
 1883.9587623 1046.9587623 l 2
1871.8357524 1064.8357524 m 2
 1869.7735612 1067.76725343 1867.68683551 1070.68065951 1865.5758838 1073.5758838 c 2
 1667.86381265 875.863812648 l 2
 1668.27907823 871.278601734 1668.67419334 866.67373022 1669.04967292 862.049672921 c 2
 1871.8357524 1064.8357524 l 2
1859.18626299 1082.18626299 m 2
 1857.03731211 1085.0318445 1854.86466461 1087.85932694 1852.66862466 1090.66862466 c 2
 1665.12719559 903.127195592 l 2
 1665.62489426 898.624337982 1666.10143015 894.100887232 1666.55731757 889.557317575 c 2
 1859.18626299 1082.18626299 l 2
1846.02460261 1099.02460261 m 2
 1843.79111802 1101.786466 1841.53472826 1104.53020463 1839.25573388 1107.25573388 c 2
 1661.88416163 929.884161631 l 2
 1662.46826212 925.467626316 1663.03019249 921.029570029 1663.57046633 916.570466334 c 2
 1846.02460261 1099.02460261 l 2
1832.36346257 1115.36346257 m 2
 1830.04741257 1118.0435557 1827.70920696 1120.7054772 1825.34914331 1123.34914331 c 2
 1658.11101694 956.111016941 l 2
 1658.78545443 951.784739377 1659.43671985 947.436018119 1660.06532597 943.06532597 c 2
 1832.36346257 1115.36346257 l 2
1818.21404443 1131.21404443 m 2
 1815.81715873 1133.81408039 1813.39882917 1136.3958769 1810.95935088 1138.95935088 c 2
 1653.7842773 981.784277296 l 2
 1654.552951 977.552157015 1655.29745651 973.296675823 1656.01830568 969.018305676 c 2
 1818.21404443 1131.21404443 l 2
1803.58616683 1146.58616683 m 2
 1801.10995248 1149.10763961 1798.61297181 1151.61078421 1796.0955181 1154.0955181 c 2
 1648.88068219 1006.88068219 l 2
 1649.74745303 1002.74658046 1650.58906581 998.588206508 1651.40603134 994.406031339 c 2
 1803.58616683 1146.58616683 l 2
1788.48835428 1161.48835428 m 2
 1785.93410879 1163.93255174 1783.35974362 1166.35831128 1780.76555072 1168.76555072 c 2
 1643.37720861 1031.37720861 l 2
 1644.34589695 1027.34494619 1645.28844401 1023.28750648 1646.2053595 1019.2053595 c 2
 1788.48835428 1161.48835428 l 2
1772.92791018 1175.92791018 m 2
 1770.29673217 1178.29592453 1767.6460532 1180.64536993 1764.97616442 1182.97616442 c 2
 1637.25108447 1055.25108447 l 2
 1638.32546789 1051.32443934 1639.37273388 1047.37171854 1640.39339095 1043.39339095 c 2
 1772.92791018 1175.92791018 l 2
1756.91097551 1189.91097551 m 2
 1754.20377312 1192.20371166 1751.4776633 1194.47772611 1748.73293695 1196.73293695 c 2
 1630.47980165 1078.47980165 l 2
 1631.66361281 1074.66250693 1632.81933785 1070.81824515 1633.94748399 1066.94748399 c 2
 1756.91097551 1189.91097551 l 2
1740.44257467 1203.44257467 m 2
 1737.66007187 1205.66075649 1734.85923252 1207.86004151 1732.04034778 1210.04034778 c 2
 1623.04112867 1101.04112867 l 2
 1624.3380532 1097.33687047 1625.60593078 1093.60476119 1626.84526726 1089.84526726 c 2
 1740.44257467 1203.44257467 l 2
1723.5266492 1216.5266492 m 2
 1720.66939018 1218.67082388 1717.79434516 1220.79590358 1714.90180611 1222.90180611 c 2
 1614.91312286 1122.91312286 l 2
 1616.32679739 1119.32553832 1617.71047237 1115.70922641 1619.06465217 1112.06465217 c 2
 1723.5266492 1216.5266492 l 2
1706.1660802 1229.1660802 m 2
 1703.23443182 1231.23662079 1700.28552991 1233.28784416 1697.31966775 1235.31966775 c 2
 1606.07414222 1144.07414222 l 2
 1607.60815242 1140.60681755 1609.11121906 1137.10989726 1610.58384496 1133.58384496 c 2
 1706.1660802 1229.1660802 l 2
1688.3626996 1241.3626996 m 2
 1685.35685206 1243.35980573 1682.33426744 1245.33734719 1679.29524088 1247.29524088 c 2
 1596.50285672 1164.50285672 l 2
 1598.16073543 1161.15932534 1599.78673554 1157.78533847 1601.38135821 1154.38135821 c 2
 1688.3626996 1241.3626996 l 2
1670.11729059 1253.11729059 m 2
 1667.03725619 1255.04098738 1663.94098714 1256.94484543 1660.82878101 1258.82878101 c 2
 1586.1782592 1184.1782592 l 2
 1587.96348467 1180.96199996 1589.7159058 1177.71443406 1591.43602201 1174.43602201 c 2
 1670.11729059 1253.11729059 l 2
1651.42957687 1264.42957687 m 2
 1648.27518682 1266.27971191 1645.1050525 1268.10970597 1641.91947445 1269.91947445 c 2
 1575.07967577 1203.07967577 l 2
 1576.99566994 1199.99411123 1578.87794366 1196.87639788 1580.72699455 1193.72699455 c 2
 1651.42957687 1264.42957687 l 2
1632.29820032 1275.29820032 m 2
 1629.06909958 1277.07443875 1625.82473475 1278.83020386 1622.56541001 1280.56541001 c 2
 1563.1867757 1221.1867757 l 2
 1565.2369026 1218.23527055 1567.2524029 1215.25078372 1569.23377232 1212.23377232 c 2
 1632.29820032 1275.29820032 l 2
1612.72068637 1285.72068637 m 2
 1609.41632622 1287.42250377 1606.09717387 1289.10348319 1602.76353779 1290.76353779 c 2
 1550.47958086 1238.47958086 l 2
 1552.66714504 1235.66544034 1554.81918675 1232.81749487 1556.93619974 1229.93619974 c 2
 1612.72068637 1285.72068637 l 2
1592.69339602 1295.69339602 m 2
 1589.31302419 1297.3200689 1585.91832568 1298.92550428 1582.50961393 1300.50961393 c 2
 1536.93847459 1254.93847459 l 2
 1539.26671973 1252.26494307 1541.55855708 1249.55679319 1543.81447834 1246.81447834 c 2
 1592.69339602 1295.69339602 l 2
1572.21146282 1305.21146282 m 2
 1568.75411091 1306.7620565 1565.28289342 1308.29097535 1561.79812953 1309.79812953 c 2
 1522.54421012 1270.54421012 l 2
 1525.0163176 1268.01446972 1527.45114283 1265.44930767 1529.84917539 1262.84917539 c 2
 1572.21146282 1305.21146282 l 2
1551.26871316 1314.26871316 m 2
 1547.73318089 1315.74206659 1544.18424175 1317.1932666 1540.62222149 1318.62222149 c 2
 1507.2779184 1285.2779184 l 2
 1509.89700606 1282.89508772 1512.47794814 1280.47604247 1515.02123202 1278.02123202 c 2
 1551.26871316 1314.26871316 l 2
1529.85756702 1322.85756702 m 2
 1526.24240283 1324.25227407 1522.61429026 1325.62430383 1518.97356252 1326.97356252 c 2
 1491.12111545 1299.12111545 l 2
 1493.8902364 1296.88824838 1496.62035983 1294.61838441 1499.31197085 1292.31197085 c 2
 1529.85756702 1322.85756702 l 2
1507.9689162 1330.9689162 m 2
 1504.27239351 1332.28330274 1500.563383 1333.57443819 1496.84222637 1334.84222637 c 2
 1474.05570916 1312.05570916 l 2
 1476.97785068 1309.97579378 1479.86015437 1307.85811001 1482.703103 1305.703103 c 2
 1507.9689162 1330.9689162 l 2
1485.59197554 1338.59197554 m 2
 1481.81206385 1339.82407159 1478.02012954 1341.03228733 1474.21652387 1342.21652387 c 2
 1456.06400557 1324.06400557 l 2
 1459.1420881 1322.13996313 1462.17950435 1320.17739187 1465.17673469 1318.17673469 c 2
 1485.59197554 1338.59197554 l 2
1462.71410205 1345.71410205 m 2
 1458.84843176 1346.86160782 1454.97121148 1347.98454222 1451.08280332 1349.08280332 c 2
 1437.12871458 1335.12871458 l 2
 1440.3655908 1333.36339861 1443.56098438 1331.55880461 1446.71537321 1329.71537321 c 2
 1462.71410205 1345.71410205 l 2
1439.32057476 1352.32057476 m 2
 1435.36639432 1353.38081936 1431.40114714 1354.4157321 1427.42520758 1355.42520758 c 2
 1417.23295522 1345.23295522 l 2
 1420.63140919 1343.62915064 1423.98757647 1341.98533027 1427.3019324 1340.3019324 c 2
 1439.32057476 1352.32057476 l 2
1415.39432643 1358.39432643 m 2
 1411.34844994 1359.36421739 1407.29200422 1360.30793751 1403.2253775 1361.2253775 c 2
 1396.36026024 1354.36026024 l 2
 1399.92300672 1352.92068268 1403.44267493 1351.44036317 1406.9197376 1349.9197376 c 2
 1415.39432643 1358.39432643 l 2
1390.91561535 1363.91561535 m 2
 1386.77435819 1364.79157663 1382.62304781 1365.64043882 1378.4620882 1366.4620882 c 2
 1374.49458034 1362.49458034 l 2
 1378.22426407 1361.22187544 1381.91009062 1359.9077142 1385.55253006 1358.55253006 c 2
 1390.91561535 1363.91561535 l 2
1365.86162161 1368.86162161 m 2
 1361.62072088 1369.63951704 1357.37030644 1370.38928283 1353.1108002 1371.1108002 c 2
 1351.62028775 1369.62028775 l 2
 1355.51948292 1368.5170306 1359.37405482 1367.37161464 1363.18447081 1366.18447081 c 2
 1365.86162161 1368.86162161 l 2
1340.2059472 1373.2059472 m 2
 1338.47204619 1373.47529553 1336.73672109 1373.73998244 1335 1374 c 1
 1336.60725807 1373.60685774 1338.20729618 1373.20689661 1339.80014407 1372.80014407 c 2
 1340.2059472 1373.2059472 l 2
EndSplineSet
EndChar

StartChar: Q
Encoding: 81 81 11
GlifName: Q_
Width: 2320
Flags: HMW
AnchorPoint: "top" 1160 1400 basechar 0
LayerCount: 2
Fore
SplineSet
1035 212 m 1
 1188 193 1212 26 1270 -140 c 0
 1332 -317 1445 -492 1695 -492 c 0
 1893 -492 2042 -407 2071 -188 c 1
 2021 -312 1962 -352 1846 -352 c 0
 1637 -352 1509 -171 1393 -25 c 0
 1285 110 1233 216 1087 216 c 0
 1071 216 1054 215 1035 212 c 1
481 700 m 0
 481 974 563 1214 811 1364 c 1
 497 1283 171 1054 171 700 c 0
 171 346 497 117 811 36 c 1
 563 186 481 426 481 700 c 0
1700 700 m 1
 2010 700 l 1
 2010 1074 1694 1331 1340 1384 c 1
 1638 1306 1700 1034 1700 700 c 1
891 63 m 1
 964 24 1053 5 1160 5 c 0
 1177 5 1195 5 1211 6 c 1
 1172 110 1126 188 1035 188 c 0
 957 188 905 149 891 63 c 1
1160 1395 m 0
 812 1395 630 1164 630 700 c 0
 630 387 703 181 864 79 c 1
 891 188 989 238 1115 238 c 0
 1253 238 1356 160 1446 63 c 1
 1628 158 1690 370 1690 700 c 0
 1690 1164 1548 1395 1160 1395 c 0
1453 55 m 1
 1467 39 l 1
 1769 123 2010 371 2010 700 c 1
 1700 700 l 1
 1700 413 1658 163 1453 55 c 1
1486 18 m 1
 1609 -118 1728 -292 1895 -292 c 0
 2033 -292 2062 -210 2072 -66 c 1
 2092 -66 l 1
 2092 -364 1955 -502 1695 -502 c 0
 1436 -502 1320 -320 1261 -143 c 0
 1247 -100 1234 -58 1220 -19 c 1
 1200 -20 1180 -20 1160 -20 c 0
 646 -20 160 256 160 700 c 0
 160 1144 664 1420 1160 1420 c 0
 1656 1420 2160 1144 2160 700 c 0
 2160 352 1862 108 1486 18 c 1
EndSplineSet
EndChar

StartChar: A
Encoding: 65 65 12
GlifName: A_
Width: 2320
Flags: HMW
AnchorPoint: "cedilla" 1706 0 basechar 0
AnchorPoint: "bottom" 986 0 basechar 0
AnchorPoint: "top" 1090 1400 basechar 0
LayerCount: 2
Fore
SplineSet
541 465 m 1
 1275 465 l 1
 872 1018 l 1
 541 465 l 1
80 20 m 1
 120 20 l 2
 176 20 238 110 313 196 c 0
 387 281 452 371 473 404 c 2
 1090 1430 l 1
 1952 160 l 2
 1981 116 2002 100 2040 79 c 0
 2083 55 2148 20 2212 20 c 2
 2270 20 l 1
 2270 0 l 1
 1246 0 l 1
 1246 20 l 1
 1270 20 l 2
 1334 20 1399 55 1442 79 c 0
 1497 111 1509 142 1487 173 c 2
 1296 435 l 1
 523 435 l 1
 500 397 l 2
 463 336 503 261 553 188 c 0
 608 107 646 57 681 34 c 0
 691 27 707 20 736 20 c 2
 780 20 l 1
 780 0 l 1
 80 0 l 1
 80 20 l 1
2047 10 m 1
 2048 11 l 2
 2044 12 2039 12 2035 13 c 2
 2032 10 l 1
 2047 10 l 1
2017 10 m 1
 2023 16 l 2
 2019 17 2014 17 2010 18 c 2
 2002 10 l 1
 2017 10 l 1
1987 10 m 1
 1999 22 l 2
 1995 23 1991 24 1987 25 c 2
 1972 10 l 1
 1987 10 l 1
1957 10 m 1
 1975 28 l 2
 1971 29 1968 31 1964 32 c 2
 1942 10 l 1
 1957 10 l 1
1927 10 m 1
 1953 36 l 2
 1949 37 1946 39 1942 40 c 2
 1912 10 l 1
 1927 10 l 1
1897 10 m 1
 1931 44 l 2
 1927 45 1924 47 1921 49 c 2
 1882 10 l 1
 1897 10 l 1
1867 10 m 1
 1911 54 l 2
 1908 56 1903 56 1900 58 c 2
 1852 10 l 1
 1867 10 l 1
1837 10 m 1
 1890 63 l 2
 1887 65 1884 67 1881 69 c 2
 1822 10 l 1
 1837 10 l 1
1807 10 m 1
 1871 74 l 2
 1868 76 1864 77 1861 79 c 2
 1792 10 l 1
 1807 10 l 1
1777 10 m 1
 1852 85 l 2
 1849 87 1846 89 1843 91 c 2
 1762 10 l 1
 1777 10 l 1
1747 10 m 1
 1834 97 l 2
 1831 99 1828 101 1825 103 c 2
 1732 10 l 1
 1747 10 l 1
1717 10 m 1
 1817 110 l 2
 1814 112 1812 114 1809 117 c 2
 1702 10 l 1
 1717 10 l 1
1687 10 m 1
 1802 125 l 2
 1800 128 1797 130 1795 133 c 2
 1672 10 l 1
 1687 10 l 1
1657 10 m 1
 1788 141 l 2
 1786 144 1784 147 1782 150 c 2
 1642 10 l 1
 1657 10 l 1
1627 10 m 1
 1776 159 l 1
 1770 168 l 1
 1612 10 l 1
 1627 10 l 1
1597 10 m 1
 1764 177 l 1
 1758 186 l 1
 1582 10 l 1
 1597 10 l 1
1567 10 m 1
 1752 195 l 1
 1746 204 l 1
 1552 10 l 1
 1567 10 l 1
1537 10 m 1
 1740 213 l 1
 1734 222 l 1
 1522 10 l 1
 1537 10 l 1
1507 10 m 1
 1728 231 l 1
 1722 240 l 1
 1492 10 l 1
 1507 10 l 1
1477 10 m 1
 1716 249 l 1
 1710 258 l 1
 1462 10 l 1
 1477 10 l 1
1447 10 m 1
 1704 267 l 1
 1698 276 l 1
 1432 10 l 1
 1447 10 l 1
1417 10 m 1
 1692 285 l 1
 1686 294 l 1
 1402 10 l 1
 1417 10 l 1
1504 127 m 2
 1680 303 l 1
 1674 312 l 1
 1507 145 l 1
 1507 139 1506 133 1504 127 c 2
1451 74 m 2
 1448 72 1444 70 1441 68 c 0
 1433 64 1425 59 1417 55 c 2
 1372 10 l 1
 1387 10 l 1
 1451 74 l 2
1387 40 m 2
 1379 36 1370 32 1361 29 c 2
 1342 10 l 1
 1357 10 l 1
 1387 40 l 2
1504 157 m 2
 1668 321 l 1
 1662 330 l 1
 1500 168 l 2
 1502 164 1503 160 1504 157 c 2
1338 21 m 2
 1331 19 1324 17 1317 15 c 2
 1312 10 l 1
 1327 10 l 1
 1338 21 l 2
1494 177 m 2
 1656 339 l 1
 1650 348 l 1
 1488 186 l 1
 1492 181 l 2
 1493 180 1493 178 1494 177 c 2
1298 11 m 2
 1295 11 1293 10 1290 10 c 2
 1297 10 l 1
 1298 11 l 2
1482 195 m 1
 1644 357 l 1
 1638 366 l 1
 1476 204 l 1
 1482 195 l 1
1469 212 m 1
 1632 375 l 1
 1626 384 l 1
 1463 221 l 1
 1469 212 l 1
1457 230 m 1
 1620 393 l 1
 1614 402 l 1
 1450 238 l 1
 1457 230 l 1
1444 247 m 1
 1608 411 l 1
 1602 420 l 1
 1438 256 l 1
 1444 247 l 1
1431 264 m 1
 1596 429 l 1
 1590 438 l 1
 1425 273 l 1
 1431 264 l 1
1419 282 m 1
 1584 447 l 1
 1578 456 l 1
 1412 290 l 1
 1419 282 l 1
1406 299 m 1
 1572 465 l 1
 1566 474 l 1
 1400 308 l 1
 1406 299 l 1
1393 316 m 1
 1560 483 l 1
 1554 492 l 1
 1387 325 l 1
 1393 316 l 1
1381 334 m 1
 1548 501 l 1
 1542 510 l 1
 1374 342 l 1
 1381 334 l 1
1368 351 m 1
 1536 519 l 1
 1530 528 l 1
 1362 360 l 1
 1368 351 l 1
1356 369 m 1
 1524 537 l 1
 1518 546 l 1
 1349 377 l 1
 1356 369 l 1
1343 386 m 1
 1512 555 l 1
 1506 564 l 1
 1337 395 l 1
 1343 386 l 1
1330 403 m 1
 1500 573 l 1
 1494 582 l 1
 1324 412 l 1
 1330 403 l 1
1318 421 m 1
 1488 591 l 1
 1482 600 l 1
 1311 429 l 1
 1318 421 l 1
1305 438 m 1
 1476 609 l 1
 1470 618 l 1
 1299 447 l 1
 1305 438 l 1
1292 455 m 1
 1464 627 l 1
 1458 636 l 1
 1286 464 l 1
 1292 455 l 1
1280 473 m 1
 1452 645 l 1
 1446 654 l 1
 1273 481 l 1
 1280 473 l 1
1267 490 m 1
 1440 663 l 1
 1434 672 l 1
 1261 499 l 1
 1267 490 l 1
1254 507 m 1
 1428 681 l 1
 1422 690 l 1
 1248 516 l 1
 1254 507 l 1
1242 525 m 1
 1416 699 l 1
 1410 708 l 1
 1235 533 l 1
 1242 525 l 1
1229 542 m 1
 1404 717 l 1
 1398 726 l 1
 1223 551 l 1
 1229 542 l 1
1217 560 m 1
 1392 735 l 1
 1386 744 l 1
 1210 568 l 1
 1217 560 l 1
1204 577 m 1
 1380 753 l 1
 1374 762 l 1
 1198 586 l 1
 1204 577 l 1
1191 594 m 1
 1368 771 l 1
 1362 780 l 1
 1185 603 l 1
 1191 594 l 1
1179 612 m 1
 1356 789 l 1
 1350 798 l 1
 1172 620 l 1
 1179 612 l 1
547 10 m 1
 551 14 l 2
 548 16 546 18 543 21 c 2
 532 10 l 1
 547 10 l 1
1166 629 m 1
 1344 807 l 1
 1338 816 l 1
 1160 638 l 1
 1166 629 l 1
517 10 m 1
 535 28 l 2
 533 30 530 33 528 36 c 2
 502 10 l 1
 517 10 l 1
1153 646 m 1
 1332 825 l 1
 1326 834 l 1
 1147 655 l 1
 1153 646 l 1
487 10 m 1
 522 45 l 2
 520 48 517 50 515 53 c 2
 472 10 l 1
 487 10 l 1
1141 664 m 1
 1320 843 l 1
 1314 852 l 1
 1134 672 l 1
 1141 664 l 1
457 10 m 1
 509 62 l 2
 507 65 505 68 503 71 c 2
 442 10 l 1
 457 10 l 1
1128 681 m 1
 1309 862 l 1
 1303 871 l 1
 1122 690 l 1
 1128 681 l 1
427 10 m 1
 497 80 l 2
 495 83 494 87 492 90 c 2
 412 10 l 1
 427 10 l 1
1115 698 m 1
 1297 880 l 1
 1291 889 l 1
 1109 707 l 1
 1115 698 l 1
397 10 m 1
 487 100 l 2
 485 103 484 107 482 110 c 2
 382 10 l 1
 397 10 l 1
1103 716 m 1
 1285 898 l 1
 1279 907 l 1
 1096 724 l 1
 1103 716 l 1
367 10 m 1
 477 120 l 2
 475 123 474 126 472 130 c 2
 352 10 l 1
 367 10 l 1
1090 733 m 1
 1273 916 l 1
 1267 925 l 1
 1084 742 l 1
 1090 733 l 1
337 10 m 1
 468 141 l 2
 467 145 465 148 464 152 c 2
 322 10 l 1
 337 10 l 1
1078 751 m 1
 1261 934 l 1
 1255 943 l 1
 1071 759 l 1
 1078 751 l 1
307 10 m 1
 460 163 l 2
 459 167 457 170 456 174 c 2
 292 10 l 1
 307 10 l 1
1065 768 m 1
 1249 952 l 1
 1243 961 l 1
 1059 777 l 1
 1065 768 l 1
277 10 m 1
 452 185 l 2
 451 189 449 192 448 196 c 2
 262 10 l 1
 277 10 l 1
1052 785 m 1
 1237 970 l 1
 1231 979 l 1
 1046 794 l 1
 1052 785 l 1
247 10 m 1
 445 208 l 2
 444 212 442 215 441 219 c 2
 232 10 l 1
 247 10 l 1
1040 803 m 1
 1225 988 l 1
 1219 997 l 1
 1033 811 l 1
 1040 803 l 1
217 10 m 1
 438 231 l 2
 437 235 436 239 435 243 c 2
 202 10 l 1
 217 10 l 1
1027 820 m 1
 1213 1006 l 1
 1207 1015 l 1
 1021 829 l 1
 1027 820 l 1
187 10 m 1
 432 255 l 2
 431 259 430 264 430 268 c 2
 172 10 l 1
 187 10 l 1
1014 837 m 1
 1201 1024 l 1
 1195 1033 l 1
 1008 846 l 1
 1014 837 l 1
220 73 m 2
 430 283 l 2
 430 288 430 293 431 299 c 2
 307 175 l 2
 277 139 248 103 220 73 c 2
194 47 m 2
 177 32 161 20 146 14 c 1
 142 10 l 1
 157 10 l 1
 194 47 l 2
1002 855 m 1
 1189 1042 l 1
 1183 1051 l 1
 995 863 l 1
 1002 855 l 1
146 14 m 1
 146 14 l 1
 146 14 l 1
146 14 m 1
 139 11 132 10 125 10 c 2
 127 10 l 2
 133 10 139 11 146 14 c 1
386 269 m 2
 435 318 l 2
 437 325 438 331 441 339 c 2
 429 327 l 2
 418 311 405 293 386 269 c 2
989 872 m 1
 1177 1060 l 1
 1171 1069 l 1
 983 881 l 1
 989 872 l 1
976 889 m 1
 1165 1078 l 1
 1159 1087 l 1
 970 898 l 1
 976 889 l 1
964 907 m 1
 1153 1096 l 1
 1147 1105 l 1
 957 915 l 1
 964 907 l 1
951 924 m 1
 1141 1114 l 1
 1135 1123 l 1
 945 933 l 1
 951 924 l 1
938 942 m 1
 1129 1132 l 1
 1123 1141 l 1
 932 950 l 1
 938 942 l 1
926 959 m 1
 1117 1150 l 1
 1111 1159 l 1
 920 968 l 1
 926 959 l 1
913 976 m 1
 1105 1168 l 1
 1099 1177 l 1
 907 985 l 1
 913 976 l 1
901 994 m 1
 1093 1186 l 1
 1087 1195 l 1
 894 1002 l 1
 901 994 l 1
888 1011 m 1
 1081 1204 l 1
 1075 1213 l 1
 882 1020 l 1
 888 1011 l 1
883 1036 m 1
 1069 1222 l 1
 1063 1231 l 1
 906 1074 l 1
 883 1036 l 1
929 1112 m 1
 1057 1240 l 1
 1051 1249 l 1
 951 1149 l 1
 929 1112 l 1
974 1187 m 1
 1045 1258 l 1
 1039 1267 l 1
 997 1225 l 1
 974 1187 l 1
1019 1262 m 1
 1033 1276 l 1
 1030 1280 l 1
 1019 1262 l 1
EndSplineSet
EndChar

StartChar: R
Encoding: 82 82 13
GlifName: R_
Width: 2340
Flags: HMW
AnchorPoint: "cedilla" 594 0 basechar 0
AnchorPoint: "bottom" 1246 0 basechar 0
AnchorPoint: "top" 1044 1400 basechar 0
LayerCount: 2
Fore
SplineSet
806 1370 m 1
 806 678 l 1
 1354 678 l 2
 1506 678 1614 796 1614 1024 c 0
 1614 1252 1506 1370 1354 1370 c 2
 806 1370 l 1
1130 20 m 1
 1130 0 l 1
 80 0 l 1
 80 20 l 1
 161 29 211 39 276 65 c 0
 376 104 404 120 404 175 c 2
 404 1225 l 2
 404 1280 376 1296 276 1335 c 0
 211 1361 161 1371 80 1380 c 1
 80 1400 l 1
 525 1400 969 1400 1414 1400 c 0
 1776 1400 2054 1284 2054 1024 c 0
 2054 764 1776 648 1414 648 c 2
 1229 648 l 1
 1385 592 1560 575 1727 575 c 1
 1982 160 l 2
 2005 123 2043 102 2080 79 c 0
 2123 53 2188 20 2242 20 c 2
 2300 20 l 1
 2300 0 l 1
 2073 0 1847 0 1620 0 c 1
 1565 23 1521 68 1457 173 c 2
 1260 500 l 2
 1226 555 1189 611 1151 648 c 1
 806 648 l 1
 806 175 l 2
 806 120 834 104 934 65 c 0
 999 39 1049 29 1130 20 c 1
1904 1024 m 0
 1904 1278 1628 1371 1374 1384 c 1
 1529 1360 1624 1240 1624 1024 c 0
 1624 810 1532 690 1374 666 c 1
 1608 669 1904 760 1904 1024 c 0
1162 648 m 1
 1200 611 1238 555 1272 500 c 2
 1469 173 l 2
 1519 90 1577 30 1622 10 c 1
 2150 10 l 1
 2053 29 2006 39 1940 69 c 0
 1900 87 1858 101 1822 160 c 2
 1568 570 l 1
 1451 579 1321 600 1162 648 c 1
713 86 m 2
 716 84 719 82 722 80 c 2
 656 14 l 1
 652 10 l 1
 656 10 l 1
 667 10 l 1
 732 75 l 2
 735 74 737 73 740 72 c 1
 726 78 715 85 704 92 c 1
 656 44 l 1
 622 10 l 1
 637 10 l 1
 656 29 l 1
 713 86 l 2
877 10 m 1
 885 18 l 2
 886 18 887 17 888 17 c 1
 883 19 879 20 874 22 c 1
 862 10 l 1
 877 10 l 1
896 14 m 2
 892 10 l 1
 900 10 l 1
 900 13 l 2
 899 13 897 14 896 14 c 2
863 26 m 2
 859 27 856 29 852 30 c 2
 832 10 l 1
 847 10 l 1
 863 26 l 2
817 10 m 1
 840 33 l 2
 843 32 847 31 850 30 c 1
 843 32 836 35 829 37 c 1
 802 10 l 1
 817 10 l 1
818 41 m 1
 811 43 806 46 799 48 c 1
 802 47 804 46 807 45 c 2
 772 10 l 1
 787 10 l 1
 818 41 l 1
829 37 m 1
 826 38 822 40 819 41 c 1
 822 40 826 38 829 37 c 1
796 49 m 2
 792 50 789 52 785 53 c 2
 742 10 l 1
 757 10 l 1
 796 49 l 2
727 10 m 1
 774 57 l 2
 775 57 776 56 777 56 c 1
 770 59 763 61 757 64 c 1
 759 63 762 63 764 62 c 2
 712 10 l 1
 727 10 l 1
783 54 m 1
 781 55 780 55 778 56 c 1
 780 55 781 55 783 54 c 1
753 66 m 2
 749 68 746 69 743 71 c 2
 682 10 l 1
 697 10 l 1
 753 66 l 2
695 98 m 2
 692 100 690 103 687 105 c 2
 656 74 l 1
 592 10 l 1
 607 10 l 1
 656 59 l 1
 695 98 l 2
703 92 m 1
 702 93 700 94 699 95 c 1
 700 94 702 93 703 92 c 1
656 89 m 1
 679 112 l 2
 681 110 684 107 686 105 c 1
 681 110 676 115 672 121 c 1
 672 120 l 2
 656 104 l 1
 562 10 l 1
 577 10 l 1
 656 89 l 1
667 130 m 2
 665 133 663 136 662 140 c 2
 656 134 l 1
 532 10 l 1
 547 10 l 1
 656 119 l 1
 667 130 l 2
658 151 m 1
 656 158 656 167 656 175 c 1
 656 171 656 167 656 164 c 2
 656 164 l 1
 502 10 l 1
 517 10 l 1
 656 149 l 1
 658 151 l 1
659 149 m 1
 659 147 660 146 661 144 c 1
 660 146 659 147 659 149 c 1
487 10 m 1
 656 179 l 1
 656 194 l 1
 472 10 l 1
 487 10 l 1
457 10 m 1
 656 209 l 1
 656 224 l 1
 442 10 l 1
 457 10 l 1
427 10 m 1
 656 239 l 1
 656 254 l 1
 412 10 l 1
 427 10 l 1
397 10 m 1
 656 269 l 1
 656 284 l 1
 382 10 l 1
 397 10 l 1
367 10 m 1
 656 299 l 1
 656 314 l 1
 352 10 l 1
 367 10 l 1
337 10 m 1
 656 329 l 1
 656 344 l 1
 322 10 l 1
 337 10 l 1
307 10 m 1
 656 359 l 1
 656 374 l 1
 292 10 l 1
 307 10 l 1
383 106 m 1
 397 117 405 128 410 143 c 1
 656 389 l 1
 656 404 l 1
 413 161 l 1
 411 137 402 121 383 106 c 1
357 90 m 1
 338 80 312 69 281 57 c 0
 280 57 279 56 278 56 c 2
 232 10 l 1
 247 10 l 1
 302 65 l 2
 311 69 320 73 328 76 c 2
 262 10 l 1
 277 10 l 1
 357 90 l 1
414 177 m 1
 656 419 l 1
 656 434 l 1
 414 192 l 1
 414 177 l 1
274 54 m 1
 259 48 245 43 231 39 c 1
 202 10 l 1
 217 10 l 1
 254 47 l 2
 261 49 267 51 274 54 c 1
414 207 m 1
 656 449 l 1
 656 464 l 1
 414 222 l 1
 414 207 l 1
215 34 m 1
 220 35 224 38 229 39 c 1
 224 38 220 35 215 34 c 1
210 33 m 1
 202 31 194 29 185 27 c 1
 187 27 188 28 190 28 c 2
 172 10 l 1
 187 10 l 1
 210 33 l 1
414 237 m 1
 656 479 l 1
 656 494 l 1
 414 252 l 1
 414 237 l 1
175 25 m 1
 168 23 160 21 152 20 c 1
 142 10 l 1
 157 10 l 1
 171 24 l 2
 172 24 174 25 175 25 c 1
414 267 m 1
 656 509 l 1
 656 524 l 1
 414 282 l 1
 414 267 l 1
146 19 m 1
 134 17 122 16 109 14 c 1
 112 14 114 15 117 15 c 2
 112 10 l 1
 127 10 l 1
 134 17 l 2
 138 18 142 18 146 19 c 1
414 297 m 1
 656 539 l 1
 656 554 l 1
 414 312 l 1
 414 297 l 1
414 327 m 1
 656 569 l 1
 656 584 l 1
 414 342 l 1
 414 327 l 1
414 357 m 1
 656 599 l 1
 656 614 l 1
 414 372 l 1
 414 357 l 1
414 387 m 1
 656 629 l 1
 656 644 l 1
 414 402 l 1
 414 387 l 1
414 417 m 1
 656 659 l 1
 656 674 l 1
 414 432 l 1
 414 417 l 1
414 447 m 1
 656 689 l 1
 656 704 l 1
 414 462 l 1
 414 447 l 1
414 477 m 1
 656 719 l 1
 656 734 l 1
 414 492 l 1
 414 477 l 1
414 507 m 1
 656 749 l 1
 656 764 l 1
 414 522 l 1
 414 507 l 1
414 537 m 1
 656 779 l 1
 656 794 l 1
 414 552 l 1
 414 537 l 1
414 567 m 1
 656 809 l 1
 656 824 l 1
 414 582 l 1
 414 567 l 1
414 597 m 1
 656 839 l 1
 656 854 l 1
 414 612 l 1
 414 597 l 1
414 627 m 1
 656 869 l 1
 656 884 l 1
 414 642 l 1
 414 627 l 1
414 657 m 1
 656 899 l 1
 656 914 l 1
 414 672 l 1
 414 657 l 1
414 687 m 1
 656 929 l 1
 656 944 l 1
 414 702 l 1
 414 687 l 1
414 717 m 1
 656 959 l 1
 656 974 l 1
 414 732 l 1
 414 717 l 1
414 747 m 1
 656 989 l 1
 656 1004 l 1
 414 762 l 1
 414 747 l 1
414 777 m 1
 656 1019 l 1
 656 1034 l 1
 414 792 l 1
 414 777 l 1
414 807 m 1
 656 1049 l 1
 656 1064 l 1
 414 822 l 1
 414 807 l 1
414 837 m 1
 656 1079 l 1
 656 1094 l 1
 414 852 l 1
 414 837 l 1
414 867 m 1
 656 1109 l 1
 656 1124 l 1
 414 882 l 1
 414 867 l 1
414 897 m 1
 656 1139 l 1
 656 1154 l 1
 414 912 l 1
 414 897 l 1
414 927 m 1
 656 1169 l 1
 656 1184 l 1
 414 942 l 1
 414 927 l 1
414 957 m 1
 656 1199 l 1
 656 1214 l 1
 414 972 l 1
 414 957 l 1
414 987 m 1
 656 1229 l 1
 656 1244 l 1
 414 1002 l 1
 414 987 l 1
414 1017 m 1
 656 1259 l 1
 656 1274 l 1
 414 1032 l 1
 414 1017 l 1
414 1047 m 1
 656 1289 l 1
 656 1304 l 1
 414 1062 l 1
 414 1047 l 1
414 1077 m 1
 656 1319 l 1
 656 1334 l 1
 414 1092 l 1
 414 1077 l 1
414 1107 m 1
 656 1349 l 1
 656 1364 l 1
 414 1122 l 1
 414 1107 l 1
414 1137 m 1
 656 1379 l 1
 656 1390 l 1
 652 1390 l 1
 414 1152 l 1
 414 1137 l 1
414 1167 m 1
 637 1390 l 1
 622 1390 l 1
 414 1182 l 1
 414 1167 l 1
414 1197 m 1
 607 1390 l 1
 592 1390 l 1
 414 1212 l 1
 414 1197 l 1
414 1225 m 1
 414 1226 414 1226 414 1227 c 2
 577 1390 l 1
 562 1390 l 1
 413 1241 l 2
 413 1243 412 1245 412 1247 c 1
 413 1240 414 1233 414 1225 c 1
411 1254 m 1
 547 1390 l 1
 532 1390 l 1
 407 1265 l 2
 406 1266 406 1267 405 1268 c 1
 407 1263 410 1259 411 1254 c 1
401 1274 m 1
 517 1390 l 1
 502 1390 l 1
 395 1283 l 2
 393 1286 390 1288 387 1290 c 2
 487 1390 l 1
 472 1390 l 1
 379 1297 l 1
 389 1290 396 1282 401 1274 c 1
375 1300 m 1
 373 1301 372 1302 370 1303 c 2
 457 1390 l 1
 442 1390 l 1
 360 1308 l 1
 365 1305 371 1303 375 1300 c 1
351 1314 m 2
 427 1390 l 1
 412 1390 l 1
 340 1318 l 2
 344 1316 348 1316 351 1314 c 2
330 1323 m 2
 397 1390 l 1
 382 1390 l 1
 320 1328 l 2
 324 1326 327 1324 330 1323 c 2
335 1321 m 1
 334 1321 332 1322 331 1322 c 1
 332 1322 334 1321 335 1321 c 1
318 1328 m 1
 315 1329 312 1331 309 1332 c 2
 367 1390 l 1
 352 1390 l 1
 298 1336 l 1
 305 1333 312 1331 318 1328 c 1
288 1341 m 2
 337 1390 l 1
 322 1390 l 1
 277 1345 l 2
 273 1346 270 1348 266 1349 c 2
 307 1390 l 1
 292 1390 l 1
 255 1353 l 1
 264 1350 272 1347 281 1343 c 0
 283 1342 286 1342 288 1341 c 2
244 1357 m 2
 277 1390 l 1
 262 1390 l 1
 232 1360 l 2
 236 1359 240 1358 244 1357 c 2
221 1364 m 2
 247 1390 l 1
 232 1390 l 1
 209 1367 l 2
 213 1366 217 1365 221 1364 c 2
230 1361 m 1
 227 1362 224 1363 221 1364 c 1
 224 1363 227 1362 230 1361 c 1
197 1370 m 2
 217 1390 l 1
 202 1390 l 1
 185 1373 l 2
 185 1373 l 1
 189 1372 193 1371 197 1370 c 2
207 1368 m 1
 206 1368 205 1369 203 1369 c 1
 205 1369 206 1368 207 1368 c 1
173 1376 m 2
 187 1390 l 1
 172 1390 l 1
 160 1378 l 2
 164 1377 169 1377 173 1376 c 2
147 1380 m 2
 157 1390 l 1
 142 1390 l 1
 135 1383 l 2
 139 1382 143 1381 147 1380 c 2
157 1379 m 1
 155 1379 153 1380 151 1380 c 1
 153 1380 155 1379 157 1379 c 1
125 1384 m 1
 124 1384 122 1384 121 1384 c 2
 127 1390 l 1
 112 1390 l 1
 108 1386 l 2
 105 1386 103 1387 100 1387 c 1
 109 1386 117 1385 125 1384 c 1
EndSplineSet
EndChar

StartChar: V
Encoding: 86 86 14
GlifName: V_
Width: 2290
Flags: HMW
AnchorPoint: "bottom" 1231 0 basechar 0
AnchorPoint: "top" 1234 1400 basechar 0
LayerCount: 2
Back
SplineSet
2240 1380 m 1
 2200 1380 l 2
 2144.265625 1380 2081.99121094 1290.09179688 2006.953125 1204 c 0
 1933.03710938 1119.1953125 1867.62890625 1028.85351562 1847 996 c 2
 1846.97851562 996.20703125 l 1
 1230 -30 l 1
 1230 20 l 1
 1819.83300781 1003.18359375 l 2
 1856.40429688 1064.14453125 1817.10644531 1139.28808594 1767.29199219 1212 c 0
 1711.84960938 1292.92675781 1674.45605469 1343.23339844 1639.2578125 1366 c 0
 1629.20703125 1372.50097656 1613 1380 1584 1380 c 2
 1540 1380 l 1
 1540 1400 l 1
 2240 1400 l 1
 2240 1380 l 1
1470 399 m 1
 1230 -30 l 1
 368 1240 l 2
 339 1284 318.236328125 1299.76660156 280.291992188 1321 c 0
 237.365234375 1345.02148438 172.024414062 1380 108 1380 c 2
 50 1380 l 1
 50 1400 l 1
 260 1400 l 1
 760 1400 l 1
 884.666992188 1400 1009.33300781 1400 1134 1400 c 1
 1134 1380 l 1
 1110 1380 l 2
 1045.97558594 1380 980.365234375 1345.49707031 937.708007812 1321 c 0
 882.682617188 1289.40039062 870.893554688 1257.98535156 892.563476562 1226.91503906 c 2
 1470 399 l 1
EndSplineSet
Fore
SplineSet
1221 6 m 5
 1374 260 l 5
 693 1219 l 6
 657.831054688 1267.32128906 697.034179688 1306.75097656 755 1333 c 4
 808 1357 881 1380 945 1390 c 13
 133 1390 l 5
 195 1377 240.899414062 1352.81835938 284 1329 c 4
 322 1308 349.092773438 1285.0625 379 1241 c 6
 1221 6 l 5
1844 1027 m 1
 1856.81855646 1055.38394645 1940.58394432 1353.0474478 1980 1390 c 9
 1629 1390 l 1
 1668.50878906 1370.19628906 1726.67480469 1296.56738281 1781 1212 c 0
 1828.53125 1138.0078125 1859 1078 1844 1027 c 1
2240 1380 m 1
 2200 1380 l 2
 2144 1380 2082 1290 2007 1204 c 0
 1933 1119 1868 1029 1847 996 c 2
 1230 -30 l 1
 368 1240 l 2
 339 1284 318 1300 280 1321 c 0
 237 1345 172 1380 108 1380 c 2
 50 1380 l 1
 50 1400 l 1
 1084 1400 l 1
 1084 1380 l 1
 1060 1380 l 2
 996 1380 931 1345 888 1321 c 0
 833 1289 821 1258 843 1227 c 2
 1444 377 l 1
 1820 1003 l 2
 1857 1064 1817 1139 1767 1212 c 0
 1712 1293 1674 1343 1639 1366 c 0
 1629 1373 1613 1380 1584 1380 c 2
 1540 1380 l 1
 1540 1400 l 1
 2240 1400 l 1
 2240 1380 l 1
EndSplineSet
EndChar

StartChar: M
Encoding: 77 77 15
GlifName: M_
Width: 2600
Flags: HMW
AnchorPoint: "bottom" 1176 0 basechar 0
AnchorPoint: "top" 1234 1400 basechar 0
LayerCount: 2
Fore
SplineSet
373 325 m 1
 362 284 337.072265625 230.936523438 293 166 c 0
 228.918945312 71.5830078125 211 25 145 10 c 9
 436 10 l 17
 409.358398438 65.9775390625 385.569335938 210.52734375 373 325 c 1
1172 39 m 5
 1293 284 l 5
 556 1390 l 21
 116 1390 l 5
 190 1378 237 1351 280 1327 c 4
 318 1306 344.89427103 1282.26611467 379 1231 c 6
 1172 39 l 5
2336 1387 m 1
 2336 1390 l 1
 2336 1387 1850 1390 1850 1390 c 9
 1850 175 l 2
 1850 143 1836.77044011 123.301056504 1748 67 c 0
 1694.3605407 32.9801367981 1648 20 1606 13 c 1
 1606 10 l 1
 2336 10 l 1
 2336 13 l 1
 2284 31 2252 41 2214 56 c 0
 2136 87 2092 113 2092 175 c 2
 2092 1225 l 2
 2092 1287 2136 1313 2214 1344 c 0
 2252 1359 2284 1369 2336 1387 c 1
80 1380 m 1
 80 1400 l 1
 730 1400 l 1
 1363 446 l 1
 1840 1400 l 1
 2066.66666667 1400 2293.33333333 1400 2520 1400 c 1
 2520 1380 l 1
 2498 1380 l 2
 2437 1380 2381 1352 2338 1326 c 0
 2301 1303 2240 1265 2240 1225 c 2
 2240 175 l 2
 2240 135 2301 97 2338 74 c 0
 2381 48 2437 20 2498 20 c 2
 2520 20 l 1
 2520 0 l 1
 1560 0 l 1
 1560 20 l 1
 1582 20 l 2
 1643 20 1699 48 1742 74 c 0
 1779 97 1840 135 1840 175 c 2
 1840 1329 l 1
 1180 0 l 1
 390 1196 l 1
 390 335 l 2
 390 315 394 301 401 286 c 0
 421 241 476 154 498 122 c 0
 535 68 564 25 611 23 c 2
 670 20 l 1
 670 0 l 1
 80 0 l 1
 80 20 l 1
 139 23 l 2
 186 25 215 68 252 122 c 0
 274 154 329 241 349 286 c 0
 356 301 360 315 360 335 c 2
 360 1240 l 1
 330 1280 310 1300 272 1321 c 0
 229 1345 164 1380 100 1380 c 2
 80 1380 l 1
EndSplineSet
EndChar

StartChar: W
Encoding: 87 87 16
GlifName: W_
Width: 3160
Flags: HMW
AnchorPoint: "bottom" 1646 0 basechar 0
AnchorPoint: "top" 1704 1400 basechar 0
LayerCount: 2
Back
SplineSet
1866 1400 m 1
 1866 1350 l 1
 1190 -30 l 1
 1190 20 l 1
 1866 1400 l 1
1406 424 m 1
 1190 -30 l 1
 368 1240 l 2
 339 1284 318.236328125 1299.76660156 280.291992188 1321 c 0
 237.365234375 1345.02148438 172.024414062 1380 108 1380 c 2
 50 1380 l 1
 50 1400 l 1
 260 1400 l 1
 760 1400 l 1
 884.666992188 1400 1009.33300781 1400 1134 1400 c 1
 1134 1380 l 1
 1110 1380 l 2
 1045.97558594 1380 980.365234375 1345.49707031 937.708007812 1321 c 0
 882.682617188 1289.40039062 870.893554688 1257.98535156 892.563476562 1226.91503906 c 2
 1406 424 l 1
3130 1380 m 1
 3090 1380 l 2
 3034.265625 1380 2971.99121094 1290.09179688 2896.953125 1204 c 0
 2823.03710938 1119.1953125 2757.62890625 1028.85351562 2737 996 c 2
 2736.97851562 996.20703125 l 1
 2220 -30 l 1
 2220 20 l 1
 2709.83300781 1003.18359375 l 2
 2746.40429688 1064.14453125 2707.10644531 1139.28808594 2657.29199219 1212 c 0
 2601.84960938 1292.92675781 2564.45605469 1343.23339844 2529.2578125 1366 c 0
 2519.20703125 1372.50097656 2503 1380 2474 1380 c 2
 2430 1380 l 1
 2430 1400 l 1
 3130 1400 l 1
 3130 1380 l 1
1866 1400 m 1
 2440 430 l 1
 2220 -30 l 1
 1631 890 l 1
 1866 1400 l 1
EndSplineSet
Fore
SplineSet
1614 932 m 5
 2163 4 l 5
 2297 268 l 5
 1755 1221 l 5
 1614 932 l 5
2682 1027 m 1
 2692.9256527 1053.05347951 2784.76362448 1354.15339795 2823 1390 c 9
 2462 1390 l 1
 2501.50878906 1377.19628906 2564.67480469 1296.56738281 2619 1212 c 0
 2666.53125 1138.0078125 2697 1078 2682 1027 c 1
1134 1 m 1
 1268 270 l 1
 693 1219 l 2
 658 1267 697 1307 755 1333 c 0
 808 1357 881 1380 945 1390 c 9
 133 1390 l 1
 195 1377 241 1353 284 1329 c 0
 322 1308 349 1285 379 1241 c 2
 1134 1 l 1
3080 1380 m 1
 3040 1380 l 2
 2984 1380 2922 1290 2847 1204 c 0
 2773 1119 2708 1029 2687 996 c 1
 2170 -30 l 1
 1606 921 l 1
 1140 -30 l 1
 368 1240 l 1
 339 1284 318 1300 280 1321 c 0
 237 1345 172 1380 108 1380 c 2
 50 1380 l 1
 50 1400 l 1
 1084 1400 l 1
 1084 1380 l 1
 1060 1380 l 2
 996 1380 931 1345 888 1321 c 0
 833 1289 821 1258 843 1227 c 1
 1326 400 l 1
 1816 1400 l 1
 2362 405 l 1
 2660 1003 l 1
 2697 1064 2657 1139 2607 1212 c 0
 2552 1293 2514 1343 2479 1366 c 0
 2469 1373 2453 1380 2424 1380 c 2
 2380 1380 l 1
 2380 1400 l 1
 3080 1400 l 1
 3080 1380 l 1
EndSplineSet
EndChar

StartChar: N
Encoding: 78 78 17
GlifName: N_
Width: 2154
Flags: HMW
AnchorPoint: "bottom" 1107 0 basechar 0
AnchorPoint: "top" 1135 1400 basechar 0
LayerCount: 2
Fore
SplineSet
1804 -48 m 5
 1804 246 l 5
 556 1390 l 5
 116 1390 l 5
 153.418912972 1387.95516131 226.331054688 1351.67773438 273 1314.12304688 c 4
 318.51171875 1277.49902344 413.6875 1210.30957031 457 1171 c 6
 1804 -48 l 5
1817 1075 m 1
 1829.56933594 1189.47265625 1853.35839844 1334.02246094 1880 1390 c 9
 1589 1390 l 17
 1655 1375 1672.91894531 1328.41699219 1737 1234 c 0
 1781.07226562 1169.06347656 1806 1116 1817 1075 c 1
433 325 m 1
 422 284 397.072265625 230.936523438 353 166 c 0
 288.918945312 71.5830078125 271 25 205 10 c 9
 496 10 l 17
 469.358398438 65.9775390625 445.569335938 210.52734375 433 325 c 1
80 1380 m 1
 80 1400 l 1
 760 1400 l 1
 1804 477 l 1
 1804 1065 l 2
 1804 1085 1800 1099 1793 1114 c 0
 1773 1159 1718 1246 1696 1278 c 0
 1659 1332 1630 1375 1583 1377 c 2
 1524 1380 l 1
 1524 1400 l 1
 2114 1400 l 1
 2114 1380 l 1
 2055 1377 l 2
 2008 1375 1979 1332 1942 1278 c 0
 1920 1246 1865 1159 1845 1114 c 0
 1838 1099 1834 1085 1834 1065 c 2
 1834 -90 l 1
 450 1161 l 1
 450 335 l 2
 450 315 454 301 461 286 c 0
 481 241 536 154 558 122 c 0
 595 68 624 25 671 23 c 2
 730 20 l 1
 730 0 l 1
 140 0 l 1
 140 20 l 1
 199 23 l 2
 246 25 275 68 312 122 c 0
 334 154 389 241 409 286 c 0
 416 301 420 315 420 335 c 2
 420 1184 l 1
 272 1301 l 2
 234 1332 164 1380 100 1380 c 2
 80 1380 l 1
EndSplineSet
EndChar

StartChar: X
Encoding: 88 88 19
GlifName: X_
Width: 2350
Flags: HMW
AnchorPoint: "bottom" 1086 0 basechar 0
AnchorPoint: "top" 1184 1400 basechar 0
LayerCount: 2
Fore
SplineSet
1565 1183 m 5
 1586 1210 1633.5583137 1263.61275915 1666 1294 c 4
 1693.66503906 1319.91308594 1742 1365 1778 1390 c 13
 1367 1390 l 5
 1415.50878906 1377.19628906 1438.71484375 1373.28320312 1501 1309 c 4
 1557.09394149 1251.10661975 1571 1206 1565 1183 c 5
683 284 m 1
 632 239 504.351579648 150.097861206 467 126 c 0
 380.334960938 70.0869140625 272 27 226 10 c 1
 733 10 l 1
 706.491210938 24.8037109375 674 60 674 146 c 0
 674 213.564453125 678 253 683 284 c 1
713 1219 m 2
 672 1262 717 1307 775 1333 c 0
 828 1357 901 1380 965 1390 c 1
 133 1390 l 1
 215 1376 245.496120244 1356.08078515 290 1335 c 0
 328 1317 381.27734375 1285.54785156 418 1247 c 2
 1424 182 l 2
 1462.40206643 141.53453896 1425 104 1377 70 c 0
 1329.5234375 36.3701171875 1279 20 1215 10 c 1
 2037 10 l 1
 1965 23 1884.95117188 50.890625 1840 71 c 0
 1802 88 1757.72265625 120.452148438 1721 159 c 2
 713 1219 l 2
1942 160 m 2
 1977 123 2031 92 2090 64 c 0
 2163 29 2196 25 2270 20 c 1
 2270 0 l 1
 1186 0 l 1
 1186 20 l 1
 1270 22 1332 51 1372 79 c 0
 1417 111 1442 146 1417 173 c 2
 1038 575 l 1
 705 283 l 2
 687 267 738 181 783 134 c 0
 842 72 922 24 986 20 c 1
 986 0 l 1
 212 0 l 1
 212 20 l 1
 248 24 374 79 462 135 c 0
 538 183 630 252 681 300 c 1
 1018 596 l 1
 408 1241 l 2
 373 1278 319 1309 260 1337 c 0
 187 1372 154 1376 80 1381 c 1
 80 1401 l 1
 1164 1401 l 1
 1164 1381 l 1
 1080 1379 1018 1350 978 1322 c 0
 933 1290 908 1255 933 1228 c 2
 1237 906 l 1
 1551 1187 l 2
 1569 1203 1538 1259 1493 1306 c 0
 1434 1368 1404 1376 1340 1380 c 1
 1340 1400 l 1
 1974 1400 l 1
 1974 1380 l 1
 1938 1376 1864 1337 1784 1295 c 0
 1717 1259 1626 1218 1575 1170 c 1
 1256 885 l 1
 1942 160 l 2
EndSplineSet
EndChar

StartChar: K
Encoding: 75 75 20
GlifName: K_
Width: 2457
Flags: HMW
AnchorPoint: "cedilla" 1226 0 basechar 0
AnchorPoint: "bottom" 1226 0 basechar 0
AnchorPoint: "top" 1174 1400 basechar 0
LayerCount: 2
Fore
SplineSet
1130 1380 m 1
 1049 1371 999 1361 934 1335 c 0
 834 1295 806 1280 806 1225 c 2
 806 547 l 1
 1658 1227 l 2
 1689 1252 1656 1286 1610 1318 c 0
 1568 1347 1511 1371 1427 1380 c 1
 1427 1400 l 1
 2061 1400 l 1
 2061 1380 l 1
 2015 1376 1971 1358 1891 1325 c 0
 1831 1300 1737 1254 1682 1210 c 2
 1351 945 l 1
 2079 160 l 2
 2114 122 2168 92 2227 64 c 0
 2300 29 2333 25 2407 20 c 1
 2407 0 l 1
 1293 0 l 1
 1293 20 l 1
 1377 22 1439 51 1479 79 c 0
 1524 111 1550 148 1524 173 c 2
 1008 671 l 1
 806 509 l 1
 806 175 l 2
 806 120 834 104 934 65 c 0
 999 39 1049 29 1130 20 c 1
 1130 0 l 1
 80 0 l 1
 80 20 l 1
 161 29 211 39 276 65 c 0
 376 104 404 120 404 175 c 2
 404 1225 l 2
 404 1280 376 1296 276 1335 c 0
 211 1361 161 1371 80 1380 c 1
 80 1400 l 1
 1130 1400 l 1
 1130 1380 l 1
1220 846 m 1
 1017 678 l 1
 1532 181 l 2
 1565 150 1538 108 1486 72 c 0
 1443 42 1394 20 1320 10 c 1
 2142 10 l 1
 2078 20 2013 45 1970 69 c 0
 1932 90 1908 112 1872 150 c 2
 1220 846 l 1
1677 1235 m 1
 1698 1252 1734 1286 1768 1314 c 0
 1796 1337 1832 1365 1868 1390 c 1
 1457 1390 l 1
 1524 1375 1567 1359 1616 1325 c 0
 1672 1287 1690 1256 1677 1235 c 1
837 35 m 2
 841 34 844 32 848 31 c 2
 827 10 l 1
 842 10 l 1
 859 27 l 1
 847 31 836 34 825 38 c 1
 797 10 l 1
 812 10 l 1
 837 35 l 2
792 50 m 2
 796 49 799 47 803 46 c 2
 767 10 l 1
 782 10 l 1
 814 42 l 1
 803 46 793 51 782 55 c 1
 737 10 l 1
 752 10 l 1
 792 50 l 2
665 133 m 2
 667 130 668 126 670 123 c 2
 557 10 l 1
 572 10 l 1
 677 115 l 1
 670 124 664 133 661 144 c 1
 527 10 l 1
 542 10 l 1
 665 133 l 2
872 10 m 1
 881 19 l 2
 884 18 887 18 890 17 c 1
 879 21 868 24 859 27 c 1
 863 26 866 24 870 23 c 2
 857 10 l 1
 872 10 l 1
887 10 m 1
 900 10 l 1
 900 13 l 2
 897 14 895 15 893 16 c 2
 887 10 l 1
722 10 m 1
 771 59 l 2
 772 59 773 58 774 58 c 1
 768 60 763 63 757 65 c 1
 758 65 759 63 760 63 c 2
 707 10 l 1
 722 10 l 1
779 56 m 1
 778 56 l 1
 779 56 l 1
750 68 m 2
 746 70 742 70 739 72 c 2
 677 10 l 1
 692 10 l 1
 750 68 l 2
662 10 m 1
 729 77 l 2
 730 77 730 76 731 76 c 1
 727 78 723 80 719 82 c 1
 647 10 l 1
 662 10 l 1
632 10 m 1
 710 88 l 2
 713 86 715 85 718 83 c 1
 712 86 706 90 701 94 c 1
 617 10 l 1
 632 10 l 1
602 10 m 1
 692 100 l 2
 693 99 695 98 696 97 c 1
 692 100 688 104 684 107 c 1
 587 10 l 1
 602 10 l 1
658 156 m 1
 657 162 656 168 656 175 c 1
 656 173 656 171 656 169 c 2
 497 10 l 1
 512 10 l 1
 658 156 l 1
482 10 m 1
 656 184 l 1
 656 199 l 1
 467 10 l 1
 482 10 l 1
452 10 m 1
 656 214 l 1
 656 229 l 1
 437 10 l 1
 452 10 l 1
422 10 m 1
 656 244 l 1
 656 259 l 1
 407 10 l 1
 422 10 l 1
392 10 m 1
 656 274 l 1
 656 289 l 1
 377 10 l 1
 392 10 l 1
362 10 m 1
 656 304 l 1
 656 319 l 1
 347 10 l 1
 362 10 l 1
332 10 m 1
 656 334 l 1
 656 349 l 1
 317 10 l 1
 332 10 l 1
302 10 m 1
 656 364 l 1
 656 379 l 1
 399 122 l 2
 395 116 389 111 383 106 c 2
 287 10 l 1
 302 10 l 1
349 86 m 1
 340 82 331 78 320 73 c 1
 257 10 l 1
 272 10 l 1
 347 85 l 2
 348 85 348 86 349 86 c 1
399 122 m 1
 405 130 410 140 412 150 c 1
 656 394 l 1
 656 409 l 1
 414 167 l 1
 413 149 408 134 399 122 c 1
309 68 m 1
 300 64 291 61 281 57 c 0
 277 55 274 54 270 53 c 2
 227 10 l 1
 242 10 l 1
 294 62 l 2
 299 64 304 66 309 68 c 1
414 182 m 1
 656 424 l 1
 656 439 l 1
 414 197 l 1
 414 182 l 1
246 44 m 2
 239 42 231 39 224 37 c 2
 197 10 l 1
 212 10 l 1
 246 44 l 2
414 212 m 1
 656 454 l 1
 656 469 l 1
 414 227 l 1
 414 212 l 1
203 31 m 2
 196 29 191 28 184 27 c 2
 167 10 l 1
 182 10 l 1
 203 31 l 2
414 242 m 1
 656 484 l 1
 656 499 l 1
 414 257 l 1
 414 242 l 1
172 24 m 1
 164 22 155 20 146 19 c 1
 137 10 l 1
 152 10 l 1
 165 23 l 2
 168 24 169 23 172 24 c 1
414 272 m 1
 656 514 l 1
 656 529 l 1
 414 287 l 1
 414 272 l 1
143 19 m 1
 130 17 117 15 103 13 c 1
 106 13 108 14 111 14 c 2
 107 10 l 1
 122 10 l 1
 129 17 l 2
 134 18 138 18 143 19 c 1
414 302 m 1
 656 544 l 1
 656 559 l 1
 414 317 l 1
 414 302 l 1
414 332 m 1
 656 574 l 1
 656 589 l 1
 414 347 l 1
 414 332 l 1
414 362 m 1
 656 604 l 1
 656 619 l 1
 414 377 l 1
 414 362 l 1
414 392 m 1
 656 634 l 1
 656 649 l 1
 414 407 l 1
 414 392 l 1
414 422 m 1
 656 664 l 1
 656 679 l 1
 414 437 l 1
 414 422 l 1
414 452 m 1
 656 694 l 1
 656 709 l 1
 414 467 l 1
 414 452 l 1
414 482 m 1
 656 724 l 1
 656 739 l 1
 414 497 l 1
 414 482 l 1
414 512 m 1
 656 754 l 1
 656 769 l 1
 414 527 l 1
 414 512 l 1
414 542 m 1
 656 784 l 1
 656 799 l 1
 414 557 l 1
 414 542 l 1
414 572 m 1
 656 814 l 1
 656 829 l 1
 414 587 l 1
 414 572 l 1
414 602 m 1
 656 844 l 1
 656 859 l 1
 414 617 l 1
 414 602 l 1
414 632 m 1
 656 874 l 1
 656 889 l 1
 414 647 l 1
 414 632 l 1
414 662 m 1
 656 904 l 1
 656 919 l 1
 414 677 l 1
 414 662 l 1
414 692 m 1
 656 934 l 1
 656 949 l 1
 414 707 l 1
 414 692 l 1
414 722 m 1
 656 964 l 1
 656 979 l 1
 414 737 l 1
 414 722 l 1
414 752 m 1
 656 994 l 1
 656 1009 l 1
 414 767 l 1
 414 752 l 1
414 782 m 1
 656 1024 l 1
 656 1039 l 1
 414 797 l 1
 414 782 l 1
414 812 m 1
 656 1054 l 1
 656 1069 l 1
 414 827 l 1
 414 812 l 1
414 842 m 1
 656 1084 l 1
 656 1099 l 1
 414 857 l 1
 414 842 l 1
414 872 m 1
 656 1114 l 1
 656 1129 l 1
 414 887 l 1
 414 872 l 1
414 902 m 1
 656 1144 l 1
 656 1159 l 1
 414 917 l 1
 414 902 l 1
898 1386 m 1
 900 1388 l 1
 900 1390 l 1
 887 1390 l 1
 876 1379 l 2
 873 1378 870 1377 868 1376 c 1
 877 1379 887 1382 898 1386 c 1
899 1387 m 1
 900 1387 l 1
 899 1387 l 1
414 932 m 1
 656 1174 l 1
 656 1189 l 1
 414 947 l 1
 414 932 l 1
857 1372 m 1
 856 1372 854 1371 853 1371 c 2
 872 1390 l 1
 857 1390 l 1
 830 1363 l 2
 838 1366 848 1369 857 1372 c 1
414 962 m 1
 656 1204 l 1
 656 1219 l 1
 414 977 l 1
 414 962 l 1
807 1355 m 1
 842 1390 l 1
 827 1390 l 1
 783 1346 l 2
 781 1345 780 1345 778 1344 c 1
 788 1348 797 1352 807 1355 c 1
812 1357 m 1
 813 1357 814 1358 815 1358 c 1
 814 1358 813 1357 812 1357 c 1
414 992 m 1
 656 1234 l 2
 656 1232 656 1230 656 1228 c 1
 656 1237 657 1245 659 1252 c 2
 414 1007 l 1
 414 992 l 1
759 1336 m 1
 758 1336 l 2
 812 1390 l 1
 797 1390 l 1
 730 1323 l 2
 739 1327 749 1332 759 1336 c 1
769 1341 m 1
 772 1342 775 1343 778 1344 c 1
 775 1343 772 1342 769 1341 c 1
675 1283 m 2
 679 1288 684 1293 690 1298 c 0
 721 1329 751 1359 782 1390 c 1
 767 1390 l 1
 414 1037 l 1
 414 1022 l 1
 675 1283 l 2
661 1257 m 1
 664 1266 668 1275 674 1282 c 1
 668 1275 664 1266 661 1257 c 1
690 1298 m 2
 691 1299 l 1
 690 1298 l 2
 690 1298 l 2
414 1052 m 1
 752 1390 l 1
 737 1390 l 1
 414 1067 l 1
 414 1052 l 1
414 1082 m 1
 722 1390 l 1
 707 1390 l 1
 414 1097 l 1
 414 1082 l 1
414 1112 m 1
 692 1390 l 1
 677 1390 l 1
 414 1127 l 1
 414 1112 l 1
414 1142 m 1
 662 1390 l 1
 647 1390 l 1
 414 1157 l 1
 414 1142 l 1
414 1172 m 1
 632 1390 l 1
 617 1390 l 1
 414 1187 l 1
 414 1172 l 1
414 1202 m 1
 602 1390 l 1
 587 1390 l 1
 414 1217 l 1
 414 1202 l 1
414 1228 m 1
 414 1229 414 1231 414 1232 c 2
 572 1390 l 1
 557 1390 l 1
 412 1245 l 1
 413 1239 414 1234 414 1228 c 1
412 1248 m 1
 411 1251 411 1255 410 1258 c 2
 542 1390 l 1
 527 1390 l 1
 405 1268 l 2
 403 1271 401 1274 399 1277 c 2
 512 1390 l 1
 497 1390 l 1
 393 1286 l 1
 403 1276 409 1263 412 1248 c 1
390 1288 m 1
 388 1290 387 1291 385 1293 c 1
 387 1291 388 1290 390 1288 c 1
385 1293 m 2
 482 1390 l 1
 467 1390 l 1
 376 1299 l 2
 379 1297 382 1295 385 1293 c 2
367 1305 m 1
 452 1390 l 1
 437 1390 l 1
 357 1310 l 2
 355 1311 353 1312 351 1313 c 1
 357 1310 362 1308 367 1305 c 1
350 1314 m 1
 349 1314 348 1315 347 1315 c 2
 422 1390 l 1
 407 1390 l 1
 337 1320 l 1
 342 1318 346 1316 350 1314 c 1
332 1322 m 1
 330 1323 328 1323 326 1324 c 2
 392 1390 l 1
 377 1390 l 1
 316 1329 l 1
 322 1327 327 1324 332 1322 c 1
312 1331 m 1
 310 1332 307 1332 305 1333 c 2
 362 1390 l 1
 347 1390 l 1
 295 1338 l 2
 292 1339 288 1341 284 1342 c 2
 332 1390 l 1
 317 1390 l 1
 273 1346 l 2
 270 1347 267 1348 264 1349 c 1
 270 1347 275 1345 281 1343 c 0
 292 1339 302 1335 312 1331 c 1
262 1350 m 2
 302 1390 l 1
 287 1390 l 1
 251 1354 l 2
 255 1353 258 1351 262 1350 c 2
247 1356 m 1
 245 1357 242 1357 240 1358 c 2
 272 1390 l 1
 257 1390 l 1
 229 1362 l 2
 225 1363 221 1364 217 1365 c 2
 242 1390 l 1
 227 1390 l 1
 205 1368 l 2
 204 1368 203 1369 202 1369 c 1
 217 1365 232 1361 247 1356 c 1
193 1371 m 1
 212 1390 l 1
 197 1390 l 1
 181 1374 l 2
 180 1374 178 1375 177 1375 c 1
 182 1374 188 1372 193 1371 c 1
169 1377 m 2
 182 1390 l 1
 167 1390 l 1
 156 1379 l 2
 160 1378 165 1378 169 1377 c 2
143 1381 m 1
 152 1390 l 1
 137 1390 l 1
 130 1383 l 2
 127 1383 125 1384 122 1384 c 1
 129 1383 136 1382 143 1381 c 1
117 1385 m 1
 122 1390 l 1
 107 1390 l 1
 104 1387 l 2
 103 1387 101 1387 100 1387 c 1
 106 1386 111 1386 117 1385 c 1
EndSplineSet
EndChar

StartChar: Y
Encoding: 89 89 21
GlifName: Y_
Width: 2394
Flags: HMW
AnchorPoint: "bottom" 1286 0 basechar 0
AnchorPoint: "top" 1344 1400 basechar 0
LayerCount: 2
Fore
SplineSet
1982 1188 m 5
 2003 1215 2023.55859375 1263.61230469 2056 1294 c 0
 2083.66503906 1319.91308594 2132 1365 2168 1390 c 9
 1707 1390 l 1
 1785.50878906 1377.19628906 1823.02734375 1375.60351562 1887 1313 c 0
 1943.09375 1258.10644531 1988 1211 1982 1188 c 5
1333 580 m 1
 693 1219 l 2
 650.965622597 1260.96869869 697 1307 755 1333 c 0
 808 1357 881 1380 945 1390 c 1
 103 1390 l 1
 165 1380 201.276024805 1359.52349856 245 1339 c 0
 294 1316 352 1280 389 1241 c 2
 1091 495 l 1
 1091 10 l 1
 1333 10 l 1
 1333 580 l 1
1577 13 m 1
 1524.97558594 31 1493.1640625 40.9365234375 1454.70800781 56 c 0
 1376.73144531 86.5439453125 1333 113 1333 175 c 9
 1333 10 l 1
 1577 10 l 1
 1577 13 l 1
777 13 m 1
 777 10 l 1
 1091 10 l 1
 1091 175 l 17
 1091 113 1056.86132812 95.970703125 958.291992188 57 c 0
 900.181640625 34.025390625 849.024414062 21 777 13 c 1
757 20 m 1
 838 29 888 39 953 65 c 0
 1053 104 1081 120 1081 175 c 2
 1081 490 l 1
 378 1240 l 2
 343 1277 289 1308 230 1336 c 0
 157 1371 124 1375 50 1380 c 1
 50 1400 l 1
 1134 1400 l 1
 1134 1380 l 1
 1050 1378 988 1349 948 1321 c 0
 903 1289 877 1253 903 1227 c 2
 1492 630 l 1
 1966 1187 l 2
 1982 1206 1923 1259 1878 1306 c 0
 1819 1368 1739 1376 1675 1380 c 1
 1675 1400 l 1
 2399 1400 l 1
 2399 1380 l 1
 2363 1376 2279 1337 2199 1295 c 0
 2132 1259 2035 1223 1990 1170 c 2
 1511 610 l 1
 1511 175 l 2
 1511 120 1539 104 1639 65 c 0
 1704 39 1754 29 1835 20 c 1
 1835 0 l 1
 757 0 l 1
 757 20 l 1
EndSplineSet
EndChar

StartChar: B
Encoding: 66 66 22
GlifName: B_
Width: 2169
Flags: HMW
AnchorPoint: "bottom" 1026 0 basechar 0
AnchorPoint: "top" 1064 1400 basechar 0
LayerCount: 2
Fore
SplineSet
125.253327628 1383.86989164 m 1
 123.973105309 1384.04643549 122.686577977 1384.22098205 121.393554688 1384.39355469 c 2
 127 1390 l 1
 112 1390 l 1
 108.072265625 1386.07226562 l 2
 105.41015625 1386.38867188 102.719726562 1386.69824219 100 1387 c 1
 108.706306795 1386.03296049 117.107703087 1384.99249017 125.253327628 1383.86989164 c 1
157.383476339 1378.77746497 m 1
 155.311242334 1379.15253556 153.224679866 1379.52035635 151.12286308 1379.88104234 c 1
 153.224664525 1379.52017007 155.311195287 1379.15237142 157.383476339 1378.77746497 c 1
147.494599141 1380.49459914 m 2
 157 1390 l 1
 142 1390 l 1
 134.538133881 1382.53813388 l 2
 138.926264025 1381.88344166 143.242337738 1381.20274978 147.494599141 1380.49459914 c 2
172.803168329 1375.80316833 m 2
 187 1390 l 1
 172 1390 l 1
 160.252239347 1378.25223935 l 2
 164.491291141 1377.46687759 168.671965271 1376.65104603 172.803168329 1375.80316833 c 2
207.207593866 1367.71463018 m 1
 205.709334439 1368.11354526 204.207616195 1368.50703882 202.701907952 1368.89521753 c 1
 204.207641744 1368.50696537 205.709371416 1368.11346542 207.207593866 1367.71463018 c 1
197.268957682 1370.26895768 m 2
 217 1390 l 1
 202 1390 l 1
 185.142578125 1373.14257812 l 2
 185.027544409 1373.16858287 184.912478697 1373.19456108 184.797380668 1373.2205125 c 1
 188.995187812 1372.27346096 193.149056825 1371.29019763 197.268957682 1370.26895768 c 2
229.630063994 1361.27468596 m 1
 226.739343551 1362.16597703 223.84435084 1363.03476754 220.942153917 1363.88189368 c 1
 223.844478608 1363.03456489 226.739203348 1362.16571653 229.630063994 1361.27468596 c 1
220.89550898 1363.89550898 m 2
 247 1390 l 1
 232 1390 l 1
 209.184676327 1367.18467633 l 2
 213.107936393 1366.12581741 217.008555904 1365.02995773 220.89550898 1363.89550898 c 2
243.74136623 1356.74136623 m 2
 277 1390 l 1
 262 1390 l 1
 232.410497774 1360.41049777 l 2
 236.189227031 1359.22626303 239.96339567 1358.00371254 243.74136623 1356.74136623 c 2
287.528806728 1340.52880673 m 2
 337 1390 l 1
 322 1390 l 1
 276.772460938 1344.77246094 l 2
 273.127929688 1346.18945312 269.508789062 1347.56738281 265.907226562 1348.90722656 c 2
 307 1390 l 1
 292 1390 l 1
 254.901841035 1352.90184103 l 1
 263.601704471 1349.82413343 272.364799411 1346.52947042 281.291992188 1343 c 0
 283.400308367 1342.16644905 285.47914774 1341.34293621 287.528806728 1340.52880673 c 2
318.453267108 1327.96273888 m 1
 315.36235067 1329.26150068 312.184152633 1330.57873602 308.91796875 1331.91796875 c 2
 367 1390 l 1
 352 1390 l 1
 298.24719001 1336.24719001 l 1
 305.360438304 1333.38665984 312.090973237 1330.63583156 318.453267108 1327.96273888 c 1
334.766959301 1320.90211441 m 1
 333.689843658 1321.38481449 332.600043906 1321.86925346 331.497442444 1322.35566661 c 1
 332.599985137 1321.86926518 333.689791704 1321.38481928 334.766959301 1320.90211441 c 1
330.009783131 1323.00978313 m 2
 397 1390 l 1
 382 1390 l 1
 319.515655004 1327.515655 l 2
 323.133127558 1325.99082137 326.630266159 1324.49086117 330.009783131 1323.00978313 c 2
350.50823116 1313.50823116 m 2
 427 1390 l 1
 412 1390 l 1
 340.358657816 1318.35865782 l 2
 343.885979296 1316.72881317 347.267880559 1315.11485344 350.50823116 1313.50823116 c 2
374.842692649 1299.75975137 m 1
 373.251540726 1300.81466291 371.60602567 1301.86244101 369.905273438 1302.90527344 c 2
 457 1390 l 1
 442 1390 l 1
 360.387763268 1308.38776327 l 1
 365.635716031 1305.53353713 370.446712804 1302.67368611 374.842692649 1299.75975137 c 1
401.49432383 1274.49432383 m 1
 517 1390 l 1
 502 1390 l 1
 394.932617188 1282.93261719 l 2
 392.633789062 1285.48144531 390.108398438 1287.9453125 387.344726562 1290.34472656 c 2
 487 1390 l 1
 472 1390 l 1
 378.940788181 1296.94078818 l 1
 388.590184604 1290.04387797 396.0149174 1282.76739961 401.49432383 1274.49432383 c 1
410.717087286 1253.71708729 m 1
 547 1390 l 1
 532 1390 l 1
 406.81640625 1264.81640625 l 2
 406.267921939 1266.04209717 405.68601464 1267.24563416 405.070036491 1268.42845545 c 1
 407.447349379 1263.8626283 409.316608365 1258.98775506 410.717087286 1253.71708729 c 1
414 1225 m 1
 414 1225.66796875 413.99609375 1226.33007812 413.98828125 1226.98828125 c 2
 577 1390 l 1
 562 1390 l 1
 413.100585938 1241.10058594 l 2
 412.848238988 1243.18187786 412.541518702 1245.2062377 412.178730634 1247.1773519 c 1
 413.415530005 1240.45489347 414 1233.11240691 414 1225 c 1
414 1197 m 1
 607 1390 l 1
 592 1390 l 1
 414 1212 l 1
 414 1197 l 1
414 1167 m 1
 637 1390 l 1
 622 1390 l 1
 414 1182 l 1
 414 1167 l 1
414 1137 m 1
 656 1379 l 1
 656 1390 l 1
 652 1390 l 1
 414 1152 l 1
 414 1137 l 1
414 1107 m 1
 656 1349 l 1
 656 1364 l 1
 414 1122 l 1
 414 1107 l 1
414 1077 m 1
 656 1319 l 1
 656 1334 l 1
 414 1092 l 1
 414 1077 l 1
414 1047 m 1
 656 1289 l 1
 656 1304 l 1
 414 1062 l 1
 414 1047 l 1
414 1017 m 1
 656 1259 l 1
 656 1274 l 1
 414 1032 l 1
 414 1017 l 1
414 987 m 1
 656 1229 l 1
 656 1244 l 1
 414 1002 l 1
 414 987 l 1
414 957 m 1
 656 1199 l 1
 656 1214 l 1
 414 972 l 1
 414 957 l 1
414 927 m 1
 656 1169 l 1
 656 1184 l 1
 414 942 l 1
 414 927 l 1
414 897 m 1
 656 1139 l 1
 656 1154 l 1
 414 912 l 1
 414 897 l 1
414 867 m 1
 656 1109 l 1
 656 1124 l 1
 414 882 l 1
 414 867 l 1
414 837 m 1
 656 1079 l 1
 656 1094 l 1
 414 852 l 1
 414 837 l 1
414 807 m 1
 656 1049 l 1
 656 1064 l 1
 414 822 l 1
 414 807 l 1
414 777 m 1
 656 1019 l 1
 656 1034 l 1
 414 792 l 1
 414 777 l 1
414 747 m 1
 656 989 l 1
 656 1004 l 1
 414 762 l 1
 414 747 l 1
414 717 m 1
 656 959 l 1
 656 974 l 1
 414 732 l 1
 414 717 l 1
414 687 m 1
 656 929 l 1
 656 944 l 1
 414 702 l 1
 414 687 l 1
414 657 m 1
 656 899 l 1
 656 914 l 1
 414 672 l 1
 414 657 l 1
414 627 m 1
 656 869 l 1
 656 884 l 1
 414 642 l 1
 414 627 l 1
414 597 m 1
 656 839 l 1
 656 854 l 1
 414 612 l 1
 414 597 l 1
414 567 m 1
 656 809 l 1
 656 824 l 1
 414 582 l 1
 414 567 l 1
414 537 m 1
 656 779 l 1
 656 794 l 1
 414 552 l 1
 414 537 l 1
414 507 m 1
 656 749 l 1
 656 764 l 1
 414 522 l 1
 414 507 l 1
414 477 m 1
 656 719 l 1
 656 734 l 1
 414 492 l 1
 414 477 l 1
414 447 m 1
 656 689 l 1
 656 704 l 1
 414 462 l 1
 414 447 l 1
414 417 m 1
 656 659 l 1
 656 674 l 1
 414 432 l 1
 414 417 l 1
414 387 m 1
 656 629 l 1
 656 644 l 1
 414 402 l 1
 414 387 l 1
414 357 m 1
 656 599 l 1
 656 614 l 1
 414 372 l 1
 414 357 l 1
414 327 m 1
 656 569 l 1
 656 584 l 1
 414 342 l 1
 414 327 l 1
414 297 m 1
 656 539 l 1
 656 554 l 1
 414 312 l 1
 414 297 l 1
145.593517591 19.19133004 m 1
 133.983781086 17.2886808027 121.893572441 15.5872816326 109.157354967 14.057834203 c 1
 111.811149437 14.3764309142 114.436907883 14.7024304276 117.036132812 15.0361328125 c 2
 112 10 l 1
 127 10 l 1
 134.448242188 17.4482421875 l 2
 138.214588296 18.0098426173 141.927909821 18.5904870878 145.593517591 19.19133004 c 1
414 267 m 1
 656 509 l 1
 656 524 l 1
 414 282 l 1
 414 267 l 1
174.767804632 24.603241805 m 1
 167.455768066 23.0787350667 159.992047832 21.6561676782 152.326699215 20.3266992151 c 1
 142 10 l 1
 157 10 l 1
 170.786132812 23.7861328125 l 2
 172.11853527 24.0552121385 173.445658623 24.3275653274 174.767804632 24.603241805 c 1
414 237 m 1
 656 479 l 1
 656 494 l 1
 414 252 l 1
 414 237 l 1
210.049406292 33.0494062925 m 1
 201.824791948 30.8163562764 193.503414526 28.7467025331 185.002387132 26.8257743962 c 1
 186.664829557 27.20139159 188.320398235 27.5826740496 189.969726562 27.9697265625 c 2
 172 10 l 1
 187 10 l 1
 210.049406292 33.0494062925 l 1
214.851293277 34.3747450518 m 1
 219.600671446 35.7067748384 224.323322819 37.0950690034 229.035166412 38.5422817526 c 1
 224.323537652 37.0952786406 219.600968959 35.7070531791 214.851293277 34.3747450518 c 1
414 207 m 1
 656 449 l 1
 656 464 l 1
 414 222 l 1
 414 207 l 1
274.484162525 54.3420479649 m 1
 259.835110706 48.6963902638 245.56510622 43.6815934572 231.216693161 39.2166931611 c 1
 202 10 l 1
 217 10 l 1
 253.66015625 46.66015625 l 2
 260.548186636 49.0819361737 267.472780433 51.6395230557 274.484162525 54.3420479649 c 1
414 177 m 1
 656 419 l 1
 656 434 l 1
 414 192 l 1
 414 177 l 1
356.583884572 89.5838845717 m 1
 337.319998925 79.5064973679 312.544539488 69.3561118794 281.291992188 57 c 0
 280.030893826 56.5014099646 278.773070161 56.0075056877 277.518236844 55.5182368436 c 2
 232 10 l 1
 247 10 l 1
 302.447265625 65.447265625 l 2
 311.689453125 69.1884765625 320.262695312 72.748046875 328.200195312 76.2001953125 c 2
 262 10 l 1
 277 10 l 1
 356.583884572 89.5838845717 l 1
382.574152322 105.755929187 m 1
 396.253156942 116.311114213 404.963814 127.909171039 409.661132812 142.661132812 c 1
 656 389 l 1
 656 404 l 1
 413.371485545 161.371485545 l 1
 410.972752958 137.062873579 401.558381094 120.405027791 382.574152322 105.755929187 c 1
307 10 m 1
 656 359 l 1
 656 374 l 1
 292 10 l 1
 307 10 l 1
337 10 m 1
 656 329 l 1
 656 344 l 1
 322 10 l 1
 337 10 l 1
367 10 m 1
 656 299 l 1
 656 314 l 1
 352 10 l 1
 367 10 l 1
397 10 m 1
 656 269 l 1
 656 284 l 1
 382 10 l 1
 397 10 l 1
427 10 m 1
 656 239 l 1
 656 254 l 1
 412 10 l 1
 427 10 l 1
457 10 m 1
 656 209 l 1
 656 224 l 1
 442 10 l 1
 457 10 l 1
487 10 m 1
 656 179 l 1
 656 194 l 1
 472 10 l 1
 487 10 l 1
517 10 m 1
 656 149 l 1
 656 164 l 1
 502 10 l 1
 517 10 l 1
547 10 m 1
 656 119 l 1
 656 134 l 1
 532 10 l 1
 547 10 l 1
577 10 m 1
 656 89 l 1
 656 104 l 1
 562 10 l 1
 577 10 l 1
607 10 m 1
 656 59 l 1
 656 74 l 1
 592 10 l 1
 607 10 l 1
652 10 m 1
 656 10 l 1
 656 14 l 1
 652 10 l 1
637 10 m 1
 656 29 l 1
 656 44 l 1
 622 10 l 1
 637 10 l 1
80 1380 m 1
 80 1400 l 1
 1351 1400 l 2
 1720 1400 2011 1310 2011 1070 c 0
 2011 881 1821 766 1519 737 c 1
 1806 717 2089 590 2089 380 c 0
 2089 130 1771 0 1439 0 c 2
 80 0 l 1
 80 20 l 1
 161 29 211 39 276 65 c 0
 376 104 404 120 404 175 c 2
 404 1225 l 2
 404 1280 376 1296 276 1335 c 0
 211 1361 161 1371 80 1380 c 1
806 750 m 1
 1319 750 l 2
 1461 750 1569 830 1569 1068 c 0
 1569 1306 1461 1370 1319 1370 c 2
 806 1370 l 1
 806 750 l 1
806 720 m 1
 806 30 l 1
 1299 30 l 2
 1451 30 1579 102 1579 380 c 0
 1579 658 1451 720 1299 720 c 2
 806 720 l 1
1756.42542417 109.425424169 m 2
 1920.78499144 273.784991443 l 2
 1923.81596673 281.273698389 1926.51410305 288.964238074 1928.86081198 296.860811985 c 2
 1727.63605388 95.636053884 l 2
 1737.43610651 99.9999157189 1747.04364853 104.593866909 1756.42542417 109.425424169 c 2
1790.9811503 128.981150296 m 1
 1839.98150737 159.464358003 1880.58845839 197.688795962 1906.97216692 244.972166922 c 1
 1790.9811503 128.981150296 l 1
1701.8422959 84.8422959017 m 2
 1933.97142661 316.971426605 l 2
 1935.23715985 322.93273655 1936.31095999 329.003662098 1937.1857931 335.185793105 c 2
 1677.97631591 75.9763159128 l 2
 1686.02029648 78.7987393796 1693.98083867 81.7528871896 1701.8422959 84.8422959017 c 2
1655.49182372 68.4918237208 m 2
 1939.05140078 352.051400779 l 2
 1939.46986846 357.25685291 1939.75179886 362.537223794 1939.89337596 367.893375958 c 2
 1634.06497519 62.0649751941 l 2
 1641.25229212 64.1122949663 1648.39797068 66.2538102833 1655.49182372 68.4918237208 c 2
1939.92346513 382.923465132 m 2
 1939.8157103 387.773225282 1939.59460525 392.55267863 1939.26289121 397.262891214 c 2
 1593.60697915 51.6069791526 l 2
 1600.25441945 53.1580842935 1606.88307521 54.7836054107 1613.48527619 56.4852761916 c 2
 1939.92346513 382.923465132 l 2
1937.96523909 410.96523909 m 2
 1937.43545201 415.398660402 1936.80432847 419.768045013 1936.07436302 424.074363021 c 2
 1555.55829468 43.5582946774 l 2
 1561.81944955 44.7509221331 1568.07691969 46.0058239325 1574.32442055 47.3244205542 c 2
 1937.96523909 410.96523909 l 2
1933.62927271 436.62927271 m 2
 1932.73163288 440.699647933 1931.74272636 444.711209649 1930.66485176 448.664851757 c 2
 1519.34381386 37.3438138649 l 2
 1525.30584548 38.2571462913 1531.27554614 39.2246196566 1537.24746582 40.2474658192 c 2
 1933.62927271 436.62927271 l 2
1927.21244472 460.212444718 m 2
 1925.99037761 463.962526886 1924.68562946 467.658214806 1923.30034099 471.300340986 c 2
 1484.61139951 32.6113995051 l 2
 1490.32841749 33.2951179638 1496.06254337 34.0272291425 1501.80884731 34.8088473122 c 2
 1927.21244472 460.212444718 l 2
1918.95417684 481.954176844 m 2
 1917.44312251 485.418886687 1915.85681682 488.832990898 1914.197272 492.197272004 c 2
 1451.13181072 29.1318107184 l 2
 1456.63911351 29.6186661264 1462.17205336 30.1497208645 1467.72601754 30.7260175355 c 2
 1918.95417684 481.954176844 l 2
1909.05091322 502.050913221 m 2
 1907.28024159 505.259213956 1905.44083317 508.420193974 1903.53459483 511.534594834 c 2
 1552.18956825 160.189568252 l 1
 1546.35771412 147.849064735 1539.88277085 136.390583767 1532.78687739 125.786877389 c 2
 1909.05091322 502.050913221 l 2
1469.96724467 62.9672446674 m 2
 1459.55752402 56.1072874623 1448.53335797 50.1016999881 1436.9197315 44.9197314973 c 1
 1418.75137662 26.7513766195 l 2
 1424.07235447 27.0633565102 1429.42724822 27.4164342946 1434.81161433 27.8116143306 c 2
 1469.96724467 62.9672446674 l 2
1897.66622397 520.666223968 m 2
 1895.66059775 523.642456554 1893.5920152 526.57424479 1891.46229655 529.462296549 c 2
 1570.32416532 208.324165319 l 2
 1568.05527076 200.608608047 1565.59653957 193.152362036 1562.95131389 185.951313895 c 2
 1897.66622397 520.666223968 l 2
1412.51237295 35.5123729485 m 2
 1405.67843594 33.263865256 1398.67062234 31.2591610272 1391.49311372 29.4931137208 c 2
 1387.36756133 25.3675613304 l 2
 1392.51727198 25.5191280009 1397.70945336 25.7095127253 1402.93970918 25.9397091846 c 2
 1412.51237295 35.5123729485 l 2
1884.93804907 537.938049069 m 2
 1882.71841729 540.702906436 1880.44101461 543.425860039 1878.10759006 546.107590059 c 2
 1579.83295865 247.832958651 l 2
 1578.58049989 241.314489338 1577.21496732 234.950052068 1575.73783394 228.737833939 c 2
 1884.93804907 537.938049069 l 2
1372.43223807 25.4322380689 m 2
 1371.62343772 25.2854145567 1370.81268993 25.1413373789 1370 25 c 1
 1370.67515194 25.0086557941 1371.35115301 25.0179858932 1372.02799268 25.027992675 c 2
 1372.43223807 25.4322380689 l 2
1870.98401451 553.984014507 m 2
 1868.56835214 556.555267451 1866.09961832 559.086878058 1863.57950386 561.579503862 c 2
 1585.34537085 283.345370849 l 2
 1584.63162609 277.441536075 1583.83703968 271.647589857 1582.96247257 265.962472566 c 2
 1870.98401451 553.984014507 l 2
1855.90541378 568.905413778 m 2
 1853.30928261 571.29846189 1850.66438059 573.653894697 1847.97235141 575.972351414 c 2
 1588.41651849 316.416518488 l 2
 1588.05007557 310.901906579 1587.62058427 305.472843782 1587.12862085 300.12862085 c 2
 1855.90541378 568.905413778 l 2
1839.79024377 582.790243767 m 2
 1837.02722474 585.018540493 1834.21940747 587.21105044 1831.3683983 589.368398298 c 2
 1589.79682759 347.796827589 l 2
 1589.91001908 352.798717862 1589.9945853 357.864487986 1589.9945853 362.994585302 c 1
 1589.97605947 357.864487986 1589.91001908 352.798717862 1589.79682759 347.796827589 c 0
 1589.67824476 342.556695802 1589.50791222 337.386674019 1589.28624788 332.286247885 c 2
 1839.79024377 582.790243767 l 2
1822.71555689 595.715556893 m 2
 1819.79758819 597.790942357 1816.83852468 599.832200225 1813.83994405 601.839944051 c 2
 1589.9371707 377.937170701 l 2
 1589.97901795 374.001532666 1590 370.022634947 1590 366 c 0
 1590 364.995751773 1589.9945853 363.993947976 1589.9945853 362.994585302 c 2
 1822.71555689 595.715556893 l 2
1804.74931004 607.749310043 m 2
 1801.68695508 609.68227519 1798.58698929 611.582626572 1795.4509697 613.450969699 c 2
 1589.21182981 407.211829812 l 2
 1589.40126791 402.436939485 1589.55678561 397.592711834 1589.67813542 392.678135419 c 2
 1804.74931004 607.749310043 l 2
1785.95183734 618.951837344 m 2
 1782.75449973 620.751736221 1779.52285882 622.520409783 1776.25845839 624.258458386 c 2
 1587.62741987 435.627419868 l 2
 1587.96404154 431.000184843 1588.26526471 426.301685681 1588.53081954 421.530819541 c 2
 1785.95183734 618.951837344 l 2
1766.37703793 629.377037933 m 2
 1763.05313589 631.052260319 1759.69809964 632.697537292 1756.31346682 634.313466818 c 2
 1585.12147878 463.121478775 l 2
 1585.61592506 458.652444563 1586.0734297 454.110252278 1586.49369816 449.493698156 c 2
 1766.37703793 629.377037933 l 2
1746.07334531 639.073345308 m 2
 1742.63045467 640.63145874 1739.15949502 642.160812477 1735.66200481 643.662004805 c 2
 1581.62767932 489.627679325 l 2
 1582.29122137 485.327994404 1582.91621913 480.953323235 1583.50235085 476.502350851 c 2
 1746.07334531 639.073345308 l 2
1725.08452773 648.084527733 m 2
 1721.52950046 649.532395724 1717.94939775 650.952607991 1714.34576585 652.345765848 c 2
 1577.07613805 515.076138054 l 2
 1577.92061339 510.957485261 1578.7248912 506.762124895 1579.48861985 502.488619847 c 2
 1725.08452773 648.084527733 l 2
1703.45035715 656.450357147 m 2
 1699.78942053 657.794238817 1696.1063616 659.111497905 1692.40274154 660.402741543 c 2
 1571.39397142 539.393971422 l 2
 1572.43167524 535.468454047 1573.42749083 531.464665089 1574.38103387 527.381033867 c 2
 1703.45035715 656.450357147 l 2
1681.20717544 664.207175444 m 2
 1677.4460161 665.452810626 1673.66567819 666.672795317 1669.8677454 667.867745398 c 2
 1564.50617396 562.506173959 l 2
 1565.74969247 558.786143853 1566.94961288 554.986496275 1568.10551533 551.105515334 c 2
 1681.20717544 664.207175444 l 2
1658.3883809 671.388380902 m 2
 1654.53221671 672.541064025 1650.65984048 673.669016632 1646.77286651 674.772866506 c 2
 1556.33690144 584.336901436 l 2
 1557.79887314 580.834715477 1559.21554216 577.251855948 1560.58645033 573.586450333 c 2
 1658.3883809 671.388380902 l 2
1635.02485332 678.024853322 m 2
 1631.07849592 679.089498778 1627.11895021 680.130289962 1623.14787004 681.147870035 c 2
 1546.81124372 604.811243723 l 2
 1548.50403468 601.538935413 1550.14985525 598.185269541 1551.74820634 594.748206343 c 2
 1635.02485332 678.024853322 l 2
1611.14533354 684.145333537 m 2
 1607.11324347 685.126534937 1603.07108424 686.084722699 1599.02055926 687.020559264 c 2
 1535.85756124 623.857561239 l 2
 1537.79284317 620.826417104 1539.67956316 617.713695038 1541.517179 614.517178996 c 2
 1611.14533354 684.145333537 l 2
1586.77677137 689.776771368 m 2
 1582.66310786 690.678856913 1578.54263351 691.558741997 1574.41711282 692.417112817 c 2
 1523.41042896 641.410428964 l 2
 1525.598655 638.630465823 1527.73685087 635.769265647 1529.82442964 632.824429638 c 2
 1586.77677137 689.776771368 l 2
1684.71775753 817.717757526 m 2
 1842.62296403 975.622964028 l 2
 1845.52728813 982.969718777 1848.09749629 990.530612999 1850.31061982 998.310619825 c 2
 1656.46637968 804.466379684 l 2
 1666.03377096 808.61853986 1675.46696456 813.032186874 1684.71775753 817.717757526 c 2
1718.78509001 836.785090015 m 1
 1764.67305875 865.164409799 1803.81445775 901.450835933 1829.16876677 947.168766772 c 1
 1718.78509001 836.785090015 l 1
1561.94465555 694.944655554 m 2
 1557.75332254 695.771741786 1553.55862794 696.577421815 1549.36241084 697.362410842 c 2
 1509.41417539 657.414175387 l 2
 1511.86395943 654.893525692 1514.26242279 652.292639717 1516.60893313 649.608933128 c 2
 1561.94465555 694.944655554 l 2
1631.21222588 794.21222588 m 2
 1855.05339771 1018.05339771 l 2
 1856.2058209 1023.89424989 1857.16488132 1029.84987637 1857.92211069 1035.92211069 c 2
 1607.88774293 785.887742931 l 2
 1615.70439364 788.50803692 1623.48717756 791.281141896 1631.21222588 794.21222588 c 2
1536.67333995 699.673339947 m 2
 1532.40803016 700.429386418 1528.14306203 701.16481139 1523.88036534 701.880365336 c 2
 1493.82691573 671.826915733 l 2
 1496.5443377 669.571144494 1499.20938595 667.23688958 1501.82138327 664.821383274 c 2
 1536.67333995 699.673339947 l 2
1585.95201646 778.952016463 m 2
 1859.46131481 1052.46131481 l 2
 1859.77804031 1057.5603364 1859.95680584 1062.73726543 1859.99308248 1067.99308248 c 2
 1565.0870652 773.087065198 l 2
 1572.04012022 774.928650762 1579.00060972 776.882442424 1585.95201646 778.952016463 c 2
1510.98638258 703.986382578 m 2
 1506.65062157 704.675250558 1502.31923841 705.344282975 1497.99427321 705.994273205 c 2
 1476.62486042 684.624860416 l 2
 1479.61274065 682.636257915 1482.54749366 680.571751854 1485.4283994 678.428399398 c 2
 1510.98638258 703.986382578 l 2
1859.99308248 1067.99308248 m 1
 1859.99769107 1068.66078113 1860 1069.32975297 1860 1070 c 1
 1860 1069.32975297 1859.99308248 1068.66078113 1859.99308248 1067.99308248 c 1
1859.70878273 1082.70878273 m 2
 1859.48974935 1087.44261227 1859.14823088 1092.10191087 1858.68786055 1096.68786055 c 2
 1525.81544627 763.815446267 l 2
 1532.21058051 765.147250039 1538.63927615 766.570533036 1545.08818531 768.088185309 c 2
 1859.70878273 1082.70878273 l 2
1484.90691882 707.906918821 m 2
 1480.50411123 708.532438258 1476.11015226 709.138922324 1471.72721681 709.72721681 c 2
 1457.80654345 695.806543452 l 2
 1461.06375278 694.083460232 1464.26744059 692.287929203 1467.41684773 690.416847734 c 2
 1484.90691882 707.906918821 l 2
1856.99064703 1109.99064703 m 2
 1856.32353795 1114.28403349 1855.54877886 1118.51001169 1854.6696482 1122.6696482 c 2
 1489.07686941 757.076869407 l 2
 1495.05658515 758.027303487 1501.09134265 759.057239421 1507.16925166 760.16925166 c 2
 1856.99064703 1109.99064703 l 2
1458.45809812 711.458098117 m 2
 1453.99157915 712.02414892 1449.53894873 712.571995327 1445.10254765 713.102547648 c 2
 1437.39648912 705.396489124 l 2
 1440.91738061 703.932798123 1444.384767 702.401000156 1447.79785565 700.797855645 c 2
 1458.45809812 711.458098117 l 2
1851.77076403 1134.77076403 m 2
 1850.71980027 1138.68662712 1849.57334074 1142.54084402 1848.33439323 1146.33439323 c 2
 1454.35263014 752.352630142 l 2
 1459.99064176 752.990035584 1465.70508002 753.699846093 1471.48453263 754.484532634 c 2
 1851.77076403 1134.77076403 l 2
1431.66362804 714.663628045 m 2
 1427.13672459 715.174245089 1422.62950205 715.667541454 1418.14450777 716.144507771 c 2
 1415.44775968 713.447759685 l 2
 1419.22181688 712.232537713 1422.94283322 710.954396569 1426.6099899 709.609989897 c 2
 1431.66362804 714.663628045 l 2
1844.39631095 1157.39631095 m 2
 1843.01137583 1160.98359028 1841.54113077 1164.51397451 1839.98837399 1167.98837399 c 2
 1548.25366755 876.253667551 l 1
 1543.5661096 865.268170447 1538.43448459 855.179403009 1532.91034584 845.910345836 c 2
 1844.39631095 1157.39631095 l 2
1462.00892297 775.008922968 m 2
 1452.62274639 769.560969193 1442.91985081 764.937147476 1432.99535406 760.995354057 c 1
 1421.36601482 749.366014817 l 2
 1426.69768548 749.725439004 1432.13050701 750.153507924 1437.65275921 750.652759213 c 2
 1462.00892297 775.008922968 l 2
1404.54849478 717.548494781 m 2
 1403.02938717 717.70077934 1401.51318817 717.85126783 1400 718 c 1
 1401.31286521 717.646960616 1402.61988807 717.287348588 1403.92103769 716.92103769 c 2
 1404.54849478 717.548494781 l 2
1835.1390933 1178.1390933 m 2
 1833.45982329 1181.43672728 1831.70394826 1184.68144478 1829.87410294 1187.87410294 c 2
 1563.59522622 921.595226216 l 2
 1561.65307825 914.198816612 1559.55462545 907.107673214 1557.30866029 900.30866029 c 2
 1835.1390933 1178.1390933 l 2
1410.16986653 753.169866533 m 2
 1403.50167466 751.21441595 1396.76954019 749.504342264 1390 748 c 1
 1395.03139837 748.092037775 1400.19644954 748.251843166 1405.48221713 748.48221713 c 2
 1410.16986653 753.169866533 l 2
1824.21654756 1197.21654756 m 2
 1822.27503264 1200.25610374 1820.26448279 1203.2461177 1818.18740506 1206.18740506 c 2
 1571.71859183 959.718591829 l 2
 1570.64962752 953.369797782 1569.48358641 947.20689833 1568.2242476 941.224247601 c 2
 1824.21654756 1197.21654756 l 2
1811.80575721 1214.80575721 m 2
 1809.62838743 1217.61323337 1807.38867156 1220.37405912 1805.08901797 1223.08901797 c 2
 1576.37626382 994.376263824 l 2
 1575.77903151 988.575847976 1575.11083701 982.909434029 1574.37382214 977.373822135 c 2
 1811.80575721 1214.80575721 l 2
1798.0531276 1231.0531276 m 2
 1795.66189345 1233.65022209 1793.21431246 1236.20316592 1790.7127183 1238.7127183 c 2
 1578.89228587 1026.89228587 l 2
 1578.60131098 1021.44141763 1578.25418357 1016.09544828 1577.85229666 1010.85229666 c 2
 1798.0531276 1231.0531276 l 2
1783.08125651 1246.08125651 m 2
 1780.49468789 1248.48628698 1777.85723108 1250.84934283 1775.17116569 1253.17116569 c 2
 1579.91751336 1057.91751336 l 2
 1579.84574922 1052.71374169 1579.72740962 1047.59622048 1579.56347898 1042.56347898 c 2
 1783.08125651 1246.08125651 l 2
1766.99393268 1259.99393268 m 2
 1764.22779131 1262.22251499 1761.41579923 1264.41102754 1758.56020035 1266.56020035 c 2
 1579.78317609 1087.78317609 l 2
 1579.90315941 1082.93387658 1579.97386638 1078.00459827 1579.99399924 1072.99399924 c 2
 1766.99393268 1259.99393268 l 2
1749.87984851 1272.87984851 m 2
 1746.94764781 1274.94540791 1743.97431156 1276.97257208 1740.96206492 1278.96206492 c 2
 1578.44658414 1116.44658414 l 2
 1578.77006734 1111.80227604 1579.04451176 1107.07673633 1579.26851783 1102.26851783 c 2
 1749.87984851 1272.87984851 l 2
1731.81540769 1284.81540769 m 2
 1728.72880878 1286.72956983 1725.60555219 1288.60681307 1722.44786046 1290.44786046 c 2
 1575.86665551 1143.86665551 l 2
 1576.39824555 1139.43210013 1576.8811456 1134.91501736 1577.31384067 1130.31384067 c 2
 1731.81540769 1284.81540769 l 2
1712.86688119 1295.86688119 m 2
 1709.63599829 1297.63977555 1706.37277439 1299.3770545 1703.07944548 1301.07944548 c 2
 1572.01392208 1170.01392208 l 2
 1572.75846631 1165.79414645 1573.45480637 1161.49050518 1574.10129544 1157.10129544 c 2
 1712.86688119 1295.86688119 l 2
1693.09208511 1306.09208511 m 2
 1689.72572277 1307.7325831 1686.33124651 1309.33861646 1682.9109224 1310.9109224 c 2
 1566.85723306 1194.85723306 l 2
 1567.81983266 1190.85754927 1568.73488379 1186.7726208 1569.60058806 1182.60058806 c 2
 1693.09208511 1306.09208511 l 2
1672.54170087 1315.54170087 m 2
 1669.04753891 1317.05760463 1665.52947155 1318.54005765 1661.98981271 1319.98981271 c 2
 1560.36363077 1218.36363077 l 2
 1561.54965228 1214.58965519 1562.68899339 1210.72901868 1563.77967992 1206.77967992 c 2
 1672.54170087 1315.54170087 l 2
1651.26032331 1324.26032331 m 2
 1647.64506039 1325.65851645 1644.01015652 1327.02414817 1640.35799327 1328.35799327 c 2
 1552.4982275 1240.4982275 l 2
 1553.91331058 1236.95589875 1555.28284913 1233.32546201 1556.60466335 1229.60466335 c 2
 1651.26032331 1324.26032331 l 2
1629.28729814 1332.28729814 m 2
 1625.55676124 1333.57386679 1621.81098654 1334.82864802 1618.05244604 1336.05244604 c 2
 1543.22409282 1261.22409282 l 2
 1544.87415084 1257.91968614 1546.48014157 1254.52570433 1548.03964217 1251.03964217 c 2
 1629.28729814 1332.28729814 l 2
1606.65739346 1339.65739346 m 2
 1602.81661771 1340.83772354 1598.96524315 1341.98693135 1595.10585935 1343.10585935 c 2
 1532.50216787 1280.50216787 l 2
 1534.39337582 1277.44230207 1536.2424343 1274.29139132 1538.04662982 1271.04662982 c 2
 1606.65739346 1339.65739346 l 2
1583.40133764 1346.40133764 m 2
 1579.4546183 1347.48019286 1575.50229505 1348.52848592 1571.54710836 1349.54710836 c 2
 1520.29123619 1298.29123619 l 2
 1522.42999647 1295.48286626 1524.52910204 1292.58200658 1526.58548707 1289.58548707 c 2
 1583.40133764 1346.40133764 l 2
1559.54624737 1352.54624737 m 2
 1555.49716271 1353.52783109 1551.44798065 1354.47930877 1547.40163483 1355.40163483 c 2
 1506.54800416 1314.54800416 l 2
 1508.94087376 1311.99838715 1511.29735192 1309.35490498 1513.61393891 1306.61393891 c 2
 1559.54624737 1352.54624737 l 2
1535.11596255 1358.11596255 m 2
 1530.96736228 1359.00396589 1526.82489401 1359.86221329 1522.69174007 1360.69174007 c 2
 1491.22738746 1329.22738746 l 2
 1493.88093718 1326.94399941 1496.50240337 1324.56551144 1499.08774204 1322.08774204 c 2
 1535.11596255 1358.11596255 l 2
1510.13129976 1363.13129976 m 2
 1505.88524679 1363.92893751 1501.65257827 1364.69705758 1497.43680074 1365.43680074 c 2
 1474.28318428 1342.28318428 l 2
 1477.20373531 1340.27354577 1480.09796604 1338.16783027 1482.96113432 1335.96113432 c 2
 1510.13129976 1363.13129976 l 2
1484.61023181 1367.61023181 m 2
 1480.26787245 1368.32026741 1475.94762045 1369.00090095 1471.65341344 1369.65341344 c 2
 1455.66948449 1353.66948449 l 2
 1458.86261747 1351.94081285 1462.03728213 1350.1155417 1465.18781622 1348.18781622 c 2
 1484.61023181 1367.61023181 l 2
1458.56799877 1371.56799877 m 2
 1454.12931016 1372.19275974 1449.72362599 1372.78809381 1445.35547394 1373.35547394 c 2
 1435.34352441 1363.34352441 l 2
 1438.81314615 1361.90204275 1442.27526313 1360.36423815 1445.72295883 1358.72295883 c 2
 1458.56799877 1371.56799877 l 2
1432.01715802 1375.01715802 m 2
 1427.48046017 1375.55854498 1422.99101901 1376.07031116 1418.55420311 1376.55420311 c 2
 1413.27151665 1371.27151665 l 2
 1417.01801619 1370.12104736 1420.77283505 1368.87596489 1424.52727107 1367.52727107 c 2
 1432.01715802 1375.01715802 l 2
1404.96759595 1377.96759595 m 2
 1400.32855704 1378.42709492 1395.75653362 1378.85656424 1391.25816328 1379.25816328 c 2
 1389.44102923 1377.44102923 l 2
 1393.45740441 1376.57997789 1397.50600566 1375.62870834 1401.57543773 1374.57543773 c 2
 1404.96759595 1377.96759595 l 2
1377.42658593 1380.42658593 m 2
 1374.92380397 1380.6261149 1372.44785026 1380.81711464 1370 1381 c 1
 1372.27480316 1380.65003028 1374.56710329 1380.27568978 1376.87460412 1379.87460412 c 2
 1377.42658593 1380.42658593 l 2
EndSplineSet
EndChar

StartChar: Z
Encoding: 90 90 23
GlifName: Z_
Width: 1962
Flags: HMW
AnchorPoint: "bottom" 956 0 basechar 0
AnchorPoint: "top" 954 1400 basechar 0
LayerCount: 2
Fore
SplineSet
1254 10 m 1
 1662 10 l 1
 1662 364 l 1
 1482 126 1397 29 1254 10 c 1
633 1390 m 1
 168 1390 l 1
 168 1032 l 1
 376 1284 470 1351 633 1390 c 1
480 30 m 5
 1614 1370 l 5
 1275 1370 l 1
 141 30 l 1
 480 30 l 5
178 870 m 1
 158 870 l 1
 158 1400 l 1
 1806 1400 l 1
 1806 1370 l 1
 672 30 l 1
 1250 30 l 2
 1389 30 1492 170 1576 271 c 0
 1663.19328698 375.839547435 1733 495 1792 580 c 1
 1812 580 l 1
 1812 0 l 1
 120 0 l 1
 120 30 l 1
 1254 1370 l 1
 790 1370 l 2
 604 1370 531 1275 418 1154 c 0
 327 1057 227 941 178 870 c 1
EndSplineSet
EndChar

StartChar: J
Encoding: 74 74 25
GlifName: J_
Width: 1709
Flags: HMW
AnchorPoint: "bottom" 595 0 basechar 0
AnchorPoint: "top" 976 1400 basechar 0
LayerCount: 2
Fore
SplineSet
428 397 m 0
 428 493 360 555 264 555 c 0
 166 555 71 453 71 337 c 0
 71 236 140 159 200 99 c 1
 202 101 l 1
 164 153 159 178 159 197 c 0
 159 215.389648438 170.040039062 242 252 242 c 0
 308 242 428 249 428 397 c 0
1419 1387 m 5
 1419 1390 l 5
 1175 1390 l 5
 1175 1225 l 21
 1175 1287 1219 1313 1297 1344 c 4
 1335 1359 1367 1369 1419 1387 c 5
619 1387 m 5
 691 1379 742 1366 800 1343 c 4
 899 1304 933 1287 933 1225 c 6
 933 379 l 6
 933 112 787 -30 619 -45 c 5
 619 -48 l 5
 937 -43 1175 130 1175 370 c 6
 1175 1390 l 5
 619 1390 l 5
 619 1387 l 5
1649 1380 m 1
 1568 1371 1518 1361 1453 1335 c 0
 1353 1296 1325 1280 1325 1225 c 2
 1325 359 l 2
 1325 341 1318 325 1312 316 c 0
 1148 71 877 -61 602 -61 c 0
 348 -61 60 130 60 330 c 0
 60 474 173 575 304 575 c 0
 424 575 547 485 547 343 c 0
 547 227 473 168 344 168 c 0
 299 168 270 157 270 133 c 0
 270 120 277 105 302 78 c 0
 369 7 468 -31 597 -31 c 0
 770 -31 923 101 923 380 c 2
 923 1225 l 2
 923 1280 895 1296 795 1335 c 0
 730 1361 680 1371 599 1380 c 1
 599 1400 l 1
 1649 1400 l 1
 1649 1380 l 1
EndSplineSet
EndChar

StartChar: P
Encoding: 80 80 49
GlifName: P_
Width: 2134
Flags: HMW
AnchorPoint: "bottom" 596 0 basechar 0
AnchorPoint: "top" 1074 1400 basechar 0
LayerCount: 2
Fore
SplineSet
806 658 m 1
 1354 658 l 2
 1506 658 1614 786 1614 1014 c 0
 1614 1242 1506 1370 1354 1370 c 2
 806 1370 l 1
 806 658 l 1
80 1380 m 1
 80 1400 l 1
 525 1400 969 1400 1414 1400 c 0
 1776 1400 2054 1274 2054 1014 c 0
 2054 754 1776 628 1414 628 c 2
 806 628 l 1
 806 175 l 2
 806 120 834 104 934 65 c 0
 999 39 1049 29 1130 20 c 1
 1130 0 l 1
 80 0 l 1
 80 20 l 1
 161 29 211 39 276 65 c 0
 376 104 404 120 404 175 c 2
 404 1225 l 2
 404 1280 376 1296 276 1335 c 0
 211 1361 161 1371 80 1380 c 1
1904 1014 m 0
 1904 1268 1628 1373 1374 1386 c 1
 1529 1362 1624 1230 1624 1014 c 0
 1624 800 1532 667 1374 643 c 1
 1608 646 1904 750 1904 1014 c 0
713 86 m 2
 716 84 719 82 722 80 c 2
 656 14 l 1
 652 10 l 1
 656 10 l 1
 667 10 l 1
 732 75 l 2
 735 74 737 73 740 72 c 1
 726 78 715 85 704 92 c 1
 656 44 l 1
 622 10 l 1
 637 10 l 1
 656 29 l 1
 713 86 l 2
877 10 m 1
 885 18 l 2
 886 18 887 17 888 17 c 1
 883 19 879 20 874 22 c 1
 862 10 l 1
 877 10 l 1
896 14 m 2
 892 10 l 1
 900 10 l 1
 900 13 l 2
 899 13 897 14 896 14 c 2
863 26 m 2
 859 27 856 29 852 30 c 2
 832 10 l 1
 847 10 l 1
 863 26 l 2
817 10 m 1
 840 33 l 2
 843 32 847 31 850 30 c 1
 843 32 836 35 829 37 c 1
 802 10 l 1
 817 10 l 1
818 41 m 1
 811 43 806 46 799 48 c 1
 802 47 804 46 807 45 c 2
 772 10 l 1
 787 10 l 1
 818 41 l 1
829 37 m 1
 826 38 822 40 819 41 c 1
 822 40 826 38 829 37 c 1
796 49 m 2
 792 50 789 52 785 53 c 2
 742 10 l 1
 757 10 l 1
 796 49 l 2
727 10 m 1
 774 57 l 2
 775 57 776 56 777 56 c 1
 770 59 763 61 757 64 c 1
 759 63 762 63 764 62 c 2
 712 10 l 1
 727 10 l 1
783 54 m 1
 781 55 780 55 778 56 c 1
 780 55 781 55 783 54 c 1
753 66 m 2
 749 68 746 69 743 71 c 2
 682 10 l 1
 697 10 l 1
 753 66 l 2
695 98 m 2
 692 100 690 103 687 105 c 2
 656 74 l 1
 592 10 l 1
 607 10 l 1
 656 59 l 1
 695 98 l 2
703 92 m 1
 702 93 700 94 699 95 c 1
 700 94 702 93 703 92 c 1
656 89 m 1
 679 112 l 2
 681 110 684 107 686 105 c 1
 681 110 676 115 672 121 c 1
 672 120 l 2
 656 104 l 1
 562 10 l 1
 577 10 l 1
 656 89 l 1
667 130 m 2
 665 133 663 136 662 140 c 2
 656 134 l 1
 532 10 l 1
 547 10 l 1
 656 119 l 1
 667 130 l 2
658 151 m 1
 656 158 656 167 656 175 c 1
 656 171 656 167 656 164 c 2
 656 164 l 1
 502 10 l 1
 517 10 l 1
 656 149 l 1
 658 151 l 1
659 149 m 1
 659 147 660 146 661 144 c 1
 660 146 659 147 659 149 c 1
487 10 m 1
 656 179 l 1
 656 194 l 1
 472 10 l 1
 487 10 l 1
457 10 m 1
 656 209 l 1
 656 224 l 1
 442 10 l 1
 457 10 l 1
427 10 m 1
 656 239 l 1
 656 254 l 1
 412 10 l 1
 427 10 l 1
397 10 m 1
 656 269 l 1
 656 284 l 1
 382 10 l 1
 397 10 l 1
367 10 m 1
 656 299 l 1
 656 314 l 1
 352 10 l 1
 367 10 l 1
337 10 m 1
 656 329 l 1
 656 344 l 1
 322 10 l 1
 337 10 l 1
307 10 m 1
 656 359 l 1
 656 374 l 1
 292 10 l 1
 307 10 l 1
383 106 m 1
 397 117 405 128 410 143 c 1
 656 389 l 1
 656 404 l 1
 413 161 l 1
 411 137 402 121 383 106 c 1
357 90 m 1
 338 80 312 69 281 57 c 0
 280 57 279 56 278 56 c 2
 232 10 l 1
 247 10 l 1
 302 65 l 2
 311 69 320 73 328 76 c 2
 262 10 l 1
 277 10 l 1
 357 90 l 1
414 177 m 1
 656 419 l 1
 656 434 l 1
 414 192 l 1
 414 177 l 1
274 54 m 1
 259 48 245 43 231 39 c 1
 202 10 l 1
 217 10 l 1
 254 47 l 2
 261 49 267 51 274 54 c 1
414 207 m 1
 656 449 l 1
 656 464 l 1
 414 222 l 1
 414 207 l 1
215 34 m 1
 220 35 224 38 229 39 c 1
 224 38 220 35 215 34 c 1
210 33 m 1
 202 31 194 29 185 27 c 1
 187 27 188 28 190 28 c 2
 172 10 l 1
 187 10 l 1
 210 33 l 1
414 237 m 1
 656 479 l 1
 656 494 l 1
 414 252 l 1
 414 237 l 1
175 25 m 1
 168 23 160 21 152 20 c 1
 142 10 l 1
 157 10 l 1
 171 24 l 2
 172 24 174 25 175 25 c 1
414 267 m 1
 656 509 l 1
 656 524 l 1
 414 282 l 1
 414 267 l 1
146 19 m 1
 134 17 122 16 109 14 c 1
 112 14 114 15 117 15 c 2
 112 10 l 1
 127 10 l 1
 134 17 l 2
 138 18 142 18 146 19 c 1
414 297 m 1
 656 539 l 1
 656 554 l 1
 414 312 l 1
 414 297 l 1
414 327 m 1
 656 569 l 1
 656 584 l 1
 414 342 l 1
 414 327 l 1
414 357 m 1
 656 599 l 1
 656 614 l 1
 414 372 l 1
 414 357 l 1
414 387 m 1
 656 629 l 1
 656 644 l 1
 414 402 l 1
 414 387 l 1
414 417 m 1
 656 659 l 1
 656 674 l 1
 414 432 l 1
 414 417 l 1
414 447 m 1
 656 689 l 1
 656 704 l 1
 414 462 l 1
 414 447 l 1
414 477 m 1
 656 719 l 1
 656 734 l 1
 414 492 l 1
 414 477 l 1
414 507 m 1
 656 749 l 1
 656 764 l 1
 414 522 l 1
 414 507 l 1
414 537 m 1
 656 779 l 1
 656 794 l 1
 414 552 l 1
 414 537 l 1
414 567 m 1
 656 809 l 1
 656 824 l 1
 414 582 l 1
 414 567 l 1
414 597 m 1
 656 839 l 1
 656 854 l 1
 414 612 l 1
 414 597 l 1
414 627 m 1
 656 869 l 1
 656 884 l 1
 414 642 l 1
 414 627 l 1
414 657 m 1
 656 899 l 1
 656 914 l 1
 414 672 l 1
 414 657 l 1
414 687 m 1
 656 929 l 1
 656 944 l 1
 414 702 l 1
 414 687 l 1
414 717 m 1
 656 959 l 1
 656 974 l 1
 414 732 l 1
 414 717 l 1
414 747 m 1
 656 989 l 1
 656 1004 l 1
 414 762 l 1
 414 747 l 1
414 777 m 1
 656 1019 l 1
 656 1034 l 1
 414 792 l 1
 414 777 l 1
414 807 m 1
 656 1049 l 1
 656 1064 l 1
 414 822 l 1
 414 807 l 1
414 837 m 1
 656 1079 l 1
 656 1094 l 1
 414 852 l 1
 414 837 l 1
414 867 m 1
 656 1109 l 1
 656 1124 l 1
 414 882 l 1
 414 867 l 1
414 897 m 1
 656 1139 l 1
 656 1154 l 1
 414 912 l 1
 414 897 l 1
414 927 m 1
 656 1169 l 1
 656 1184 l 1
 414 942 l 1
 414 927 l 1
414 957 m 1
 656 1199 l 1
 656 1214 l 1
 414 972 l 1
 414 957 l 1
414 987 m 1
 656 1229 l 1
 656 1244 l 1
 414 1002 l 1
 414 987 l 1
414 1017 m 1
 656 1259 l 1
 656 1274 l 1
 414 1032 l 1
 414 1017 l 1
414 1047 m 1
 656 1289 l 1
 656 1304 l 1
 414 1062 l 1
 414 1047 l 1
414 1077 m 1
 656 1319 l 1
 656 1334 l 1
 414 1092 l 1
 414 1077 l 1
414 1107 m 1
 656 1349 l 1
 656 1364 l 1
 414 1122 l 1
 414 1107 l 1
414 1137 m 1
 656 1379 l 1
 656 1390 l 1
 652 1390 l 1
 414 1152 l 1
 414 1137 l 1
414 1167 m 1
 637 1390 l 1
 622 1390 l 1
 414 1182 l 1
 414 1167 l 1
414 1197 m 1
 607 1390 l 1
 592 1390 l 1
 414 1212 l 1
 414 1197 l 1
414 1225 m 1
 414 1226 414 1226 414 1227 c 2
 577 1390 l 1
 562 1390 l 1
 413 1241 l 2
 413 1243 412 1245 412 1247 c 1
 413 1240 414 1233 414 1225 c 1
411 1254 m 1
 547 1390 l 1
 532 1390 l 1
 407 1265 l 2
 406 1266 406 1267 405 1268 c 1
 407 1263 410 1259 411 1254 c 1
401 1274 m 1
 517 1390 l 1
 502 1390 l 1
 395 1283 l 2
 393 1286 390 1288 387 1290 c 2
 487 1390 l 1
 472 1390 l 1
 379 1297 l 1
 389 1290 396 1282 401 1274 c 1
375 1300 m 1
 373 1301 372 1302 370 1303 c 2
 457 1390 l 1
 442 1390 l 1
 360 1308 l 1
 365 1305 371 1303 375 1300 c 1
351 1314 m 2
 427 1390 l 1
 412 1390 l 1
 340 1318 l 2
 344 1316 348 1316 351 1314 c 2
330 1323 m 2
 397 1390 l 1
 382 1390 l 1
 320 1328 l 2
 324 1326 327 1324 330 1323 c 2
335 1321 m 1
 334 1321 332 1322 331 1322 c 1
 332 1322 334 1321 335 1321 c 1
318 1328 m 1
 315 1329 312 1331 309 1332 c 2
 367 1390 l 1
 352 1390 l 1
 298 1336 l 1
 305 1333 312 1331 318 1328 c 1
288 1341 m 2
 337 1390 l 1
 322 1390 l 1
 277 1345 l 2
 273 1346 270 1348 266 1349 c 2
 307 1390 l 1
 292 1390 l 1
 255 1353 l 1
 264 1350 272 1347 281 1343 c 0
 283 1342 286 1342 288 1341 c 2
244 1357 m 2
 277 1390 l 1
 262 1390 l 1
 232 1360 l 2
 236 1359 240 1358 244 1357 c 2
221 1364 m 2
 247 1390 l 1
 232 1390 l 1
 209 1367 l 2
 213 1366 217 1365 221 1364 c 2
230 1361 m 1
 227 1362 224 1363 221 1364 c 1
 224 1363 227 1362 230 1361 c 1
197 1370 m 2
 217 1390 l 1
 202 1390 l 1
 185 1373 l 2
 185 1373 l 1
 189 1372 193 1371 197 1370 c 2
207 1368 m 1
 206 1368 205 1369 203 1369 c 1
 205 1369 206 1368 207 1368 c 1
173 1376 m 2
 187 1390 l 1
 172 1390 l 1
 160 1378 l 2
 164 1377 169 1377 173 1376 c 2
147 1380 m 2
 157 1390 l 1
 142 1390 l 1
 135 1383 l 2
 139 1382 143 1381 147 1380 c 2
157 1379 m 1
 155 1379 153 1380 151 1380 c 1
 153 1380 155 1379 157 1379 c 1
125 1384 m 1
 124 1384 122 1384 121 1384 c 2
 127 1390 l 1
 112 1390 l 1
 108 1386 l 2
 105 1386 103 1387 100 1387 c 1
 109 1386 117 1385 125 1384 c 1
EndSplineSet
EndChar

StartChar: U
Encoding: 85 85 50
GlifName: U_
Width: 2214
Flags: HMW
AnchorPoint: "cedilla" 1196 0 basechar 0
AnchorPoint: "bottom" 1196 0 basechar 0
AnchorPoint: "top" 1234 1400 basechar 0
LayerCount: 2
Fore
SplineSet
1837 1075 m 5
 1849.56933594 1189.47265625 1873.35839844 1334.02246094 1900 1390 c 13
 1609 1390 l 21
 1675 1375 1692.91894531 1328.41699219 1757 1234 c 4
 1801.07226562 1169.06347656 1826 1116 1837 1075 c 5
120 1387 m 1
 202 1373 243.467565152 1357.57392591 282 1343 c 0
 369.267191846 1309.99337601 414 1287 414 1225 c 9
 414 1390 l 1
 120 1390 l 1
 120 1387 l 1
970 1387 m 1
 970 1390 l 1
 414 1390 l 1
 414 508 l 2
 414 198 632 34 970 -8 c 1
 970 -5 l 1
 802 50 656 212 656 499 c 2
 656 1225 l 2
 656 1287 690 1304 789 1343 c 0
 847 1366 898 1379 970 1387 c 1
2075 1377 m 2
 2028 1375 1999 1332 1962 1278 c 0
 1940 1246 1885 1159 1865 1114 c 0
 1858 1099 1854 1085 1854 1065 c 2
 1854 510 l 2
 1854 180 1605 -28 1169 -28 c 0
 663 -28 404 164 404 510 c 2
 404 1225 l 2
 404 1280 376 1296 276 1335 c 0
 211 1361 161 1371 80 1380 c 1
 80 1400 l 1
 1130 1400 l 1
 1130 1380 l 1
 1049 1371 999 1361 934 1335 c 0
 834 1295 806 1280 806 1225 c 2
 806 480 l 2
 806 216 991 17 1289 17 c 0
 1557 17 1824 186 1824 510 c 2
 1824 1065 l 2
 1824 1085 1820 1099 1813 1114 c 0
 1793 1159 1738 1246 1716 1278 c 0
 1679 1332 1650 1375 1603 1377 c 2
 1544 1380 l 1
 1544 1400 l 1
 2134 1400 l 1
 2134 1380 l 1
 2075 1377 l 2
EndSplineSet
EndChar

StartChar: S
Encoding: 83 83 51
GlifName: S_
Width: 1838
Flags: HMW
AnchorPoint: "cedilla" 911 0 basechar 0
AnchorPoint: "bottom" 911 0 basechar 0
AnchorPoint: "top" 924 1400 basechar 0
LayerCount: 2
Fore
SplineSet
1618 1440 m 1
 1638 1440 l 1
 1638 988 l 1
 1618 988 l 1
 1438 1206 1067 1390 769 1390 c 0
 477 1390 330 1298 330 1190 c 0
 330 1038 558.667383615 972.034247829 1016 930 c 0
 1560 880 1788 722 1788 440 c 0
 1788 130 1477 -28 1115 -28 c 0
 880 -28 664.916992188 43.8447265625 474 137 c 0
 458.721679688 144.455078125 435 155 406 155 c 0
 321 155 221 77 138 0 c 1
 120 0 l 1
 120 490 l 1
 140 490 l 1
 330 192 727 2 1115 2 c 0
 1337 2 1570 62 1570 250 c 0
 1570 424 1350 505 910 545 c 0
 367.457526026 594.322043089 80 681 80 1000 c 0
 80 1280 377 1420 769 1420 c 0
 942 1420 1136 1359 1270 1295 c 0
 1294 1283 1328 1276 1351 1276 c 0
 1457 1276 1545 1378 1618 1440 c 1
EndSplineSet
EndChar

StartChar: S
Encoding: 83 83 52
GlifName: S_000000000000001
Width: 1908
Flags: HMW
AnchorPoint: "cedilla" 971 0 basechar 0
AnchorPoint: "bottom" 971 0 basechar 0
AnchorPoint: "top" 984 1400 basechar 0
LayerCount: 2
Fore
SplineSet
446 1356 m 1
 294 1305 150 1200 150 1010 c 0
 150 700 427 614 970 565 c 0
 1410 525 1640 433 1640 250 c 0
 1640 102 1507 28 1335 2 c 1
 1507 12 1758 90 1758 370 c 4
 1758 572 1620 740 1076 790 c 0
 619 832 310 858 310 1130 c 0
 310 1208 334 1276 446 1356 c 1
470 165 m 1
 403 210 240 244 190 259 c 1
 190 9 l 1
 274 86 376 172 470 165 c 1
1331 1273 m 1
 1400 1230 1488 1181 1548 1128 c 9
 1548 1314 l 1
 1453 1249 1391 1255 1331 1273 c 1
1678 1440 m 1
 1698 1440 l 1
 1698 988 l 1
 1678 988 l 1
 1498 1206 1127 1390 829 1390 c 0
 537 1390 390 1298 390 1190 c 0
 390 1038 619 962 1076 920 c 0
 1620 870 1848 712 1848 430 c 0
 1848 120 1537 -28 1175 -28 c 0
 940 -28 725 44 534 137 c 0
 519 144 495 155 466 155 c 0
 381 155 281 77 198 0 c 1
 180 0 l 1
 180 490 l 1
 200 490 l 1
 390 192 787 2 1175 2 c 0
 1397 2 1630 62 1630 250 c 0
 1630 424 1410 515 970 555 c 0
 427 604 140 691 140 1010 c 0
 140 1290 437 1420 829 1420 c 0
 1002 1420 1196 1359 1330 1295 c 0
 1354 1283 1388 1276 1411 1276 c 0
 1517 1276 1605 1378 1678 1440 c 1
EndSplineSet
EndChar

StartChar: period
Encoding: 46 46 53
GlifName: period
Width: 880
Flags: HMW
LayerCount: 2
Fore
SplineSet
200 220 m 0
 200 352 308 460 440 460 c 0
 572 460 680 352 680 220 c 0
 680 88 572 -20 440 -20 c 0
 308 -20 200 88 200 220 c 0
EndSplineSet
EndChar

StartChar: comma
Encoding: 44 44 54
GlifName: comma
Width: 918
Flags: HMW
LayerCount: 2
Fore
SplineSet
204 218 m 0
 204 344 312 456 458 456 c 0
 606 456 718 334 718 148 c 0
 718 -123 510 -312 200 -312 c 1
 200 -292 l 5
 438 -282 575 -128 575 1 c 0
 575 6 573 18 561 18 c 4
 543.87890625 18 519 -20 440 -20 c 0
 294 -20 204 92 204 218 c 0
EndSplineSet
EndChar

StartChar: exclam
Encoding: 33 33 58
GlifName: exclam
Width: 880
VWidth: 0
Flags: HMW
LayerCount: 2
Fore
SplineSet
200 220 m 0
 200 352 308 460 440 460 c 0
 572 460 680 352 680 220 c 0
 680 88 572 -20 440 -20 c 0
 308 -20 200 88 200 220 c 0
140 1400 m 1
 740 1400 l 1
 740 1370 l 5
 540 1140 455 920 455 560 c 1
 425 560 l 1
 425 920 340 1090 140 1370 c 1
 140 1400 l 1
EndSplineSet
EndChar

StartChar: quotesingle
Encoding: 39 39 59
GlifName: quotesingle
Width: 840
Flags: HMW
LayerCount: 2
Fore
SplineSet
638 1192 m 28
 618 1042 435 966 435 746 c 5
 405 746 l 5
 405 966 222 1042 202 1192 c 28
 200 1206 200 1216 200 1228 c 4
 200 1346 302 1430 420 1430 c 4
 538 1430 640 1346 640 1228 c 4
 640 1216 640 1206 638 1192 c 28
EndSplineSet
EndChar

StartChar: numbersign
Encoding: 35 35 60
GlifName: numbersign
Width: 1210
VWidth: 0
Flags: HMW
LayerCount: 2
Fore
SplineSet
120 955 m 261
 120 985 l 261
 1150 985 l 261
 1150 955 l 261
 120 955 l 261
60 435 m 257
 60 465 l 257
 1090 465 l 257
 1090 435 l 257
 60 435 l 257
930 1400 m 257
 960 1400 l 257
 700 0 l 257
 670 0 l 257
 930 1400 l 257
510 1400 m 257
 540 1400 l 257
 280 0 l 257
 250 0 l 257
 510 1400 l 257
EndSplineSet
EndChar

StartChar: hyphen
Encoding: 45 45 61
GlifName: hyphen
Width: 560
VWidth: 0
Flags: HMW
LayerCount: 2
Fore
SplineSet
40 450 m 261
 40 650 l 261
 520 650 l 261
 520 450 l 261
 40 450 l 261
EndSplineSet
EndChar

StartChar: dollar
Encoding: 36 36 62
GlifName: dollar
Width: 1666
Flags: HMW
LayerCount: 2
Fore
SplineSet
872 1500 m 1
 902 1500 l 1
 902 -190 l 1
 872 -190 l 1
 872 1500 l 1
702 1500 m 1
 732 1500 l 1
 732 -190 l 1
 702 -190 l 1
 702 1500 l 1
873 -28 m 1
 434 -28 80 74 80 298 c 0
 80 412 183 468 313 468 c 0
 433 468 528 390 528 290 c 0
 528 119.997070312 370 156.147460938 370 113 c 0
 370 54.53515625 616.01953125 2 873 2 c 1
 873 -28 l 1
817 1420 m 1
 1176 1420 1470 1318 1470 1114 c 0
 1470 1000 1377 934 1247 934 c 4
 1127 934 1022 1012 1022 1112 c 4
 1022 1282.00292969 1170 1255.85253906 1170 1299 c 0
 1170 1347.46484375 1063.98046875 1390 817 1390 c 1
 817 1420 l 1
817 1390 m 1
 525 1390 358 1298 358 1190 c 0
 358 1038 466.215820312 937.522460938 864 900 c 0
 1367.26171875 852.528320312 1616 722 1616 440 c 0
 1616 130 1235 -28 873 -28 c 1
 873 2 l 1
 1095 2 1388 62 1388 250 c 0
 1388 414 1207.52441406 460.075195312 768 505 c 0
 285.458007812 554.322265625 98 691 98 970 c 0
 98 1260 425 1420 817 1420 c 1
 817 1390 l 1
EndSplineSet
EndChar

StartChar: bar
Encoding: 124 124 63
GlifName: bar
Width: 608
VWidth: 0
Flags: HMW
LayerCount: 2
Fore
SplineSet
200 1560 m 257
 408 1560 l 257
 408 -440 l 257
 200 -440 l 257
 200 1560 l 257
EndSplineSet
EndChar

StartChar: zero
Encoding: 48 48 64
GlifName: zero
Width: 1960
Flags: HMW
LayerCount: 2
Fore
SplineSet
980 1390 m 0
 702 1390 630 1264 630 700 c 0
 630 136 682 0 980 0 c 0
 1278 0 1330 136 1330 700 c 0
 1330 1264 1278 1390 980 1390 c 0
980 -20 m 0
 614 -20 160 256 160 700 c 0
 160 1144 634 1420 980 1420 c 0
 1326 1420 1800 1144 1800 700 c 0
 1800 256 1346 -20 980 -20 c 0
EndSplineSet
EndChar

StartChar: one
Encoding: 49 49 65
GlifName: one
Width: 1496
VWidth: 2308
Flags: HMW
LayerCount: 2
Fore
SplineSet
200 1080 m 1
 972 1490 l 1
 972 175 l 2
 972 120 1000 104 1100 65 c 0
 1165 39 1215 29 1296 20 c 1
 1296 0 l 1
 246 0 l 1
 246 20 l 1
 327 29 377 39 442 65 c 0
 542 104 570 120 570 175 c 2
 570 1237 l 1
 200 1044 l 1
 200 1080 l 1
EndSplineSet
EndChar

StartChar: two
Encoding: 50 50 66
GlifName: two
Width: 1848
VWidth: 2308
Flags: HMW
LayerCount: 2
Fore
SplineSet
160 -20 m 1
 160 293 410 508 680 582 c 0
 1033 678 1168 766 1168 1030 c 0
 1168 1283 1032 1387 800 1387 c 0
 553 1387 327 1292 327 1224 c 0
 327 1215 330 1209 337 1209 c 0
 363 1209 390 1224 448 1224 c 0
 567 1224 675 1152 675 1022 c 0
 675 882 560 804 430 804 c 0
 300 804 177 890 177 1054 c 0
 177 1258 451 1420 810 1420 c 0
 1272 1420 1638 1261 1638 1001 c 0
 1638 710 1090 661 692 553 c 0
 463 491 260 336 205 106 c 1
 276 285 497 424 798 424 c 0
 1115 424 1230 240 1491 240 c 0
 1629 240 1678 312 1688 456 c 1
 1708 456 l 1
 1708 158 1591 -50 1221 -50 c 0
 758 -50 737 224 448 224 c 0
 326 224 210 160 200 -20 c 1
 160 -20 l 1
EndSplineSet
EndChar

StartChar: four
Encoding: 52 52 67
GlifName: four
Width: 1665
VWidth: 2308
Flags: HMW
LayerCount: 2
Fore
SplineSet
814 448 m 1
 814 1138 l 1
 286 708 l 1
 286 448 l 1
 814 448 l 1
1540 20 m 1
 1540 0 l 1
 490 0 l 1
 490 20 l 1
 571 29 621 39 686 65 c 0
 786 104 814 120 814 175 c 2
 814 418 l 1
 80 418 l 1
 80 576 l 1
 1216 1500 l 1
 1216 448 l 1
 1420 448 l 2
 1456 448 1477 467 1500 516 c 0
 1526 571 1538 591 1545 622 c 1
 1565 622 l 1
 1565 244 l 1
 1545 244 l 1
 1538 275 1526 295 1500 350 c 0
 1477 399 1456 418 1420 418 c 2
 1216 418 l 1
 1216 175 l 2
 1216 120 1244 104 1344 65 c 0
 1409 39 1459 29 1540 20 c 1
EndSplineSet
EndChar

StartChar: slash
Encoding: 47 47 68
GlifName: slash
Width: 1330
VWidth: 0
Flags: HMW
LayerCount: 2
Fore
SplineSet
1220 1400 m 257
 150 0 l 261
 110 0 l 257
 1180 1400 l 257
 1220 1400 l 257
EndSplineSet
EndChar

StartChar: backslash
Encoding: 92 92 69
GlifName: backslash
Width: 1330
VWidth: 0
Flags: HMW
LayerCount: 2
Fore
SplineSet
110 1400 m 257
 150 1400 l 257
 1220 0 l 257
 1180 0 l 261
 110 1400 l 257
EndSplineSet
EndChar

StartChar: eight
Encoding: 56 56 70
GlifName: eight
Width: 1863
Flags: HMW
LayerCount: 2
Fore
SplineSet
914 1420 m 0
 1256 1420 1584 1290 1584 1070 c 0
 1584 949 1482 867 1332 818 c 1
 1609 724 1693 598 1693 430 c 0
 1693 110 1362 -28 950 -28 c 0
 568 -28 170 82 170 352 c 0
 170 469 286 559 451 613 c 1
 252 695 175 796 175 990 c 0
 175 1270 482 1420 914 1420 c 0
1272 837 m 1
 1374 876 1444 946 1444 1070 c 0
 1444 1298 1234 1390 914 1390 c 0
 582 1390 445 1308 445 1210 c 0
 445 1108 549 983 1001 900 c 0
 1105 881 1195 860 1272 837 c 1
950 2 m 0
 1222 2 1465 72 1465 220 c 0
 1465 334 1315 380 885 485 c 0
 736 521 614 554 517 588 c 1
 401 542 320 466 320 352 c 0
 320 104 640 2 950 2 c 0
EndSplineSet
EndChar

StartChar: nine
Encoding: 57 57 71
GlifName: nine
Width: 1860
VWidth: 2308
Flags: HMW
LayerCount: 2
Fore
SplineSet
550 1000 m 0
 550 666 680 600 858 600 c 0
 1024 600 1260 664 1260 840 c 0
 1260 1284 1120 1395 882 1395 c 0
 684 1395 550 1294 550 1000 c 0
1270 753 m 1
 1209 629 1018 570 858 570 c 0
 566 570 150 630 150 970 c 0
 150 1290 510 1420 882 1420 c 0
 1284 1420 1720 1210 1720 730 c 0
 1720 284 1416 -20 812 -20 c 0
 443 -20 269 102 269 256 c 0
 269 400 382 466 512 466 c 0
 642 466 757 388 757 248 c 0
 757 83 589 99 589 56 c 0
 589 28 665 10 792 10 c 0
 1115 10 1264 170 1270 753 c 1
EndSplineSet
EndChar

StartChar: three
Encoding: 51 51 72
GlifName: three
Width: 1852
VWidth: 2308
Flags: HMW
LayerCount: 2
Back
SplineSet
1692 360 m 4
 1692 70 1164 -20 832 -20 c 4
 498 -20 100 93 100 328 c 4
 100 460 200 556 350 556 c 4
 461 556 597 477 597 345 c 4
 597 211 483 150 384 150 c 4
 316.318359375 150 306.017578125 172.7421875 288 172.7421875 c 4
 284 172.7421875 281 171.481445312 281 167 c 4
 281 97 519.6328125 15 752 15 c 4
 1020 15 1260 142 1260 360 c 4
 1260 588 1194 734 726 734 c 5
 726 754 l 5
 1308 754 1692 611 1692 360 c 4
726 744 m 5
 726 764 l 5
 944 764 1210 824 1210 1072 c 4
 1210 1310 980 1388 762 1388 c 4
 554.11328125 1388 325.931640625 1328.2734375 228.91015625 1215.88671875 c 5
 281.409179688 1249.80078125 350.71484375 1268 405 1268 c 4
 524 1268 618 1194 618 1074 c 4
 618 944 518 871 378 871 c 4
 237 871 149 963 149 1095 c 4
 149 1310 468 1418 842 1418 c 4
 1225 1418 1632 1303 1632 1082 c 4
 1632 852 1288 744 726 744 c 5
EndSplineSet
Fore
SplineSet
726 734 m 1
 726 744 726 754 726 764 c 1
 944 764 1210 824 1210 1072 c 0
 1210 1310 980 1383 762 1383 c 0
 515 1383 319 1300 319 1266 c 0
 319 1259 322 1255 329 1255 c 0
 345 1255 362 1270 410 1270 c 0
 529 1270 627 1198 627 1068 c 0
 627 928 522 860 392 860 c 0
 262 860 139 946 139 1090 c 0
 139 1324 473 1418 842 1418 c 0
 1315 1418 1642 1293 1642 1072 c 0
 1642 870 1368 769 920 748 c 1
 1392 719 1692 582 1692 360 c 0
 1692 70 1164 -20 832 -20 c 0
 448 -20 100 103 100 338 c 0
 100 470 200 556 350 556 c 0
 461 556 597 477 597 345 c 0
 597 211 483 150 384 150 c 0
 316 150 306 173 288 173 c 0
 284 173 281 171 281 167 c 0
 281 117 480 20 752 20 c 0
 1020 20 1260 142 1260 360 c 0
 1260 588 1194 734 726 734 c 1
EndSplineSet
EndChar

StartChar: five
Encoding: 53 53 73
GlifName: five
Width: 1772
VWidth: 2308
Flags: HMW
LayerCount: 2
Fore
SplineSet
315 674 m 1
 299 674 283 674 267 674 c 1
 267 1390 l 1
 1577 1390 l 1
 1400 1030 l 1
 297 1030 l 1
 297 694 l 1
 379 772 604 849 864 849 c 0
 1226 849 1652 690 1652 390 c 0
 1652 100 1164 -20 832 -20 c 0
 448 -20 100 103 100 338 c 0
 100 470 200 556 350 556 c 0
 461 556 597 477 597 345 c 0
 597 211 483 150 384 150 c 0
 316 150 306 173 288 173 c 0
 284 173 281 171 281 167 c 0
 281 107 480 15 752 15 c 0
 1020 15 1220 172 1220 390 c 0
 1220 659 1092 808 794 808 c 0
 589 808 404 750 315 674 c 1
EndSplineSet
EndChar

StartChar: six
Encoding: 54 54 74
GlifName: six
Width: 1860
VWidth: 2308
Flags: HMW
LayerCount: 2
Fore
SplineSet
1340 400 m 0
 1340 734 1210 800 1032 800 c 0
 866 800 630 736 630 560 c 0
 630 116 770 5 1008 5 c 0
 1206 5 1340 106 1340 400 c 0
620 647 m 1
 681 771 872 830 1032 830 c 0
 1324 830 1740 770 1740 430 c 0
 1740 110 1380 -20 1008 -20 c 0
 606 -20 170 190 170 670 c 0
 170 1116 474 1420 1078 1420 c 0
 1447 1420 1621 1298 1621 1144 c 0
 1621 1000 1508 934 1378 934 c 0
 1248 934 1133 1012 1133 1152 c 0
 1133 1317 1301 1301 1301 1344 c 0
 1301 1372 1225 1390 1098 1390 c 0
 775 1390 626 1230 620 647 c 1
EndSplineSet
EndChar

StartChar: seven
Encoding: 55 55 75
GlifName: seven
Width: 1635
VWidth: 2308
Flags: HMW
LayerCount: 2
Fore
SplineSet
561 292 m 0
 561 520 715 673 909 796 c 0
 1014 863 1477 1095 1554 1334 c 1
 1472 1181 1140 994 836 994 c 0
 613 994 532 1108 363 1108 c 0
 280 1108 211 1056 190 973 c 1
 190 804 l 1
 160 804 l 1
 160 1400 l 1
 190 1400 l 1
 190 1072 l 1
 263 1258 488 1418 773 1418 c 0
 1070 1418 1113 1254 1334 1254 c 0
 1462 1254 1533 1336 1553 1400 c 1
 1595 1400 l 1
 1595 1141 1218 961 1047 787 c 0
 943 681 895 562 895 444 c 0
 895 310 971 216 1171 246 c 1
 1171 112 1041 -20 863 -20 c 0
 683 -20 561 84 561 292 c 0
EndSplineSet
EndChar

StartChar: plus
Encoding: 43 43 76
GlifName: plus
Width: 1350
VWidth: 0
Flags: HMW
LayerCount: 2
Fore
SplineSet
180 420 m 257
 180 600 l 257
 1170 600 l 257
 1170 420 l 257
 180 420 l 257
570 1000 m 257
 770 1000 l 257
 770 20 l 257
 570 20 l 257
 570 1000 l 257
EndSplineSet
EndChar

StartChar: equal
Encoding: 61 61 77
GlifName: equal
Width: 1230
VWidth: 0
Flags: HMW
LayerCount: 2
Fore
SplineSet
130 230 m 257
 130 430 l 257
 1100 430 l 257
 1100 230 l 257
 130 230 l 257
130 580 m 257
 130 780 l 257
 1100 780 l 257
 1100 580 l 257
 130 580 l 257
EndSplineSet
EndChar

StartChar: percent
Encoding: 37 37 78
GlifName: percent
Width: 1922
VWidth: 0
Flags: HMW
LayerCount: 2
Fore
SplineSet
1516 1400 m 261
 446 0 l 261
 406 0 l 261
 1476 1400 l 261
 1516 1400 l 261
1030 340 m 260
 1030 528 1186 700 1466 700 c 260
 1726 700 1902 528 1902 340 c 260
 1902 152 1726 -20 1466 -20 c 260
 1186 -20 1030 152 1030 340 c 260
1362 340 m 260
 1362 168 1376 0 1466 0 c 260
 1556 0 1570 168 1570 340 c 260
 1570 512 1556 680 1466 680 c 260
 1376 680 1362 512 1362 340 c 260
20 1060 m 260
 20 1248 196 1420 456 1420 c 260
 716 1420 892 1248 892 1060 c 260
 892 872 716 700 456 700 c 260
 196 700 20 872 20 1060 c 260
352 1060 m 260
 352 888 366 720 456 720 c 260
 546 720 560 888 560 1060 c 260
 560 1232 546 1400 456 1400 c 260
 366 1400 352 1232 352 1060 c 260
EndSplineSet
EndChar

StartChar: ampersand
Encoding: 38 38 79
GlifName: ampersand
Width: 2222
Flags: HMW
LayerCount: 2
Fore
SplineSet
1341 409 m 1
 1568.43652344 696.915039062 l 2
 1592.2734375 727.090820312 1570.02050781 756.426757812 1524.29199219 788 c 0
 1482.45507812 816.88671875 1435.02441406 841 1351 850 c 1
 1351 870 l 1
 1985 870 l 1
 1985 850 l 1
 1938.97558594 846 1896.8359375 831.8984375 1814.70800781 805 c 0
 1754.57617188 785.305664062 1654.00097656 751.403320312 1596 680 c 2
 1345 371 l 1
 1341 409 l 1
698 816 m 1
 738 788 l 1
 628 774 490 678 490 504 c 0
 490 278 610 67 842 67 c 0
 1066 67 1196 272 1298 380 c 1
 1336 380 l 1
 1188 198 1048 -20 652 -20 c 0
 256 -20 100 144 100 370 c 0
 100 628 432 772 698 816 c 1
1080 848 m 9
 1050 878 l 1
 1198 929 1324 1036 1324 1174 c 0
 1324 1292 1186 1390 992 1390 c 0
 848 1390 796 1332 796 1260 c 0
 796 1160 860.027833893 1103.41271269 952 1020 c 2
 1500 523 l 2
 1603.93899938 428.734155674 1745 385 1840 385 c 0
 1933 385 2028 422 2092 502 c 1
 2106 470 2122 405 2122 330 c 0
 2122 97.953125 1892.49316406 -20 1721 -20 c 0
 1542 -20 1398 54 1278 167 c 1
 612 880 l 2
 554.380859375 941.685546875 495 996 495 1126 c 0
 495 1306 660 1420 992 1420 c 0
 1216 1420 1354 1314 1354 1174 c 0
 1354 1020 1252 934 1080 848 c 9
EndSplineSet
EndChar

StartChar: question
Encoding: 63 63 80
GlifName: question
Width: 1271
Flags: HMW
LayerCount: 2
Fore
SplineSet
593 1419 m 1
 573 1387 l 1
 326 1387 175 1286 175 1218 c 0
 175 1208 178 1205 184 1205 c 0
 223 1205 250 1238 337 1238 c 0
 432 1238 528 1183 528 1081 c 0
 528 981 443 903 303 903 c 0
 173 903 90 969 90 1103 c 0
 90 1257 234 1419 593 1419 c 1
344 220 m 0
 344 352 452 460 584 460 c 0
 716 460 824 352 824 220 c 0
 824 88 716 -20 584 -20 c 0
 452 -20 344 88 344 220 c 0
695 820 m 0
 771 864 809 964 809 1110 c 0
 809 1298 721 1387 573 1387 c 1
 593 1419 l 1
 925 1419 1191 1340 1191 1100 c 0
 1191 911 1019.88085938 884.150390625 836 832 c 0
 613.280273438 768.834960938 597 720.061597372 597 558 c 1
 565 558 l 1
 565 723.265625 578.902019458 752.957504194 695 820 c 0
EndSplineSet
EndChar

StartChar: parenleft
Encoding: 40 40 81
GlifName: parenleft
Width: 910
Flags: HMW
LayerCount: 2
Fore
SplineSet
890 -238 m 1
 880 -253 l 1
 394 -113 130 209 130 675 c 0
 130 1141 394 1423 880 1563 c 1
 890 1548 l 1
 662 1448 532 1059 532 675 c 4
 532 291 662 -138 890 -238 c 1
EndSplineSet
EndChar

StartChar: asterisk
Encoding: 42 42 83
GlifName: asterisk
Width: 1443
Flags: HMW
LayerCount: 2
Fore
SplineSet
715 849 m 0
 906 959 889 1138 1009 1230 c 0
 1020 1239 1029 1244 1039 1250 c 0
 1141 1309 1255 1280 1314 1178 c 0
 1373 1076 1341 963 1239 904 c 0
 1229 898 1220 893 1207 888 c 0
 1067 830 920 933 729 823 c 0
 538 713 555 534 435 442 c 0
 424 433 415 428 405 422 c 0
 303 363 189 392 130 494 c 0
 71 596 103 709 205 768 c 0
 215 774 224 779 237 784 c 0
 377 842 524 739 715 849 c 0
729 849 m 0
 920 739 1067 842 1207 784 c 0
 1220 779 1229 774 1239 768 c 0
 1341 709 1373 596 1314 494 c 0
 1255 392 1141 363 1039 422 c 0
 1029 428 1020 433 1009 442 c 0
 889 534 906 713 715 823 c 0
 524 933 377 830 237 888 c 0
 224 893 215 898 205 904 c 0
 103 963 71 1076 130 1178 c 0
 189 1280 303 1309 405 1250 c 0
 415 1244 424 1239 435 1230 c 0
 555 1138 538 959 729 849 c 0
737 836 m 0
 737 616 900 540 920 390 c 0
 922 376 922 366 922 354 c 0
 922 236 840 152 722 152 c 0
 604 152 522 236 522 354 c 0
 522 366 522 376 524 390 c 0
 544 540 707 616 707 836 c 0
 707 1056 544 1132 524 1282 c 0
 522 1296 522 1306 522 1318 c 0
 522 1436 604 1520 722 1520 c 0
 840 1520 922 1436 922 1318 c 0
 922 1306 922 1296 920 1282 c 0
 900 1132 737 1056 737 836 c 0
EndSplineSet
EndChar

StartChar: less
Encoding: 60 60 84
GlifName: less
Width: 1280
VWidth: 0
Flags: HMW
LayerCount: 2
Fore
SplineSet
434 524 m 257
 1150 210 l 257
 1150 10 l 257
 130 450 l 257
 130 580 l 257
 1150 1020 l 257
 1150 820 l 257
 434 524 l 257
EndSplineSet
EndChar

StartChar: greater
Encoding: 62 62 85
GlifName: greater
Width: 1280
VWidth: 0
Flags: HMW
LayerCount: 2
Fore
SplineSet
846 506 m 257
 130 820 l 257
 130 1020 l 257
 1150 580 l 257
 1150 450 l 257
 130 10 l 257
 130 210 l 257
 846 506 l 257
EndSplineSet
EndChar

StartChar: bracketleft
Encoding: 91 91 86
GlifName: bracketleft
Width: 768
Flags: HMW
LayerCount: 2
Fore
SplineSet
710 -250 m 1
 108 -250 l 1
 108 -220 l 1
 710 -220 l 1
 710 -250 l 1
710 1530 m 1
 108 1530 l 1
 108 1560 l 1
 710 1560 l 1
 710 1530 l 1
500 1560 m 5
 500 -250 l 5
 108 -250 l 1
 108 1560 l 1
 500 1560 l 5
EndSplineSet
EndChar

StartChar: asciicircum
Encoding: 94 94 88
GlifName: asciicircum
Width: 1140
VWidth: 0
Flags: HMW
LayerCount: 2
Fore
SplineSet
570 1242 m 257
 120 920 l 257
 90 920 l 257
 460 1420 l 257
 680 1420 l 261
 1050 920 l 257
 1020 920 l 257
 570 1242 l 257
EndSplineSet
EndChar

StartChar: underscore
Encoding: 95 95 89
GlifName: underscore
Width: 1000
VWidth: 0
Flags: HMW
LayerCount: 2
Fore
SplineSet
0 -306 m 261
 0 -156 l 257
 1000 -156 l 257
 1000 -306 l 261
 0 -306 l 261
EndSplineSet
EndChar

StartChar: grave
Encoding: 96 96 90
GlifName: grave
Width: 823
Flags: HMW
LayerCount: 2
Fore
SplineSet
292 1360 m 2
 193.18359375 1340.28222656 100 1422 100 1520 c 4
 100 1618 212.083984375 1699.75878906 312 1656 c 2
 723 1476 l 1
 723 1446 l 1
 292 1360 l 2
EndSplineSet
EndChar

StartChar: braceleft
Encoding: 123 123 91
GlifName: braceleft
Width: 776
VWidth: 2308
Flags: HMW
LayerCount: 2
Fore
SplineSet
716 1560 m 1
 716 1530 l 1
 592 1530 500 1440 500 1314 c 4
 500 1202 568 1107 568 947 c 4
 568 781 488 690 100 650 c 1
 100 665 l 1
 160 685 222 735 222 817 c 0
 222 943 100 1008 100 1242 c 0
 100 1460 244 1560 716 1560 c 1
716 -250 m 1
 244 -250 100 -148 100 70 c 0
 100 304 222 371 222 497 c 0
 222 579 160 625 100 645 c 1
 100 660 l 1
 488 620 568 531 568 365 c 4
 568 205 500 110 500 -2 c 4
 500 -128 592 -220 716 -220 c 1
 716 -250 l 1
EndSplineSet
EndChar

StartChar: asciitilde
Encoding: 126 126 93
GlifName: asciitilde
Width: 1374
VWidth: 2308
Flags: HMW
LayerCount: 2
Fore
SplineSet
410 814 m 4
 314 814 230 770 230 686 c 5
 200 686 l 5
 200 916 300 1080 498 1080 c 4
 718 1080 756 892 948 892 c 4
 1064 892 1146 936 1146 1020 c 5
 1176 1020 l 5
 1176 790 1076 626 878 626 c 4
 624 626 616 814 410 814 c 4
EndSplineSet
EndChar

StartChar: hyphentwo
Encoding: 8208 8208 96
GlifName: uni2010
Width: 640
Flags: HW
LayerCount: 2
Fore
SplineSet
40 450 m 257
 40 650 l 257
 600 650 l 257
 600 450 l 257
 40 450 l 257
EndSplineSet
EndChar

StartChar: hyphennobreak
Encoding: 8209 8209 97
GlifName: uni2011
Width: 640
Flags: HW
LayerCount: 2
Fore
SplineSet
40 450 m 257
 40 650 l 257
 600 650 l 257
 600 450 l 257
 40 450 l 257
EndSplineSet
EndChar

StartChar: figuredash
Encoding: 8210 8210 98
GlifName: figuredash
Width: 892
Flags: HW
LayerCount: 2
Fore
SplineSet
40 450 m 257
 40 650 l 257
 852 650 l 257
 852 450 l 257
 40 450 l 257
EndSplineSet
EndChar

StartChar: endash
Encoding: 8211 8211 99
GlifName: endash
Width: 1062
Flags: HW
LayerCount: 2
Fore
SplineSet
40 470 m 257
 40 670 l 257
 1022 670 l 257
 1022 470 l 257
 40 470 l 257
EndSplineSet
EndChar

StartChar: emdash
Encoding: 8212 8212 100
GlifName: emdash
Width: 1630
Flags: HW
LayerCount: 2
Fore
SplineSet
40 470 m 257
 40 670 l 257
 1590 670 l 257
 1590 470 l 257
 40 470 l 257
EndSplineSet
EndChar

StartChar: horizontalbar
Encoding: 8213 8213 101
GlifName: uni2015
Width: 1802
Flags: HW
LayerCount: 2
Fore
SplineSet
40 700 m 5
 72 700 l 5
 72 440 l 5
 40 440 l 5
 40 700 l 5
1732 700 m 5
 1762 700 l 5
 1762 440 l 5
 1732 440 l 5
 1732 700 l 5
40 470 m 261
 40 670 l 261
 1762 670 l 261
 1762 470 l 261
 40 470 l 261
EndSplineSet
EndChar

StartChar: perthousand
Encoding: 8240 8240 108
GlifName: perthousand
Width: 2892
VWidth: 0
Flags: HW
LayerCount: 2
Fore
SplineSet
2000 340 m 260
 2000 528 2156 700 2436 700 c 260
 2696 700 2872 528 2872 340 c 260
 2872 152 2696 -20 2436 -20 c 260
 2156 -20 2000 152 2000 340 c 260
2332 340 m 260
 2332 168 2346 0 2436 0 c 260
 2526 0 2540 168 2540 340 c 260
 2540 512 2526 680 2436 680 c 260
 2346 680 2332 512 2332 340 c 260
1516 1400 m 261
 446 0 l 261
 406 0 l 261
 1476 1400 l 261
 1516 1400 l 261
1030 340 m 260
 1030 528 1186 700 1466 700 c 260
 1726 700 1902 528 1902 340 c 260
 1902 152 1726 -20 1466 -20 c 260
 1186 -20 1030 152 1030 340 c 260
1362 340 m 260
 1362 168 1376 0 1466 0 c 260
 1556 0 1570 168 1570 340 c 260
 1570 512 1556 680 1466 680 c 260
 1376 680 1362 512 1362 340 c 260
20 1060 m 260
 20 1248 196 1420 456 1420 c 260
 716 1420 892 1248 892 1060 c 260
 892 872 716 700 456 700 c 260
 196 700 20 872 20 1060 c 260
352 1060 m 260
 352 888 366 720 456 720 c 260
 546 720 560 888 560 1060 c 260
 560 1232 546 1400 456 1400 c 260
 366 1400 352 1232 352 1060 c 260
EndSplineSet
EndChar

StartChar: pertenthousand
Encoding: 8241 8241 109
GlifName: uni2031
Width: 3862
VWidth: 0
Flags: HW
LayerCount: 2
Fore
SplineSet
2970 340 m 260
 2970 528 3126 700 3406 700 c 260
 3666 700 3842 528 3842 340 c 260
 3842 152 3666 -20 3406 -20 c 260
 3126 -20 2970 152 2970 340 c 260
3302 340 m 260
 3302 168 3316 0 3406 0 c 260
 3496 0 3510 168 3510 340 c 260
 3510 512 3496 680 3406 680 c 260
 3316 680 3302 512 3302 340 c 260
2000 340 m 256
 2000 528 2156 700 2436 700 c 256
 2696 700 2872 528 2872 340 c 256
 2872 152 2696 -20 2436 -20 c 256
 2156 -20 2000 152 2000 340 c 256
2332 340 m 256
 2332 168 2346 0 2436 0 c 256
 2526 0 2540 168 2540 340 c 256
 2540 512 2526 680 2436 680 c 256
 2346 680 2332 512 2332 340 c 256
1516 1400 m 257
 446 0 l 257
 406 0 l 257
 1476 1400 l 257
 1516 1400 l 257
1030 340 m 256
 1030 528 1186 700 1466 700 c 256
 1726 700 1902 528 1902 340 c 256
 1902 152 1726 -20 1466 -20 c 256
 1186 -20 1030 152 1030 340 c 256
1362 340 m 256
 1362 168 1376 0 1466 0 c 256
 1556 0 1570 168 1570 340 c 256
 1570 512 1556 680 1466 680 c 256
 1376 680 1362 512 1362 340 c 256
20 1060 m 256
 20 1248 196 1420 456 1420 c 256
 716 1420 892 1248 892 1060 c 256
 892 872 716 700 456 700 c 256
 196 700 20 872 20 1060 c 256
352 1060 m 256
 352 888 366 720 456 720 c 256
 546 720 560 888 560 1060 c 256
 560 1232 546 1400 456 1400 c 256
 366 1400 352 1232 352 1060 c 256
EndSplineSet
EndChar

StartChar: cent
Encoding: 162 162 111
GlifName: cent
Width: 2152
Flags: HW
LayerCount: 2
Fore
SplineSet
1082 1500 m 5
 1112 1500 l 5
 1112 -190 l 5
 1082 -190 l 5
 1082 1500 l 5
1151 1395 m 1
 1140 1425 l 1
 1499 1425 1773 1263 1773 1059 c 0
 1773 895 1650 809 1520 809 c 0
 1390 809 1275 887 1275 1027 c 0
 1275 1157 1383 1229 1502 1229 c 0
 1559.97460938 1229 1587.37109375 1214.48730469 1613 1214.48730469 c 0
 1620 1214.48730469 1623 1220 1623 1229 c 0
 1623 1297.46484375 1397.98046875 1395 1151 1395 c 1
1151 1395 m 1
 883 1395 630 1134 630 700 c 0
 630 266 843 21 1180 21 c 0
 1474 21 1686 269 1742 412 c 1
 1772 412 l 1
 1712 246 1486 -20 1120 -20 c 0
 584 -20 160 256 160 700 c 0
 160 1144 624 1425 1140 1425 c 1
 1151 1395 l 1
EndSplineSet
EndChar

StartChar: yen
Encoding: 165 165 112
GlifName: yen
Width: 2394
Flags: HW
LayerCount: 2
Fore
SplineSet
1511 380 m 257
 1511 410 l 257
 2221 410 l 257
 2221 380 l 257
 1511 380 l 257
1511 580 m 257
 1511 610 l 257
 2221 610 l 257
 2221 580 l 257
 1511 580 l 257
221 380 m 261
 221 410 l 261
 1081 410 l 261
 1081 380 l 261
 221 380 l 261
221 580 m 261
 221 610 l 261
 1081 610 l 261
 1081 580 l 261
 221 580 l 261
1835 20 m 1
 1835 0 l 1
 1511 0 l 1
 1511 175 l 17
 1511 120 1539 104 1639 65 c 0
 1704 39 1754 29 1835 20 c 1
757 20 m 1
 838 29 888 39 953 65 c 0
 1053 104 1081 120 1081 175 c 9
 1081 0 l 1
 757 0 l 1
 757 20 l 1
1081 490 m 1
 1511 610 l 1
 1511 0 l 1
 1081 0 l 1
 1081 490 l 1
1490 628 m 1
 1966 1187 l 2
 1982 1206 1923 1259 1878 1306 c 0
 1819 1368 1739 1376 1675 1380 c 1
 1675 1400 l 1
 2139 1400 l 1
 2189 1400 l 1
 2399 1400 l 1
 2399 1380 l 1
 2363 1376 2279 1337 2199 1295 c 0
 2132 1259 2035 1223 1990 1170 c 2
 1511 610 l 1
 1490 628 l 1
1511 610 m 1
 1081 490 l 1
 378 1241 l 2
 343 1278 289 1309 230 1337 c 0
 157 1372 124 1376 50 1381 c 1
 50 1401 l 1
 260 1401 l 1
 770 1401 l 1
 1134 1401 l 1
 1134 1381 l 1
 1050 1379 988 1350 948 1322 c 0
 903 1290 877 1254 903 1228 c 2
 1511 610 l 1
EndSplineSet
EndChar

StartChar: sterling
Encoding: 163 163 113
GlifName: sterling
Width: 1848
VWidth: 2308
Flags: HW
LayerCount: 2
Fore
SplineSet
50 705 m 261
 50 735 l 261
 1080 735 l 261
 1080 705 l 261
 50 705 l 261
186 1001 m 1
 636 1090 l 1
 636 922 740 871 740 721 c 0
 740 402 155 441 190 0 c 1
 170 0 l 1
 132 277 328 353 328 541 c 0
 328 770 186 771 186 1001 c 1
636 1090 m 1
 186 1001 l 1
 186 1261 552 1420 1014 1420 c 0
 1373 1420 1647 1258 1647 1054 c 0
 1647 890 1524 804 1394 804 c 0
 1264 804 1149 882 1149 1022 c 0
 1149 1152 1257 1224 1376 1224 c 0
 1433.97460938 1224 1461.37109375 1209.48730469 1487 1209.48730469 c 0
 1494 1209.48730469 1497 1215 1497 1224 c 0
 1497 1292.46484375 1270.98046875 1387 1024 1387 c 0
 792 1387 636 1303 636 1090 c 1
180 0 m 257
 180 234.627929688 448.868164062 424 798 424 c 256
 1114.89355469 424 1230.23925781 240 1491 240 c 256
 1629 240 1678 312 1688 456 c 257
 1708 456 l 257
 1708 158.213867188 1590.83984375 -50 1221 -50 c 256
 758.452148438 -50 736.58203125 224 448 224 c 256
 356 224 210 180 200 0 c 257
 180 0 l 257
EndSplineSet
EndChar

StartChar: brokenbar
Encoding: 166 166 114
GlifName: brokenbar
Width: 608
VWidth: 0
Flags: HW
LayerCount: 2
Fore
SplineSet
200 1560 m 257
 408 1560 l 257
 408 760 l 257
 200 760 l 257
 200 1560 l 257
200 360 m 257
 408 360 l 257
 408 -440 l 257
 200 -440 l 257
 200 360 l 257
EndSplineSet
EndChar

StartChar: copyright
Encoding: 169 169 115
GlifName: copyright
Width: 1860
Flags: HW
LayerCount: 2
Fore
SplineSet
100 750 m 0
 100 1176 464 1520 930 1520 c 0
 1396 1520 1760 1176 1760 750 c 0
 1760 324 1396 -20 930 -20 c 0
 464 -20 100 324 100 750 c 0
174 750 m 0
 174 362 502 52 930 52 c 0
 1358 52 1686 362 1686 750 c 0
 1686 1138 1358 1448 930 1448 c 0
 502 1448 174 1138 174 750 c 0
EndSplineSet
Refer: 3 67 S 0.6 0 0 0.6 228 320 2
EndChar

StartChar: registered
Encoding: 174 174 116
GlifName: registered
Width: 1860
Flags: HW
LayerCount: 2
Fore
SplineSet
100 750 m 0
 100 1176 464 1520 930 1520 c 0
 1396 1520 1760 1176 1760 750 c 0
 1760 324 1396 -20 930 -20 c 0
 464 -20 100 324 100 750 c 0
174 750 m 0
 174 362 502 52 930 52 c 0
 1358 52 1686 362 1686 750 c 0
 1686 1138 1358 1448 930 1448 c 0
 502 1448 174 1138 174 750 c 0
EndSplineSet
Refer: 13 82 S 0.6 0 0 0.6 230 328 2
EndChar

